<?xml version="1.0" encoding="UTF-8"?> <svg xmlns="http://www.w3.org/2000/svg" id="Capa_2" data-name="Capa 2" viewBox="0 0 163.2 34.06"><defs><style> .cls-1 { fill: #fff; stroke-width: 0px; } </style></defs><g id="Laag_1" data-name="Laag 1"><path class="cls-1" d="M28,27.56c-1.2-.9-2.3-1.8-3.5-2.8-.9,1.5-1.8,2.9-2.8,4.5-1-.9-1.9-1.8-2.9-2.7-1.6,2.5-3.1,5-4.7,7.5-1.6-2.6-3.1-5-4.7-7.5-1,.9-1.9,1.8-2.9,2.7-.9-1.5-1.9-3-2.8-4.5-1.2,1-2.4,1.9-3.6,2.9l-.1-.1c.2-.4.3-.7.5-1.1,1.5-3.3,2.1-6.9,2.1-10.5,0-2.1,0-4.1.3-6.2,0-1.2.6-2.3,1-3.5h.2c.6.7,1.1,1.3,1.7,2,.1.1.1.4,0,.7s-.2.7-.3,1c-.5,2,.7,3.8,2.7,4.2.5.1.9.2,1.3.2.2,1.1-.1,1.9-1.1,2.4-.8.4-1.6.9-2.5,1.5.5.3.9.6,1.3.7,2.3.9,3.6,2.7,4.3,4.9.7,2.2,1.5,4.4,2.2,6.7.1.2.2.4.3.8.4-1.1.7-2.1,1.1-3.1.6-1.9,1.3-3.7,1.9-5.6.6-1.6,1.7-2.7,3.3-3.5.6-.3,1.2-.6,1.9-1-.9-.5-1.6-1.1-2.4-1.4-1.1-.5-1.4-1.2-1.3-2.4.4-.1.9-.2,1.4-.3,2.5-.6,3.4-3.1,2.5-4.8-.3-.6-.2-1.1.3-1.6.4-.4.8-.9,1.3-1.5.1.2.2.3.3.4.8,1.6,1.2,3.3,1.3,5.2.1,2.9.2,5.8.4,8.6.2,2.1.9,4.1,1.8,6,.1.3.3.6.4.9-.1.2-.2.2-.2.3Z"></path><path class="cls-1" d="M24.8,2.16c-.6,1.6-1.6,3.1-2.9,4.2-1.7,1.4-3.6,2.7-5.4,4-.2.2-.7.1-1,0-1-.5-2-.5-3,0-.3.1-.7.1-1,0-3.2-1.7-5.9-4-7.8-7-.2-.4-.3-.8-.5-1.2l.1-.1c.3.2.7.5,1,.7q1.2.9,2.4-.1c1.3-1.1,2.8-1.9,4.4-2.3,3.9-.9,7.4-.1,10.5,2.5q.9.7,1.8.1c.5-.3.9-.6,1.4-.8Z"></path><path class="cls-1" d="M41.2,9.46c-1.6-.2-3.2-.1-4.7-.1h-1.7v12.8c1.9,0,3.8.1,5.6,0,1.9-.1,3.7-.7,4.9-2.3,1.1-1.5,1.3-3.3,1.1-5.1-.5-3.3-2-4.9-5.2-5.3ZM42.4,18.36c-1.1,1.7-2.9,1.6-4.7,1.5v-8.3c1.9,0,3.8-.3,4.8,1.6,1,1.7,1,3.6-.1,5.2Z"></path><path class="cls-1" d="M55.9,14.66v2.1h-5v3.2h5.8v2.2h-8.8v-12.7h8.8v2.2h-5.8v3.1c1.7-.1,3.4-.1,5-.1Z"></path><path class="cls-1" d="M64.3,17.36c-.9,1.5-1.7,2.8-2.5,4.3-.2.4-.5.6-.9.5h-2.6c.8-1.2,1.4-2.3,2.1-3.4.6-.9,1.1-1.9,1.7-2.8.3-.4.2-.7,0-1.1-1-1.6-2.1-3.3-3.1-5-.1-.2-.2-.3-.3-.6h2.8c.2,0,.4.3.6.5.7,1.2,1.4,2.3,2.2,3.6.2-.4.4-.7.6-1,.5-.9,1.1-1.8,1.6-2.7.2-.4.4-.5.9-.5h2.6c-.6,1-1.1,1.9-1.7,2.8-.6.9-1.1,1.9-1.7,2.8-.2.3-.2.6,0,.9,1.2,1.9,2.3,3.9,3.5,5.8.1.1.1.2.2.5h-2.9c-.2,0-.4-.3-.5-.4-.7-1.2-1.5-2.4-2.2-3.6-.1-.1-.3-.3-.4-.6Z"></path><path class="cls-1" d="M9.5,18.26c.2-.1.2-.2.3-.3,1.3-.4,1.5-1.4,1.6-2.5.1-.8.2-1.7.6-2.5.8-1.6,2.9-1.7,3.8-.1.4.8.6,1.7.7,2.6.1,1.1.3,2.1,1.5,2.5.1,0,.2.1.4.3-2.7,1.7-3.5,4.4-4.4,7.2-1-2.7-1.7-5.6-4.5-7.2Z"></path><path class="cls-1" d="M139,19.26v-10h1.3v12.5c-.7.2-1.2.1-1.7-.6-2.1-3-4.2-5.9-6.4-8.9-.1-.2-.3-.3-.5-.7v10.2h-1.3v-12.5c.7-.2,1.2,0,1.6.6,2.1,3,4.2,5.9,6.4,8.9.1.2.3.4.4.5s.1,0,.2,0Z"></path><path class="cls-1" d="M155.9,21.86h-1.3v-12.6h4.6c1.8.1,3.1,1.2,3.5,2.9.4,1.8-.4,3.4-2,4.2-.1.1-.2.1-.4.2,1,1.7,1.9,3.4,2.9,5.2q-1.4.2-2-.9c-.7-1.2-1.3-2.4-2-3.7-.1-.2-.3-.4-.5-.4h-2.8v5.1ZM156,15.56h3.1c1.4,0,2.4-1,2.5-2.4.1-1.3-.8-2.5-2.1-2.7-1.1-.1-2.3,0-3.5,0v5.1Z"></path><path class="cls-1" d="M106.8,21.76c-1.3.3-1.4.2-2-.8-.7-1.2-1.3-2.4-2-3.7-.2-.4-.4-.5-.9-.5h-2.5v5.1h-1.2v-12.5c1.7,0,3.5-.1,5.2,0,1.6.2,2.7,1.4,3,3.1.2,1.6-.5,3.1-1.9,3.8-.1.1-.3.2-.5.3.9,1.8,1.8,3.5,2.8,5.2ZM99.5,15.56h3.1c1.4,0,2.3-1,2.5-2.3.1-1.4-.7-2.6-2-2.7-1.2-.1-2.3,0-3.6,0v5Z"></path><path class="cls-1" d="M73.2,18.06h1.1c.3.6.5,1.2.9,1.7,1.1,1.4,3.5,1.6,4.9.5s1.2-2.9-.5-3.6c-.8-.3-1.7-.5-2.5-.7-.6-.2-1.1-.3-1.6-.6-2.9-1.2-2.2-4.3-.5-5.5,2.3-1.6,5.9-.6,6.8,1.8.1.3.2.7.3,1.1h-1.3c-.8-2.2-2.6-3.1-4.6-2.2-.4.2-.8.5-1,.8-.8,1-.5,2.2.7,2.7,1,.4,2,.6,3,.9.5.2,1,.3,1.5.5,2,.9,2.6,3.3,1.2,5-1.3,1.5-3.1,1.8-4.9,1.4-1.8-.3-2.9-1.4-3.4-3.2,0-.1-.1-.3-.1-.4v-.2Z"></path><path class="cls-1" d="M110.7,16.06v4.6h6.3v1.1h-7.6v-12.5h7.7v1.1h-6.3v4.5h5.6v1.2c-1.9,0-3.8,0-5.7,0Z"></path><path class="cls-1" d="M151.5,9.26v1.1h-6.4v4.5h5.6v1.2h-5.7v4.6h6.4v1.1h-7.6v-12.5c2.6,0,5.1,0,7.7,0Z"></path><path class="cls-1" d="M121.2,20.66h6.3v1.1h-7.6v-12.5h7.6v1.1h-6.3v4.5h5.7v1.2h-5.7v4.6Z"></path><path class="cls-1" d="M94.8,18.06c-.1,1.5-1.4,3.1-3,3.6-3.5,1.2-6.9-.7-7.6-4.3-.4-2.1-.3-4.2,1-6,1.2-1.8,3-2.5,5.1-2.2,2,.2,3.5,1.2,4.3,3.2.1.2.1.5.2.7q-1.1.2-1.6-.7c-.7-1.3-1.8-1.9-3.3-2-1.6-.1-2.8.5-3.7,1.8-1.3,1.9-1.3,5.1,0,7,.9,1.4,2.2,1.9,3.8,1.8,1.6-.1,2.7-.9,3.3-2.4.4-.9,1-.4,1.5-.5Z"></path><path class="cls-1" d="M20.6,9.86c.5.9.4,1.6-.3,2.1-.8.7-2.3.8-3.2.1,1.2-.8,2.3-1.5,3.5-2.2Z"></path><path class="cls-1" d="M7.4,9.86c1.2.8,2.3,1.5,3.5,2.2-.9.7-2.4.6-3.2-.1-.6-.5-.7-1.2-.3-2.1Z"></path></g></svg> 