<svg fill="none" height="72" viewBox="0 0 25 25" width="72" xmlns="http://www.w3.org/2000/svg"><g stroke="#fff" stroke-linecap="round" stroke-linejoin="round" stroke-width="1.5"><path d="m9.6373 20.4657c-.55462-.126-1.09853-.3105-1.62201-.5536-.44661-.1796-.81149-.3251-1.15788-.3251-.96717.0049-2.17176.946-2.79643.3192-.62564-.6277.31234-1.8354.31234-2.8117 0-.3485-.13914-.7088-.31818-1.156-1.39529-3.0265-.85722-6.72667 1.63271-9.22405 3.17785-3.18958 8.34165-3.18958 11.52045 0"/><path d="m18.3227 19.9888c-1.9052.8836-4.2336.5429-5.806-1.0349-2.0073-2.0141-2.0112-5.2827 0-7.3007 2.0073-2.01415 5.2689-2.01415 7.2762 0 1.5714 1.5777 1.9119 3.9149 1.0304 5.8265-.1129.2822-.2004.5097-.2004.7293 0 .6171.5915 1.3795.1965 1.7759-.3941.3964-1.155-.1982-1.765-.2021-.2199.001-.4505.0918-.7317.206z"/></g></svg>