<?xml version="1.0" encoding="UTF-8"?> <svg xmlns="http://www.w3.org/2000/svg" viewBox="0 0 407.22 508.15"><defs><style> .cls-1 { opacity: .34; } .cls-1, .cls-2, .cls-3, .cls-4, .cls-5, .cls-6, .cls-7, .cls-8, .cls-9, .cls-10, .cls-11, .cls-12, .cls-13, .cls-14, .cls-15, .cls-16, .cls-17, .cls-18 { stroke-width: 0px; } .cls-1, .cls-9 { fill: #8d5b9c; } .cls-1, .cls-19 { mix-blend-mode: multiply; } .cls-2 { fill: #03dbed; } .cls-3 { fill: #dcd7c9; } .cls-4 { fill: #e5ef7f; } .cls-5 { fill: #ff4549; } .cls-6 { fill: #e8b387; } .cls-20 { isolation: isolate; } .cls-7 { fill: #301b40; } .cls-8 { fill: #fc9504; } .cls-10 { fill: #eff3f7; } .cls-11 { fill: #6ee67d; } .cls-12 { fill: #8b589a; } .cls-13 { fill: #ff9982; } .cls-14 { fill: #fff3f2; } .cls-15 { fill: #fe7c90; } .cls-16 { fill: #ffa5c4; } .cls-19 { opacity: .24; } .cls-17 { fill: #fffffe; } .cls-18 { fill: #72b869; } </style></defs><g class="cls-20"><g id="Capa_2" data-name="Capa 2"><g id="OBJECTS"><g><path class="cls-5" d="M233.17,58.98c13.35.75,26.83.43,39.96,3.62,24.75,6.02,47.39,16.74,68.16,31.4,14.27,10.07,24.74,23.59,33.8,38.31,3.42,5.56,6.86,11.1,9.72,16.98,2.61,5.35,5.65,10.5,6.57,16.54.22,1.45.78,2.89,1.4,4.24,5.1,11.08,5.47,23.08,6.67,34.88.65,6.47.11,13.02,1.08,19.52.89,5.93-.27,11.94-1.11,17.79-1.25,8.64-3.45,17.13-5.1,25.71-2.34,12.18-8.45,22.69-15,32.85-9.39,14.56-19.11,28.93-32.06,40.78-5.53,5.05-11.44,9.55-17.53,13.84-5.03,3.54-10.11,7.03-15.39,10.17-9.67,5.74-20.02,9.62-31.18,11.57-14.38,2.51-28.85,4.22-43.37,3.1-16.73-1.28-33.61-3.72-48.96-10.51-19.18-8.48-38.66-16.88-54.73-31.02-5.32-4.68-10.54-9.49-14.81-15.19-14.24-19.05-26.18-39.42-35.38-61.38-4.59-10.94-7.05-22.37-7.64-34.16-.22-4.47-1.29-8.81-1.32-13.31-.18-23.5,5.15-45.67,14.65-67.13,7.27-16.43,16.66-31.13,29.57-43.68,11.01-10.7,24.19-18,37.76-24.58,14.93-7.24,30.36-13.28,46.56-17.27,9.14-2.25,18.28-3.54,27.68-3.07ZM237.44,339.1c4.12-3.47,8.75-2.93,13.12-1.04,4.77,2.06,9.42,4.43,13.88,7.21,5.22,3.26,10.87,5.72,16.99,6.91,4.95.96,9.76.72,13.86-2.46,4.17-3.22,7.69-7.06,9.19-12.35.96-3.4,2.25-6.72,2.99-10.16,2.26-10.45,8.19-18.08,17.2-23.6,3.03-1.86,6.15-3.53,9.38-4.96,8.02-3.55,14.38-9.25,20.22-15.55,2.78-3,5.5-6.49,5.92-10.59.58-5.71.61-11.52-.24-17.28-1.46-9.94-5.06-19.36-6.89-29.23-1.75-9.44-2.19-18.92-1.34-28.35.9-9.96,3.32-19.73,5.72-29.47,2.17-8.8,4.24-17.59,2.01-26.92-1.69-7.09-5.45-12.03-11.53-15.61-7.46-4.39-15.83-5.01-24.13-6.02-12.18-1.48-21.96-6.62-27.35-18.3-.55-1.18-1.09-2.4-1.82-3.47-6.78-9.87-12.67-12.14-23.14-10.04-8.37,1.68-15.84,5.21-22.92,9.77-9.01,5.81-18.6,8.39-29.21,5.24.09-1.73-.08-3.35-1.63-4.5-6.28-4.64-12.14-9.9-19.27-13.3-3.55-1.69-7.22-1.81-10.84-.32-6.13,2.52-11.22,6.32-15.48,11.54-6.05,7.42-9.1,16.15-12.1,24.97-2.34,6.87-3.44,14.11-6.17,20.87-2.89,7.14-6.92,13.08-15.03,15.23-5.05,1.34-9.71,3.83-14.23,6.43-6.66,3.83-11.78,9.03-13.83,16.76-2.31,8.71-1.43,17.36.39,25.98,2.08,9.87,7.22,18.27,12.81,26.47,4.53,6.65,8.23,13.57,9.71,21.72,1.08,5.93-.43,11.5-.96,17.16-.96,10.15,1.89,18.65,8.75,25.99,2.23,2.38,4.89,3.81,8.12,4.57,5.36,1.26,10.76.8,16.14.77,4.12-.02,7.62,1.27,10.92,3.6,4.48,3.15,6.74,7.84,9.05,12.52,3.2,6.5,5.34,13.53,9.56,19.51,6.35,9.02,16.34,13.3,25.6,11.07,4.77-1.15,9.02-3.51,13.13-6.06,1.66-1.03,3.59-2.21,3.45-4.71ZM136.62,131.52c0-2.79-.14-5.55-1.19-8.21-1.21-3.08-3.02-5.54-6.31-6.58-3.29-1.04-5.99-.03-7.63,2.83-3.84,6.68-1.65,17.72,4.44,22.36,3.45,2.63,7.38,1.72,9.21-2.23,1.19-2.57,1.55-5.33,1.49-8.16ZM108.53,242.88c0-1.33.15-3.2-.03-5.03-.43-4.52-4.14-6.87-8.31-5.11-3.33,1.4-5.76,4.06-7.19,7.3-2.86,6.5.43,12.65,1.58,18.89.13.72,1.17,1.39,1.94,1.85,3.07,1.83,6.36.92,8.57-2.49,2.93-4.52,3.83-9.57,3.44-15.41ZM371.65,205.77s.02,0,.04,0c0,2.42-.17,4.85.04,7.26.35,4.12,4.66,6.28,8.16,4.07,2.22-1.41,3.95-3.43,4.97-5.9,1.88-4.59,1.76-9.5,1.61-14.28-.12-3.79-3.17-6.61-6.23-6.92-3.08-.32-5.7,1.4-7.49,4.8-.8,1.53-1.15,3.11-1.1,4.83.06,2.05.01,4.1.01,6.15ZM349.79,317.67c10.93-3.48,29.76-28.5,29.2-38.94-10.39,11.32-16.4,25.66-27.99,35.54-.54.46-.87,1.2-1.19,1.86-.14.29-.02.7-.02,1.55ZM233.46,65.78c.09,0-1.17-.2-2.08.26-4.63,2.39-8.82,5.43-11.94,9.67-1.44,1.96-1.03,3.9,1.14,5.19,1.76,1.05,3.63,2.01,5.76,1.72,5.02-.69,9.82-2.06,13.75-5.45,4.01-3.46,3.66-6.92-.74-9.95-1.45-1-2.98-1.44-5.89-1.44ZM171.29,84.6c-.76-.37-1.1-.7-1.39-.66-15.5,2-27.05,10.66-37.01,21.99-.12.14-.26.31-.28.48-.04.51-.23,1.2.02,1.5.28.33,1.02.52,1.48.42,1.88-.41,3.28-1.67,4.7-2.89,8.36-7.21,17.18-13.67,27.65-17.57,1.64-.61,3.52-1.13,4.82-3.26ZM231.81,359.69c-.12,5.15,3.13,9.71,7.96,11.69,3.25,1.34,5.6.38,7.42-2.69,2.14-3.62.49-11.58-4.32-14.26-2.3-1.28-4.63-2.66-7.34-1.28-2.83,1.45-3.55,4.13-3.72,6.53ZM323.03,96.2c-2.03-.02-4.08-.46-6.05.45-1.95.9-3.56,1.97-3.65,4.43-.09,2.2.46,3.9,2.45,5.21,3.69,2.45,7.6,3.88,12.07,3.31,3.75-.48,6.26-2.8,6.48-5.86.22-3.14-2.89-6.99-6.28-7.5-1.63-.24-3.34-.04-5.01-.04ZM122.37,157.22c7.74.33,13.51-2.85,18.14-8.41,5.53-6.64,7.78-14.66,9.41-22.91.08-.43-.32-.95-.48-1.39-1.86-.13-2.25,1.2-2.75,2.38-1.91,4.43-3.74,8.91-5.75,13.3-3.15,6.88-7.97,12.01-15.38,14.41-1.15.37-2.58.61-3.18,2.63ZM150.32,337.47c-4.24-5.71-9.7-9.63-13.78-14.76-4.19-5.27-8.3-10.6-12.87-16.46-1.15,10.02,16.74,30.79,26.66,31.23ZM166.57,322.86c.1-2.27-.23-4.49-1.04-6.59-1.7-4.38-4.79-5.17-8.16-2.04-.94.87-1.98,1.93-2.31,3.09-1.08,3.75-2.12,7.57-1.47,11.54.54,3.34,2.18,5.17,4.7,5.53,2.55.36,5.57-1.27,6.85-3.92,1.15-2.38,1.61-4.96,1.44-7.61ZM299.12,356.38c-3.53,2.13-7.35,3.42-10.99,5.1-6.55,3.02-12.85,3.4-19.11-.71-1.58-1.03-3.33-2.17-5.6-1.2,11.68,14.18,31.78,8.22,35.7-3.19ZM106.82,216.67c-.3,3.46.81,6.38,2.36,9.13,2.38,4.21,4.69,8.47,7.36,12.49,2.99,4.5,4.6,9.29,4.5,14.7-.04,1.95-.21,4.03,1.56,5.78.42-2.45.76-4.65,1.17-6.83.76-4.01.18-7.99-1.66-11.42-4.48-8.31-10.6-15.6-15.29-23.85ZM338.18,328.28c.03-5.71-6.26-11.81-11.99-11.64-1.86.06-3.02.84-3.72,2.68-1.38,3.64-.79,6.77,1.67,9.75,2.66,3.23,5.82,5.14,10.12,4.38,2.65-.47,3.9-2.23,3.92-5.17ZM256.87,71.62c6.39,1.31,12.22.72,17.63,2.37,5.54,1.69,11.08,3.14,17.75,2.73-8.08-6.75-27-10.26-35.39-5.11ZM125.39,291.93c-.07-4.78-2.72-7.7-6.92-7.61-4.73.09-6.8,2.23-6.7,6.94.1,4.83,3.57,8.72,7.68,8.61,3.68-.1,6.02-3.22,5.95-7.94ZM93.37,199.23c4.76-.02,6.75-1.92,7.9-6.93.59-2.59-.42-5.23-2.38-6.23-2.59-1.32-6.58-.25-9.04,2.43-.25.27-.35.71-.63.91-2.43,1.64-2.7,4.03-1.72,6.39,1.14,2.73,3.74,3.37,5.88,3.43ZM375.02,163.15c-2.47.02-4.3,1.06-5.18,3.42-1.49,4.01,1.38,9.48,5.52,10.77.94.29,1.76.32,2.66-.09,2.84-1.27,4.46-5.38,3.58-9.16-.66-2.81-3.53-4.97-6.58-4.94ZM384.03,244.15c.06-4.96-1.72-7.16-5.75-7.13-3.1.03-6.79,4.46-6.85,8.22-.05,3.17,3.03,5.64,7.04,5.64,3.8,0,5.51-2.07,5.56-6.73ZM181.45,343.52c-3.71-.09-5.84,1.77-5.86,5.11-.03,3.84,3.13,7.22,6.88,7.36,3.32.12,5.18-1.84,5.36-5.65.19-3.9-2.45-6.72-6.38-6.82ZM102.17,147.23c-6,4.23-8.05,10.18-6.23,16.79,2.75-5.2,4.39-10.37,6.23-16.79ZM86.14,213.5c-1.35,5.86-1.56,11.62,1.74,16.98-.46-5.67-.85-11.35-1.74-16.98ZM368.48,139.94c.57,1.94,1.11,3.89,1.72,5.81.61,1.94.27,4.31,2.69,5.5-.01-4.31-.29-8.52-4.41-11.32ZM111.77,131.01c-3.43,1.13-4.92,3.15-6.22,5.32-.21.36-.11,1.1.13,1.49.46.74,1.37.72,1.93.29,2.04-1.55,3.53-3.5,4.15-7.1ZM156.94,103.26c-2.84,2.37-6.09,4.59-5.7,9.64,3.33-2.71,4.93-5.88,5.7-9.64ZM298.13,78.41c-.64.05-.99.43-1.03,1.03-.09,1.63,2.18,3.84,3.92,3.84.64,0,.98-.37,1.01-.98.05-1.41-2.53-3.97-3.9-3.89ZM382.78,264.68c1.18-2.09,2.83-4.13.82-7.4-1.38,2.89-2.27,4.97-.82,7.4ZM121.25,262.12c.33,2.97-1.68,6.25,1,9.78,1.34-4.04-.73-6.8-1-9.78ZM309.38,348.99c-.17-.81-.68-.86-1.19-.81-.59.06-1.05.4-1.01,1.02.04.62.58.9,1.1.69.45-.18.78-.63,1.1-.9Z"></path><path class="cls-8" d="M116.93,330.66c1.15.59,2.33,1.05,3.21,2.13,6.22,7.61,14.05,13.26,22.4,18.27.95.57,2.01,1.02,2.79,2.4-9.56,7.32-20.82,12.11-30.23,19.66-2.26-1.24-2.28-3.6-3.53-5.15-2.8-3.5-6.81-3.32-9.03.55-.46.8-.86,1.67-1.09,2.56-.7,2.7-1.57,4.64-5.19,4.1-2.66-.4-4.34,1.88-5.41,4.15-1.59,3.37-3.17,6.75-4.44,10.24-.95,2.61-2.57,4.28-4.89,5.75-14.06,8.95-29.84,13.3-45.76,17.23-5.29,1.31-10.75.88-16-.68-10.94-3.26-17.16-14.05-14.75-25.26,2.36-10.98,7.66-20.45,14.44-29.3,8.28-10.8,17.42-20.83,26.45-30.98.88-.99,1.86-1.83,3.22-2.07,1.29.05,2.58.16,3.87.13,19.17-.48,38.05,2.06,56.84,5.5.99.53,2.03.24,3.06.21,1.28.64,2.54,1.52,4.04.54ZM17.62,373.52c-1.36.23-1.95.78-2.13,1.49-1.28,5.09-1.58,10.24-.47,15.4.31,1.46.94,2.81,2.11,3.83.61.54,1.33.76,2.01.31.67-.44.87-1.12.38-1.89-3.71-5.92-3.24-12.31-1.89-19.14ZM121.58,346.66c-2.76.56-4.15,2.34-4.94,5.41,3.35-.73,4.3-2.91,4.94-5.41Z"></path><path class="cls-6" d="M296.5,406.77c-1.22,7.5-.67,16.1-1.08,24.65-.15,3.13-1.05,6.22-1.61,9.33-1.54,8.59-3.54,17.11-1.92,25.98.43,2.33,1.31,3.49,3.35,4.53,5.85,2.97,12.1,4.78,18.26,6.88,5.73,1.96,10.34,5.05,11.88,11.43.62,2.59.54,5.2.4,7.79-.19,3.68-2.08,5.32-5.74,5.33-3.25,0-6.24-1.13-9.15-2.33-9.97-4.13-20.21-7.59-30.05-12.07-3.29-1.5-5.24-3.55-5.38-7.04-.1-2.57-.64-5.06-.52-7.72.73-15.98,3.62-31.86,2.52-47.93-.44-6.5-.97-12.99-1.06-19.52-.04-2.98,1.03-4.13,3.75-5.04,4.3-1.44,8.8-1.44,13.15-2.41,1.99-.44,3.25.38,3.2,2.64-.04,1.49,0,2.98,0,5.5Z"></path><path class="cls-6" d="M182.65,390.02c5.43,1.51,10.17,4.12,15.17,6.08,1.6.63,2.26,1.85,2.27,3.49.08,16.04.74,32.12-.03,48.12-.36,7.34-1.91,14.69-1.87,22.14.02,2.79.03,5.56.62,8.34.75,3.53.39,7.14-1.18,10.4-1.65,3.41-4.7,5.42-8.39,5.83-12.37,1.38-24.54,4.75-37.15,3.79-1.11-.09-2.25.04-3.35-.11-4.58-.6-6.58-2.92-6.53-7.46.05-5.06,1.96-7.57,6.68-7.97,5.93-.5,11.9-.23,17.84-1.12,6.64-1,13.03-3.1,19.62-4.25,3.3-.58,4.04-2.82,3.97-5.72-.16-6.55-1.79-12.89-2.61-19.35-.74-5.9-1.54-11.83-2.93-17.6-3.35-13.96-1.92-28.14-2.46-42.23-.03-.7.19-1.4.33-2.38Z"></path><path class="cls-18" d="M116.93,330.66c-1.5.98-2.75.1-4.04-.54-.61-1.31-1.54-2.12-3.07-2.06-14.99-5.7-30.62-6.84-46.45-6.51-4.44.09-8.87.54-13.3.83,2.72-4.71,6.72-8.4,10.29-12.39,5.21-5.84,10.45-11.63,15.26-17.82,3.29-4.24,6.88-8.25,10.64-12.74,3.2,3.82,4.82,7.97,6.86,11.79,6.42,12.03,13.55,23.59,21.96,34.33,1.18,1.5,2.1,3.08,1.84,5.1ZM86.01,313.71c-7.9-2.44-15.85-3.49-23.93-1.4,7.88,2.2,15.9,2.15,23.93,1.4ZM102.28,314.89c-1.51-.58-2.81-.96-4.38.37,1.57.41,2.87,1.06,4.38-.37Z"></path><path class="cls-6" d="M391.99,394.04c-.57,6.5-1.15,13-1.76,19.92-2.57-.79-3.42-2.23-3.94-4.1-1.93-6.96-1.99-14.4-5.33-21.01-.57-1.13,1.47-2.33-.31-3.69-4.28,4.48-8.19,9.39-13.31,13.38-1.45-1.92-.31-3.18.43-4.24,3.34-4.76,5.47-10.16,8.17-15.26,2.59-4.9,3.06-10.31,3.36-15.69.3-5.39.42-10.81.23-16.21-.3-8.4.64-16.73,1.04-25.08.17-3.52,3.56-6.47,7.07-6.4,1.08.02,1.81.46,1.9,1.55.11,1.48.13,2.98.13,4.47,0,7.83-.17,15.66-.02,23.49.19,10.06,1.01,20.11,4.21,29.71,2.34,7.03,5.41,13.81,8.1,20.72,1.28,3.29,2.72,6.55,3.14,10.09.14,1.21.53,2.81-.85,3.56-1.72.95-2.89-.44-3.7-1.61-3.03-4.35-6.83-8.25-8.54-13.6Z"></path><path class="cls-10" d="M324.29,50.7c-1.32,2.5-2.13,5.66-4.5,7.88-.99.93-2.46.69-3.73.17-8.08-3.32-16.46-5.96-24.1-10.31-3.26-1.86-3.18-1.79-1.38-5.41,1.07-2.15,1.88-4.45,2.62-6.74.71-2.2,1.78-3.23,4.08-1.97,8.31,4.55,17.39,7.68,24.98,13.57.88.68,1.96,1.12,2.02,2.81Z"></path><path class="cls-14" d="M50.08,322.38c4.43-.29,8.86-.74,13.3-.83,15.82-.33,31.46.81,46.44,6.51,0,.62,0,1.24.01,1.85-18.79-3.44-37.67-5.98-56.84-5.5-1.29.03-2.58-.08-3.87-.13.02-.78.19-1.49.95-1.9Z"></path><path class="cls-6" d="M82.55,400.95c5.64-2.48,6.36-7.81,7.99-12.6.84-2.47,1.82-4.89,3.53-6.89,1.78-2.08,3.59-1.87,4.74.53.38.8.65,1.81.52,2.66-.91,5.94-2.59,11.58-7.09,15.93-3.17,3.06-4.8,3.16-9.69.37Z"></path><path class="cls-6" d="M109.4,378.99c-.37,2.74-.63,6.63-1.89,10.36-.55,1.64-1.34,3.06-2.66,4.16-.84.7-1.72,1.71-2.91,1.08-1.41-.74-.29-1.96-.26-2.97.11-3.34.27-6.69.34-10.03.08-3.66,1.39-6.9,3.35-9.89,1-1.52,2.15-1.22,3.02.21,1.12,1.83,1.13,3.89,1,7.08Z"></path><path class="cls-6" d="M120.82,388.97c-.05,1.05.44,2.44-.7,3.01-1.5.75-2.27-.71-3.11-1.61-2.56-2.76-4.98-5.58-2.82-9.73.71-1.35,1.58-2.72,3.18-2.71,1.68,0,1.78,1.77,1.97,2.9.46,2.72,1.82,5.28,1.48,8.14Z"></path><path class="cls-16" d="M219.36,102.82c10.62,3.15,20.2.57,29.21-5.24,7.08-4.56,14.54-8.09,22.92-9.77,10.47-2.1,16.36.17,23.14,10.04.73,1.07,1.27,2.28,1.82,3.47,5.39,11.68,15.17,16.82,27.35,18.3,8.3,1.01,16.67,1.64,24.13,6.02,6.08,3.57,9.84,8.52,11.53,15.61,2.22,9.33.16,18.12-2.01,26.92-2.4,9.74-4.82,19.51-5.72,29.47-.85,9.43-.41,18.91,1.34,28.35,1.83,9.87,5.43,19.29,6.89,29.23.85,5.77.82,11.57.24,17.28-.42,4.1-3.14,7.59-5.92,10.59-5.84,6.3-12.2,12-20.22,15.55-3.23,1.43-6.34,3.1-9.38,4.96-9.01,5.53-14.94,13.16-17.2,23.6-.74,3.44-2.03,6.76-2.99,10.16-1.49,5.3-5.02,9.13-9.19,12.35-4.11,3.17-8.92,3.42-13.86,2.46-6.12-1.19-11.77-3.65-16.99-6.91-4.46-2.78-9.11-5.15-13.88-7.21-4.37-1.89-9-2.43-13.12,1.04-1.33-.06-2.63.06-3.72.92-2.39,1.91-5.32,2.67-8.08,3.75-8.44,3.31-16.33,2.71-23.45-3.47-3.21-2.78-5.09-6.35-6.98-10.01-3.59-6.95-5.8-14.55-10.33-21.05-3.44-4.95-7.76-8.32-13.81-9.63-4.66-1.01-9.22-.77-13.87-.43-5.59.41-10.88-.55-14.57-5.19-6.64-8.36-8.46-17.75-6.69-28.38,1.3-7.82,1.89-15.96-1.62-23.64-1.94-4.25-4.28-8.3-6.97-12.09-8.73-12.32-14.46-25.48-13.38-41.07.51-7.38,3.15-13.2,9.04-17.72,5.96-4.57,12.58-7.94,19.22-11.33,8.33-4.26,14.17-10.7,17.04-19.7,2.43-7.63,4.67-15.32,7.39-22.84,2.99-8.28,6.88-16.04,13.74-22.05,7.3-6.39,11.73-7.25,20.18-2.91,4.81,2.47,9.44,5.27,13.74,8.54,1.53,1.17,2.99,2.23,5.02,2.02ZM175.76,164.52l-.2-.2c-.37-4.91,3.25-8.97,3.32-13.74-1.75-.68-2.48.3-2.98,1.25-4.66,8.95-8.75,18.13-10.29,28.21-1.16,7.53-1.63,15.15-2.55,22.7-1.3,10.67-.86,21.2.56,31.71.67,4.92,1.93,9.77,3.79,14.52,4.01,10.22,9.98,19.17,16.95,27.45,9.22,10.95,20.23,19.21,34.91,21.5,4.58.71,9.13,1.77,13.61,2.94,7.47,1.95,15.26,2.14,22.69,1.78,12.77-.63,24.59-5.64,35.72-11.91,2.08-1.17,4.2-2.44,5.83-4.3,4.41-5.02,8.92-9.96,13.23-15.07,2.4-2.85,4.48-5.97,6.93-9.27,1.18,2.96-2.02,5.3.41,7.8.65-1.25,1.39-2.33,1.82-3.53,5.35-14.96,8.7-30.34,9.61-46.24.46-8.05-.52-16.02-1.4-23.94-.67-6.02-1.99-12.1-5.19-17.55-10.35-17.63-26.2-28.72-44.19-37.22-9.3-4.39-19.23-6.95-29.27-8.95-4.35-.87-8.91-1.74-13.26-1.36-6.27.55-12.62.76-18.8,2.21-10.2,2.39-19.09,6.92-26.61,14.45-5.28,5.29-9.71,11.23-14.66,16.76ZM315.77,145.17c15.23,15,20.86,33.86,22.38,54.5.78-.42,1.2-.52,1.38-.78.3-.45.61-.99.63-1.51.34-8.38.12-16.71-1.9-24.92-1.83-7.42-6.09-13.56-10.38-19.62-2.77-3.91-6.32-7.29-12.12-7.67ZM266.38,311.65c10.5,2.57,19.36-1.7,28.13-6.21,8.87-4.57,19.09-15.07,20.67-22.05-14.27,14.19-30.08,23.77-48.8,28.26ZM329.15,265.48c0,2.06-.02,2.8,0,3.54.07,2.59.91,4.72,3.53,5.74,2.48.97,4.33-.39,6.04-1.8,2.18-1.78,3.79-4,4.83-6.68,1.23-3.2.92-6.58,1.5-9.83.48-2.67.37-4.81-1.87-6.4-1.85-1.32-5.42-.57-7.67,1.32-4.8,4.04-5.95,9.58-6.37,14.1ZM334.85,286.87c.69.2,1.16.5,1.34.37,7.25-4.76,14.05-9.9,15.18-19.41.24-2.03-.13-4.15.28-6.13,1.63-7.91-1.44-15.06-2.86-23.46-1.8,4.1-2.06,5.58-1.57,8.9.84,5.68,1.21,11.39.85,17.1-.34,5.46-1.68,10.47-6.09,14.44-2.61,2.35-5.65,4.61-7.13,8.18ZM288.7,332.14c.11-3.46-2.18-6.69-5.63-8.17-1.78-.76-3.65-.5-5.47-.73-4.22-.54-9.07,4.01-8.85,8.21.07,1.4.58,2.72,1.77,3.27,3.32,1.54,6.36,3.8,10.1,4.33,4.54.64,7.93-2.28,8.07-6.91ZM267.39,108.98c.39,2.05-.51,3.97.73,5.28,1.44,1.53,3-.92,4.65-.27.85.33,1.8.48,2.71.56,3.32.3,6.62-2.48,7.43-6.19.74-3.4-.79-6.24-4.02-7.61-2.58-1.1-5.23-1.4-7.18.8-1.97,2.22-6.44,3.32-4.32,7.42ZM157.17,191.55c.17-.33.46-.63.5-.97,1.6-12.87,5.56-24.9,12.75-35.78.41-.62.86-1.21,1.28-1.82.34-.5.4-1.05,0-1.5-.61-.69-1.37-.44-2.02-.08-.47.26-.91.65-1.25,1.08-8.35,10.53-12.42,22.6-12.89,35.95-.04,1.28-.05,2.67,1.63,3.12ZM166.78,267.18c0-4.36-1.54-5.96-5.87-6.38-2.65-.26-4.82.56-6.32,2.7-1.49,2.12-2.94,4.3-4.05,6.63-1.67,3.49-.16,6.21,3.62,7.08,5.97,1.36,12.64-3.92,12.63-10.02ZM129.67,197.87c.07.3,0,1.45.55,2.04,2.37,2.6,4.5,5.53,7.71,7.2,4.28,2.21,7.29.37,7.56-4.53.27-4.89-2.3-8.06-8.41-10.39-4.3-1.64-7.52.55-7.41,5.67ZM349.61,167.06c1.23-.53,1.51-1.72,1.57-2.73.35-5.73.74-11.5-.14-17.19-.72-4.63-2.47-8.92-6.03-12.23-1.8-1.67-1.81-1.65-5.28-.93,4.57,2.85,6.51,7.19,7.26,12.03.82,5.29,1.39,10.63,1.21,16.02-.06,1.75-.54,3.78,1.42,5.02ZM131.43,179.33c-5.84,1.52-10.41,4.47-11.61,10.52-1.67,8.4.67,16.13,5.57,23.08.33.47.93.49,1.77-.04-1.85-4.27-3.39-8.71-4.41-13.38-1.63-7.5.6-13.06,6.68-17.39.82-.58,2.18-.83,1.99-2.79ZM333.66,134.52c0-3.73-2.62-6.97-5.62-6.97-3,0-5.64,3.21-5.72,6.96-.08,4,2.23,6.44,5.95,6.28,3.51-.15,5.4-2.35,5.39-6.27ZM211.47,331.3c-.02,4.1,2.08,6.61,5.58,6.67,2.86.05,4.64-2.36,4.61-6.26-.03-4.02-1.82-6.05-5.44-6.12-3.63-.08-4.72,1.24-4.74,5.71ZM175.52,115.06c-5.04,3.84-8.7,17.96-6.43,25.16,3.6-8.62,4.15-17.09,6.43-25.16ZM308.32,125.06c-4.06-1.36-6.76-4.15-9.47-6.93-1.29-1.32-2.55-2.66-3.88-3.94-.63-.61-1.41-1.47-2.32-.65-.8.72-.37,1.71.05,2.55,1.89,3.78,4.87,6.47,8.71,8.1,2.16.92,4.33,2.41,6.91.87ZM239.31,317.4c6.08.74,11.17,1.1,16.1-1.02.83-.36,1.77-.9,1.42-2.03-.36-1.15-1.53-1.09-2.31-.8-3.22,1.18-6.55.94-9.86,1.04-1.85.05-3.56.31-5.35,2.81ZM201.15,102.69c5.41,8.53,11.6,11.98,17.5,9.99-7.1-.35-10.3-7.25-17.5-9.99ZM339.55,215.86c-2.06,5.63-3.56,11.34-2.92,17.4,4.62-5.21,3.51-11.35,2.92-17.4ZM288.03,132.65c.17-.72.42-1.21.29-1.37-3.4-4.03-8.46-4.92-13.02-6.73-.34-.13-1.1.31-1.4.69-.61.77-.03,1.45.63,1.73,4.47,1.92,8.96,3.78,13.5,5.67ZM152.37,222.71c-.39,6.9.6,12.72,3.21,18.31.03-5.27-.61-10.46-1.23-15.64-.09-.72-.09-1.46-1.98-2.67ZM188.3,113.56c1.52-.62,2.74-1.64,2.58-3.56-.12-1.48-1.22-2.31-2.64-2.2-1.8.14-3.24,1.24-3.15,3.09.07,1.52,1.44,2.41,3.21,2.67ZM188.94,132.63c-.04-.65-.41-1.46-1.25-1.27-1.32.29-2.35,1.24-2.62,2.59-.19.93.7,1.11,1.47,1.14,1.6.07,2.43-.68,2.4-2.46ZM346.55,222.69c-.96,2.25-2.75,4.48-.05,7.54.78-2.94.5-5.24.05-7.54Z"></path><path class="cls-13" d="M219.36,102.82c-2.03.21-3.49-.85-5.02-2.02-4.31-3.27-8.93-6.08-13.74-8.54-8.45-4.34-12.89-3.48-20.18,2.91-6.86,6.01-10.75,13.77-13.74,22.05-2.72,7.52-4.97,15.21-7.39,22.84-2.87,9.01-8.71,15.45-17.04,19.7-6.64,3.39-13.26,6.76-19.22,11.33-5.89,4.51-8.53,10.33-9.04,17.72-1.09,15.59,4.65,28.75,13.38,41.07,2.69,3.79,5.03,7.84,6.97,12.09,3.51,7.68,2.92,15.81,1.62,23.64-1.77,10.62.05,20.02,6.69,28.38,3.68,4.64,8.98,5.6,14.57,5.19,4.65-.34,9.21-.58,13.87.43,6.05,1.31,10.37,4.68,13.81,9.63,4.53,6.5,6.74,14.11,10.33,21.05,1.89,3.66,3.77,7.23,6.98,10.01,7.12,6.18,15.01,6.78,23.45,3.47,2.76-1.08,5.69-1.84,8.08-3.75,1.09-.87,2.39-.98,3.72-.92.14,2.5-1.79,3.68-3.45,4.71-4.11,2.55-8.37,4.91-13.13,6.06-9.26,2.23-19.25-2.05-25.6-11.07-4.22-5.98-6.36-13.02-9.56-19.51-2.3-4.68-4.57-9.37-9.05-12.52-3.31-2.32-6.81-3.61-10.92-3.6-5.38.02-10.78.49-16.14-.77-3.23-.76-5.89-2.18-8.12-4.57-6.86-7.34-9.71-15.84-8.75-25.99.53-5.66,2.04-11.23.96-17.16-1.48-8.15-5.18-15.08-9.71-21.72-5.59-8.2-10.73-16.6-12.81-26.47-1.82-8.62-2.7-17.27-.39-25.98,2.05-7.73,7.18-12.94,13.83-16.76,4.52-2.6,9.18-5.09,14.23-6.43,8.11-2.15,12.14-8.09,15.03-15.23,2.73-6.75,3.83-13.99,6.17-20.87,3-8.82,6.05-17.55,12.1-24.97,4.26-5.22,9.35-9.02,15.48-11.54,3.62-1.49,7.29-1.37,10.84.32,7.13,3.4,12.99,8.66,19.27,13.3,1.55,1.15,1.72,2.77,1.63,4.5Z"></path><path class="cls-11" d="M136.62,131.52c.07,2.82-.3,5.59-1.49,8.16-1.83,3.95-5.75,4.86-9.21,2.23-6.08-4.64-8.27-15.67-4.44-22.36,1.64-2.86,4.33-3.87,7.63-2.83,3.29,1.04,5.1,3.5,6.31,6.58,1.05,2.66,1.18,5.42,1.19,8.21Z"></path><path class="cls-14" d="M108.53,242.88c.38,5.83-.51,10.89-3.44,15.41-2.21,3.41-5.51,4.31-8.57,2.49-.76-.45-1.81-1.13-1.94-1.85-1.15-6.24-4.44-12.39-1.58-18.89,1.43-3.25,3.86-5.91,7.19-7.3,4.18-1.75,7.88.59,8.31,5.11.18,1.84.03,3.7.03,5.03ZM96.51,247.53c.21,1.99.48,4.37.69,6.75.12,1.32.19,2.79,1.68,3.18,1.72.45,2.83-.72,3.4-2.17,1.99-5.05,3.02-10.3,2.38-15.72-.39-3.31-2.38-3.86-4.96-1.61-2.81,2.45-2.77,5.87-3.19,9.57Z"></path><path class="cls-14" d="M371.65,205.77c0-2.05.04-4.1-.01-6.15-.05-1.72.3-3.3,1.1-4.83,1.79-3.4,4.41-5.12,7.49-4.8,3.06.32,6.11,3.14,6.23,6.92.15,4.78.28,9.69-1.61,14.28-1.02,2.47-2.75,4.5-4.97,5.9-3.5,2.21-7.81.05-8.16-4.07-.2-2.4-.04-4.84-.04-7.26-.01,0-.02,0-.04,0ZM374.98,205.89c0,1.66-.03,3.33.01,4.99.03,1.11.1,2.32,1.46,2.66,1.23.31,2.2-.34,2.82-1.32,2.93-4.58,3.71-9.56,2.51-14.85-.37-1.62-1.33-2.69-3.06-2.64-1.8.05-2.39,1.38-2.81,2.92-.74,2.71-.95,5.46-.94,8.24Z"></path><path class="cls-13" d="M349.79,317.67c0-.85-.12-1.26.02-1.55.32-.66.65-1.4,1.19-1.86,11.59-9.88,17.6-24.22,27.99-35.54.55,10.44-18.27,35.46-29.2,38.94Z"></path><path class="cls-10" d="M233.46,65.78c2.91,0,4.44.45,5.89,1.44,4.4,3.03,4.75,6.49.74,9.95-3.93,3.38-8.73,4.76-13.75,5.45-2.12.29-4-.67-5.76-1.72-2.17-1.29-2.58-3.23-1.14-5.19,3.12-4.24,7.31-7.28,11.94-9.67.91-.47,2.17-.27,2.08-.26ZM222.29,77.43c1.95,1.63,3.82,1.97,5.86,1.16,3.25-1.29,6.89-1.77,9.42-4.54.77-.84.7-1.71-.07-2.44-1.39-1.3-2.84-2.26-4.99-1.57-4.17,1.34-7.69,3.42-10.22,7.38Z"></path><path class="cls-13" d="M171.29,84.6c-1.31,2.13-3.19,2.65-4.82,3.26-10.48,3.9-19.29,10.37-27.65,17.57-1.41,1.22-2.82,2.48-4.7,2.89-.46.1-1.21-.09-1.48-.42-.25-.3-.06-.99-.02-1.5.01-.17.15-.34.28-.48,9.96-11.33,21.51-19.99,37.01-21.99.29-.04.64.29,1.39.66Z"></path><path class="cls-14" d="M231.81,359.69c.16-2.4.88-5.07,3.72-6.53,2.71-1.39,5.04,0,7.34,1.28,4.81,2.68,6.46,10.64,4.32,14.26-1.82,3.07-4.17,4.03-7.42,2.69-4.82-1.98-8.07-6.55-7.96-11.69ZM244.02,364.83c-.06-2.84-1.91-5.64-4.39-6.59-1.87-.71-3.19-.33-3.87,1.79-.94,2.94.56,5.88,4.05,7.6,2.7,1.33,4.28.29,4.21-2.79Z"></path><path class="cls-10" d="M323.03,96.2c1.67,0,3.37-.2,5.01.04,3.39.51,6.51,4.36,6.28,7.5-.22,3.06-2.73,5.38-6.48,5.86-4.47.57-8.37-.86-12.07-3.31-1.98-1.32-2.54-3.01-2.45-5.21.1-2.46,1.71-3.53,3.65-4.43,1.97-.91,4.02-.47,6.05-.45ZM317.87,103.28c2.78,2.75,5.89,2.94,9.06,2.88,1.34-.03,2.71-.37,3.08-1.85.45-1.78-.86-2.71-2.19-3.44-3.73-2.06-6.67-.49-9.96,2.41Z"></path><path class="cls-14" d="M122.37,157.22c.6-2.03,2.03-2.26,3.18-2.63,7.41-2.39,12.23-7.53,15.38-14.41,2.01-4.39,3.84-8.86,5.75-13.3.51-1.18.89-2.51,2.75-2.38.16.45.56.97.48,1.39-1.63,8.25-3.88,16.27-9.41,22.91-4.62,5.56-10.4,8.74-18.14,8.41Z"></path><path class="cls-13" d="M150.32,337.47c-9.91-.43-27.81-21.21-26.66-31.23,4.58,5.86,8.68,11.2,12.87,16.46,4.08,5.13,9.54,9.05,13.78,14.76Z"></path><path class="cls-14" d="M166.58,322.86c.16,2.66-.29,5.23-1.44,7.62-1.28,2.65-4.3,4.28-6.85,3.92-2.52-.36-4.16-2.19-4.7-5.53-.64-3.97.39-7.79,1.47-11.54.33-1.16,1.38-2.22,2.31-3.09,3.38-3.13,6.47-2.35,8.16,2.04.82,2.11,1.14,4.32,1.04,6.59ZM163.14,323.19c-.01-2.15-.3-3.81-1.12-5.29-.84-1.52-2.12-1.56-3.06-.17-2.3,3.38-3.13,7.15-2.04,11.13.62,2.26,2.78,2.58,4.19.71,1.5-1.99,1.99-4.36,2.03-6.37Z"></path><path class="cls-13" d="M299.12,356.38c-3.92,11.41-24.01,17.37-35.7,3.19,2.27-.97,4.02.16,5.6,1.2,6.26,4.1,12.56,3.72,19.11.71,3.64-1.68,7.46-2.97,10.99-5.1Z"></path><path class="cls-13" d="M106.82,216.67c4.69,8.25,10.82,15.55,15.29,23.85,1.85,3.43,2.42,7.42,1.66,11.42-.41,2.18-.76,4.38-1.17,6.83-1.76-1.75-1.59-3.84-1.56-5.78.1-5.41-1.51-10.19-4.5-14.7-2.67-4.02-4.98-8.28-7.36-12.49-1.55-2.75-2.66-5.67-2.36-9.13Z"></path><path class="cls-10" d="M338.18,328.28c-.02,2.94-1.27,4.7-3.92,5.17-4.3.76-7.46-1.15-10.12-4.38-2.46-2.98-3.05-6.11-1.67-9.75.7-1.84,1.86-2.62,3.72-2.68,5.72-.17,12.02,5.93,11.99,11.64ZM332.39,330.68c1.75-.15,2.3-1.36,2.15-3.03-.22-2.43-4.5-6.18-7-6.21-1.18-.01-1.53.73-1.74,1.7-.63,2.92,3.25,7.46,6.6,7.54Z"></path><path class="cls-13" d="M256.87,71.62c8.39-5.16,27.3-1.65,35.39,5.11-6.67.41-12.22-1.04-17.75-2.73-5.41-1.66-11.24-1.07-17.63-2.37Z"></path><path class="cls-14" d="M125.39,291.93c.07,4.72-2.27,7.84-5.95,7.94-4.11.11-7.58-3.78-7.68-8.61-.1-4.71,1.97-6.85,6.7-6.94,4.2-.08,6.86,2.83,6.92,7.61ZM121.53,292.7c-.08-1.81-2.22-3.84-4.06-3.9-1.76-.05-3.24,1.75-3.06,3.74.18,1.93,2.21,3.69,4.22,3.55,2.11-.15,2.48-1.82,2.89-3.4Z"></path><path class="cls-14" d="M93.37,199.23c-2.14-.05-4.74-.7-5.88-3.43-.98-2.36-.71-4.75,1.72-6.39.28-.19.39-.64.63-.91,2.46-2.69,6.46-3.75,9.04-2.43,1.96,1,2.97,3.65,2.38,6.23-1.14,5.01-3.14,6.9-7.9,6.93ZM97.76,191.47c-.1-.91-.59-1.64-1.67-1.68-1.73-.07-4.77,2.88-4.82,4.73-.05,1.66,1.1,2.22,2.53,2.21,2.17-.01,4.1-2.56,3.96-5.26Z"></path><path class="cls-14" d="M375.02,163.15c3.05-.03,5.92,2.13,6.58,4.94.88,3.79-.74,7.89-3.58,9.16-.9.4-1.72.38-2.66.09-4.14-1.29-7.01-6.76-5.52-10.77.88-2.37,2.71-3.4,5.18-3.42ZM376.43,174.27c1.65-.52,1.92-1.96,1.9-3.45-.03-1.97-1.88-3.86-3.43-3.51-1.76.39-2.12,1.88-2.09,3.39.03,1.69,2.14,3.73,3.62,3.58Z"></path><path class="cls-14" d="M384.03,244.15c-.05,4.67-1.76,6.74-5.56,6.73-4.01,0-7.09-2.47-7.04-5.64.06-3.77,3.75-8.2,6.85-8.22,4.03-.03,5.81,2.17,5.75,7.13ZM380.52,244.43c-.17-1.47-.46-3.24-2.35-3.03-1.9.21-2.41,2.1-2.64,3.76-.22,1.57.79,2.54,2.21,2.59,2.09.07,2.8-1.38,2.79-3.32Z"></path><path class="cls-14" d="M181.45,343.52c3.93.1,6.57,2.92,6.38,6.82-.19,3.81-2.05,5.77-5.36,5.65-3.74-.13-6.9-3.51-6.88-7.36.02-3.34,2.15-5.2,5.86-5.11ZM182.14,353.16c1.4-.11,2.07-.96,2.13-2.19.09-1.65-1.97-3.74-3.58-3.66-1.27.06-2.28.91-2.17,2.1.19,2.08,1.85,3.06,3.62,3.75Z"></path><path class="cls-14" d="M102.17,147.23c-1.84,6.42-3.47,11.59-6.23,16.79-1.82-6.61.23-12.56,6.23-16.79Z"></path><path class="cls-13" d="M86.14,213.5c.9,5.64,1.28,11.31,1.74,16.98-3.31-5.37-3.09-11.13-1.74-16.98Z"></path><path class="cls-14" d="M368.48,139.94c4.13,2.79,4.4,7,4.41,11.32-2.42-1.19-2.08-3.57-2.69-5.5-.61-1.93-1.15-3.87-1.72-5.81Z"></path><path class="cls-14" d="M111.77,131.01c-.63,3.6-2.11,5.55-4.15,7.1-.56.43-1.47.45-1.93-.29-.24-.39-.34-1.13-.13-1.49,1.3-2.17,2.78-4.19,6.22-5.32Z"></path><path class="cls-14" d="M156.94,103.26c-.77,3.76-2.37,6.93-5.7,9.64-.39-5.05,2.85-7.27,5.7-9.64Z"></path><path class="cls-14" d="M298.13,78.41c1.36-.08,3.95,2.48,3.9,3.89-.02.6-.37.98-1.01.98-1.74,0-4-2.22-3.92-3.84.03-.6.39-.97,1.03-1.03Z"></path><path class="cls-14" d="M382.78,264.68c-1.45-2.43-.55-4.51.82-7.4,2,3.28.35,5.31-.82,7.4Z"></path><path class="cls-14" d="M121.25,262.12c.27,2.98,2.34,5.74,1,9.78-2.68-3.53-.67-6.8-1-9.78Z"></path><path class="cls-3" d="M309.38,348.99c-.31.27-.65.72-1.1.9-.52.21-1.06-.07-1.1-.69-.04-.62.42-.96,1.01-1.02.51-.05,1.03,0,1.19.81Z"></path><path class="cls-3" d="M121.58,346.66c-.64,2.51-1.59,4.68-4.94,5.41.79-3.08,2.18-4.85,4.94-5.41Z"></path><path class="cls-4" d="M109.83,329.91c0-.62-.01-1.24-.01-1.85,1.53-.06,2.47.75,3.07,2.06-1.03.03-2.07.32-3.06-.21Z"></path><path class="cls-16" d="M86.01,313.71c-8.03.75-16.05.8-23.93-1.4,8.08-2.09,16.03-1.03,23.93,1.4Z"></path><path class="cls-3" d="M102.28,314.89c-1.51,1.43-2.81.79-4.38.37,1.57-1.33,2.87-.95,4.38-.37Z"></path><path class="cls-14" d="M315.77,145.17c5.8.39,9.35,3.77,12.12,7.67,4.28,6.05,8.55,12.2,10.38,19.62,2.03,8.21,2.25,16.54,1.9,24.92-.02.52-.33,1.06-.63,1.51-.18.26-.61.36-1.38.78-1.52-20.64-7.16-39.5-22.38-54.5Z"></path><path class="cls-14" d="M266.38,311.65c18.71-4.5,34.52-14.07,48.8-28.26-1.58,6.98-11.79,17.49-20.67,22.05-8.77,4.51-17.63,8.78-28.13,6.21Z"></path><path class="cls-14" d="M329.15,265.48c.43-4.52,1.58-10.06,6.37-14.1,2.25-1.9,5.82-2.64,7.67-1.32,2.24,1.59,2.35,3.73,1.87,6.4-.59,3.25-.27,6.63-1.5,9.83-1.03,2.69-2.65,4.9-4.83,6.68-1.72,1.41-3.56,2.76-6.04,1.8-2.63-1.02-3.47-3.15-3.53-5.74-.02-.74,0-1.48,0-3.54ZM332.55,265.53c0,.37-.05.75,0,1.11.26,1.51-.58,3.7,1.75,4.07,1.92.3,2.8-1.46,3.73-2.82,2.16-3.18,2.43-6.91,2.99-10.54.16-1.06.44-2.3-.69-3.03-1.36-.88-2.55-.03-3.5.8-3.14,2.74-4.12,6.43-4.3,10.42Z"></path><path class="cls-14" d="M334.85,286.87c1.48-3.57,4.52-5.83,7.13-8.18,4.41-3.97,5.75-8.98,6.09-14.44.36-5.71-.01-11.43-.85-17.1-.49-3.32-.23-4.81,1.57-8.9,1.41,8.4,4.49,15.55,2.86,23.46-.41,1.98-.04,4.1-.28,6.13-1.13,9.51-7.93,14.66-15.18,19.41-.19.12-.65-.17-1.34-.37Z"></path><path class="cls-14" d="M288.7,332.14c-.15,4.63-3.53,7.56-8.07,6.91-3.74-.53-6.78-2.79-10.1-4.33-1.19-.55-1.7-1.87-1.77-3.27-.22-4.21,4.62-8.75,8.85-8.21,1.82.23,3.68-.03,5.47.73,3.45,1.48,5.74,4.7,5.63,8.17ZM281.01,335.5c1.43.1,2.4-.35,2.89-1.5.53-1.26.46-2.53-.3-3.69-1.38-2.11-5.55-3.31-7.95-2.38-1.29.5-2.4,1.27-2.47,2.68-.06,1.17,1,1.93,1.89,2.55,1.84,1.29,3.94,1.98,5.94,2.33Z"></path><path class="cls-17" d="M267.39,108.98c-2.12-4.1,2.35-5.2,4.32-7.42,1.95-2.2,4.6-1.9,7.18-.8,3.22,1.38,4.76,4.21,4.02,7.61-.81,3.71-4.11,6.49-7.43,6.19-.92-.08-1.87-.23-2.71-.56-1.65-.65-3.21,1.8-4.65.27-1.23-1.31-.34-3.23-.73-5.28ZM279.33,107.45c-.11-1.47-1.71-2.53-3.71-2.45-2.15.08-4.49,2.46-4.01,4.29.51,1.96,2.26,2.23,3.95,2.14,2.06-.11,3.91-2.16,3.77-3.98Z"></path><path class="cls-14" d="M157.17,191.55c-1.68-.45-1.67-1.84-1.63-3.12.47-13.35,4.54-25.42,12.89-35.95.34-.43.77-.82,1.25-1.08.65-.35,1.41-.61,2.02.08.4.45.34,1.01,0,1.5-.42.61-.87,1.2-1.28,1.82-7.19,10.88-11.15,22.91-12.75,35.78-.04.34-.32.64-.5.97Z"></path><path class="cls-10" d="M166.78,267.18c0,6.1-6.65,11.38-12.63,10.02-3.78-.86-5.28-3.58-3.62-7.08,1.11-2.33,2.57-4.51,4.05-6.63,1.5-2.14,3.67-2.95,6.32-2.7,4.33.42,5.87,2.02,5.87,6.38ZM163.93,267.27c.03-2.19-2.51-3.81-4.94-2.81-3.05,1.26-5,3.75-6.02,6.89-.34,1.04.2,1.78,1.2,2.15,3.36,1.23,9.72-2.84,9.76-6.23Z"></path><path class="cls-10" d="M129.67,197.87c-.11-5.12,3.11-7.31,7.41-5.67,6.1,2.32,8.67,5.5,8.41,10.39-.27,4.9-3.28,6.74-7.56,4.53-3.22-1.67-5.35-4.59-7.71-7.2-.54-.59-.48-1.74-.55-2.04ZM142.09,202.68c-.09-3.35-4.65-7.21-7.74-6.42-1.39.36-2.51,1.39-1.29,2.84,1.78,2.1,3.47,4.41,6.13,5.53,1.81.76,2.96-.07,2.91-1.95Z"></path><path class="cls-14" d="M349.61,167.06c-1.97-1.24-1.48-3.27-1.42-5.02.18-5.39-.39-10.73-1.21-16.02-.75-4.84-2.68-9.18-7.26-12.03,3.47-.73,3.48-.74,5.28.93,3.56,3.3,5.31,7.6,6.03,12.23.89,5.69.5,11.46.14,17.19-.06,1.02-.34,2.2-1.57,2.73Z"></path><path class="cls-14" d="M131.43,179.33c.18,1.96-1.17,2.2-1.99,2.79-6.09,4.34-8.32,9.89-6.68,17.39,1.02,4.67,2.55,9.11,4.41,13.38-.84.53-1.44.51-1.77.04-4.9-6.96-7.23-14.68-5.57-23.08,1.2-6.05,5.77-9,11.61-10.52Z"></path><path class="cls-14" d="M333.66,134.52c0,3.92-1.89,6.12-5.39,6.27-3.72.16-6.03-2.28-5.95-6.28.08-3.74,2.72-6.96,5.72-6.96,3,0,5.61,3.24,5.62,6.97ZM325.79,135.14c-.02,1.28.52,2.16,1.86,2.32,1.79.2,3-.66,3-2.43,0-1.39-1-2.52-2.49-2.51-1.53.01-2.17,1.2-2.37,2.62Z"></path><path class="cls-14" d="M211.47,331.3c.02-4.47,1.12-5.78,4.74-5.71,3.62.08,5.42,2.1,5.44,6.12.03,3.9-1.75,6.31-4.61,6.26-3.5-.06-5.6-2.57-5.58-6.67ZM218.49,332.22c.18-1.16-.61-2.18-1.99-2.54-1.69-.43-2.4.8-2.54,2.18-.16,1.54.93,2.42,2.29,2.71,1.44.31,1.91-.79,2.25-2.36Z"></path><path class="cls-14" d="M175.52,115.06c-2.28,8.07-2.83,16.54-6.43,25.16-2.27-7.2,1.39-21.32,6.43-25.16Z"></path><path class="cls-14" d="M308.32,125.06c-2.58,1.54-4.75.05-6.91-.87-3.85-1.63-6.82-4.32-8.71-8.1-.42-.83-.84-1.83-.05-2.55.91-.82,1.69.04,2.32.65,1.33,1.28,2.59,2.62,3.88,3.94,2.71,2.77,5.41,5.56,9.47,6.93Z"></path><path class="cls-14" d="M239.31,317.4c1.8-2.5,3.5-2.76,5.35-2.81,3.31-.1,6.64.15,9.86-1.04.78-.29,1.95-.34,2.31.8.35,1.13-.59,1.68-1.42,2.03-4.93,2.12-10.02,1.76-16.1,1.02Z"></path><path class="cls-14" d="M201.15,102.69c7.2,2.74,10.4,9.64,17.5,9.99-5.91,1.99-12.09-1.46-17.5-9.99Z"></path><path class="cls-14" d="M339.55,215.86c.59,6.05,1.7,12.18-2.92,17.4-.64-6.06.86-11.77,2.92-17.4Z"></path><path class="cls-14" d="M288.03,132.65c-4.54-1.9-9.04-3.75-13.5-5.67-.65-.28-1.24-.96-.63-1.73.3-.38,1.07-.82,1.4-.69,4.56,1.81,9.62,2.7,13.02,6.73.13.16-.13.64-.29,1.37Z"></path><path class="cls-14" d="M152.37,222.71c1.88,1.21,1.89,1.95,1.98,2.67.62,5.19,1.25,10.37,1.23,15.64-2.6-5.59-3.59-11.41-3.21-18.31Z"></path><path class="cls-5" d="M188.3,113.56c-1.78-.26-3.14-1.14-3.21-2.67-.09-1.84,1.36-2.94,3.15-3.09,1.41-.11,2.51.71,2.64,2.2.16,1.92-1.06,2.94-2.58,3.56Z"></path><path class="cls-14" d="M188.94,132.63c.03,1.79-.8,2.53-2.4,2.46-.77-.03-1.65-.21-1.47-1.14.27-1.35,1.3-2.3,2.62-2.59.84-.19,1.2.62,1.25,1.27Z"></path><path class="cls-14" d="M346.55,222.69c.45,2.3.73,4.6-.05,7.54-2.7-3.06-.91-5.29.05-7.54Z"></path><path class="cls-5" d="M96.51,247.53c.42-3.69.38-7.11,3.19-9.57,2.58-2.25,4.57-1.71,4.96,1.61.64,5.42-.39,10.67-2.38,15.72-.57,1.45-1.68,2.63-3.4,2.17-1.48-.39-1.56-1.86-1.68-3.18-.21-2.38-.49-4.76-.69-6.75Z"></path><path class="cls-5" d="M374.98,205.89c-.01-2.78.2-5.53.94-8.24.42-1.54,1.01-2.87,2.81-2.92,1.74-.05,2.69,1.02,3.06,2.64,1.2,5.29.42,10.27-2.51,14.85-.63.98-1.59,1.62-2.82,1.32-1.36-.34-1.43-1.54-1.46-2.66-.04-1.66-.01-3.33-.01-4.99Z"></path><path class="cls-2" d="M222.29,77.43c2.53-3.96,6.06-6.05,10.22-7.38,2.15-.69,3.6.27,4.99,1.57.77.73.84,1.6.07,2.44-2.54,2.77-6.18,3.25-9.42,4.54-2.04.81-3.91.47-5.86-1.16Z"></path><path class="cls-5" d="M244.02,364.83c.06,3.08-1.51,4.12-4.21,2.79-3.49-1.72-4.99-4.65-4.05-7.6.68-2.12,2-2.5,3.87-1.79,2.49.95,4.34,3.75,4.39,6.59Z"></path><path class="cls-2" d="M317.87,103.28c3.28-2.9,6.23-4.48,9.96-2.41,1.33.73,2.64,1.66,2.19,3.44-.38,1.48-1.75,1.82-3.08,1.85-3.17.06-6.28-.12-9.06-2.88Z"></path><path class="cls-2" d="M163.14,323.19c-.04,2.01-.53,4.38-2.03,6.37-1.41,1.87-3.57,1.55-4.19-.71-1.09-3.98-.26-7.75,2.04-11.13.94-1.38,2.22-1.35,3.06.17.82,1.48,1.11,3.14,1.12,5.29Z"></path><path class="cls-2" d="M332.39,330.68c-3.35-.08-7.23-4.62-6.6-7.54.21-.97.56-1.71,1.74-1.7,2.5.03,6.78,3.78,7,6.21.15,1.67-.39,2.89-2.15,3.03Z"></path><path class="cls-2" d="M121.53,292.7c-.41,1.57-.78,3.25-2.89,3.4-2.01.14-4.04-1.62-4.22-3.55-.18-1.99,1.29-3.8,3.06-3.74,1.84.05,3.98,2.09,4.06,3.9Z"></path><path class="cls-2" d="M97.76,191.47c.14,2.7-1.79,5.25-3.96,5.26-1.44,0-2.58-.56-2.53-2.21.05-1.85,3.09-4.8,4.82-4.73,1.08.05,1.58.77,1.67,1.68Z"></path><path class="cls-5" d="M376.43,174.27c-1.48.15-3.59-1.89-3.62-3.58-.03-1.51.33-3,2.09-3.39,1.55-.34,3.4,1.55,3.43,3.51.03,1.49-.24,2.93-1.9,3.45Z"></path><path class="cls-2" d="M380.52,244.43c.01,1.94-.7,3.39-2.79,3.32-1.42-.04-2.43-1.02-2.21-2.59.23-1.67.74-3.55,2.64-3.76,1.89-.21,2.18,1.56,2.35,3.03Z"></path><path class="cls-15" d="M182.14,353.16c-1.77-.69-3.43-1.66-3.62-3.75-.11-1.2.9-2.04,2.17-2.1,1.62-.08,3.67,2.01,3.58,3.66-.07,1.23-.73,2.08-2.13,2.19Z"></path><path class="cls-8" d="M173.43,245.26c-2.11-.4-2.35-2.23-2.73-3.81-1.93-7.99-3.38-16.04-3.04-24.32.06-1.48-.16-3.05,1.31-4.05,5.69-3.87,10.96-8.4,17.42-11.04,3.16-1.29,3.38-1.19,3.98,2.17.49,2.75.63,5.57,1.25,8.28.96,4.17,3.68,5.04,6.82,2.19,4.42-4.01,8.19-8.66,12.1-13.15,1.82-2.08,1.4-4.44,1.04-6.88-.39-2.62.65-3.86,3.08-4.06,1.36-.11,2.19.52,1.91,1.94-.28,1.46-.8,2.87-1.16,4.31-2.24,8.81-2.32,17.69-.69,26.59.82,4.45,4.88,5.86,8.08,2.52,3.46-3.62,6.57-7.57,10.36-10.91,1.75-1.55,1.45-3.71.57-5.7-1.2-2.73-2.55-5.39-3.65-8.16-.71-1.78-1.95-3.55-1.33-5.47,1.25-.5,1.91-.09,2.43.42,6.26,6.11,12.47,12.23,16.09,20.45,2.95,6.69,3.41,12.89-.55,19.63-6.63,11.3-14.98,21.22-22.93,31.74-2.87-2.48-3.03-6.65-6.72-7.64-.29-.25-.57-.5-.86-.75.61-2.27,2.51-3.66,3.88-5.35,3.88-4.78,7.56-9.65,10-15.35.33-.44.68-1.01.18-1.4-.57-.45-.86.16-1.1.61-1.24.21-1.76,1.25-2.48,2.08-5.24,6.02-10.49,12.02-15.74,18.03-.25-.32-.5-.64-.76-.96-.11-3.01-2.58-4-4.68-4.85-10.29-4.16-20.82-7.35-32.1-7.14ZM235.45,227.29c2.26-1,2.77-2.37,2.54-4.57-2.21.97-2.81,2.29-2.54,4.57Z"></path><path class="cls-18" d="M216.22,259.57c.29.25.57.5.86.75-.28,2.88,1.7,4.87,2.95,7.08,1.05,1.85,1.35,3.22-.24,4.92-4.07,4.35-8.02,8.82-11.99,13.26-1,1.12-1.82.61-2.92.1-5.3-2.47-9.7-6.12-13.56-10.38-7.04-7.76-13.38-16.01-17.4-25.83-.44-1.08-.71-2.1-.47-3.24,12.38,3.25,24.72,6.6,36.75,11.02.25.32.5.64.75.95-2.5,3-5.28,5.82-7.42,9.06-2.1,3.17-6.16,5.24-6.38,10.62,7.77-5.48,13.05-12.28,19.07-18.31Z"></path><path class="cls-1" d="M236.6,250.83c-3.53,6.15-8.43,11.24-12.74,17.2-2.79-2.2-2.99-6.04-6.66-7.39.16,2.81,1.71,4.51,2.82,6.3,1.52,2.47,1.18,4.48-.71,6.48-3.71,3.93-7.46,7.82-11.04,11.87-1.36,1.54-2.33,1.02-3.82.3-4.58-2.19-8.49-5.25-12-8.82-6.7-6.82-12.37-14.41-16.79-22.91-1.02-1.96-2.22-3.9-2.2-6.83,6.42-.17,12.26,2.19,18.19,3.84,5.82,1.62,11.54,3.61,18.09,5.69-1.64-3.29-3.95-4.08-6.16-4.92-8.93-3.39-18.07-5.85-27.66-6.42-4.38-.26-4.59-.36-5.56-4.68-1.67-7.46-2.9-14.97-2.78-22.69.05-2.98,1.01-4.81,3.48-6.38,4.56-2.89,8.69-6.43,13.62-8.74,4.91-2.3,5.27-2.25,6.03,3.5.64,4.88,1.26,9.79,5.27,13.06,2.6,2.13,4.83,4.68,7.6,6.56,3.28,2.23,5.82,5.23,8.67,7.9,2.12,1.98,3.28,4.49,3.98,7.25.58,2.25,1.9,3.58,4.37,3.44.45.24.9.49,1.34.73-5.64,6.9-11.35,13.75-16.89,20.72-2.7,3.4-6.06,6.35-8.21,11.16,2.75-.81,4.11-2.24,5.54-3.59,5.93-5.65,11.33-11.8,16.67-18.01,3.23-3.76,5.67-8.14,9.31-11.56.2,7,.86,7.68,6.41,6.65.61.1,1.22.2,1.83.29Z"></path><path class="cls-14" d="M210.2,257.24c-12.02-4.42-24.37-7.77-36.75-11.02-.02-.32-.03-.65-.03-.97,11.27-.21,21.81,2.97,32.1,7.14,2.1.85,4.57,1.84,4.68,4.85Z"></path><path class="cls-16" d="M175.76,164.52c-.21.16-.43.32-.64.47.15-.22.3-.44.45-.67,0,0,.2.19.2.19Z"></path><path class="cls-11" d="M332.54,265.53c.17-3.99,1.16-7.68,4.3-10.42.94-.82,2.14-1.67,3.5-.8,1.12.73.85,1.96.69,3.03-.56,3.63-.83,7.36-2.99,10.54-.93,1.37-1.81,3.13-3.73,2.82-2.33-.37-1.49-2.56-1.75-4.07-.06-.36,0-.74-.01-1.11Z"></path><path class="cls-2" d="M281.01,335.5c-2-.35-4.1-1.04-5.94-2.33-.9-.63-1.95-1.39-1.89-2.55.07-1.41,1.18-2.18,2.47-2.68,2.4-.94,6.57.27,7.95,2.38.76,1.16.84,2.43.3,3.69-.49,1.15-1.45,1.6-2.89,1.5Z"></path><path class="cls-2" d="M279.33,107.45c.13,1.82-1.71,3.87-3.77,3.98-1.69.09-3.44-.18-3.95-2.14-.48-1.84,1.86-4.21,4.01-4.29,2-.08,3.6.98,3.71,2.45Z"></path><path class="cls-2" d="M163.93,267.27c-.05,3.39-6.41,7.46-9.76,6.23-1-.36-1.54-1.11-1.2-2.15,1.02-3.14,2.97-5.62,6.02-6.89,2.43-1.01,4.98.62,4.94,2.81Z"></path><path class="cls-2" d="M142.09,202.68c.05,1.88-1.09,2.72-2.91,1.95-2.66-1.12-4.35-3.42-6.13-5.53-1.22-1.45-.1-2.48,1.29-2.84,3.09-.79,7.65,3.07,7.74,6.42Z"></path><path class="cls-15" d="M325.79,135.14c.2-1.42.83-2.61,2.37-2.62,1.49-.01,2.49,1.12,2.49,2.51,0,1.77-1.21,2.64-3,2.43-1.33-.15-1.88-1.03-1.86-2.32Z"></path><path class="cls-15" d="M218.49,332.22c-.34,1.57-.81,2.67-2.25,2.36-1.36-.29-2.45-1.17-2.29-2.71.15-1.38.85-2.62,2.54-2.18,1.39.35,2.17,1.37,1.99,2.54Z"></path><path class="cls-14" d="M216.22,259.57c-6.02,6.02-11.3,12.82-19.07,18.31.22-5.38,4.28-7.45,6.38-10.62,2.14-3.24,4.92-6.06,7.42-9.06,5.25-6,10.51-12.01,15.75-18.03.72-.83,1.25-1.88,2.48-2.08.31.26.62.53.92.79-2.44,5.7-6.12,10.57-10.01,15.35-1.38,1.69-3.28,3.07-3.88,5.35Z"></path><path class="cls-4" d="M235.45,227.29c-.27-2.29.34-3.61,2.54-4.57.23,2.2-.28,3.57-2.54,4.57Z"></path><path class="cls-14" d="M229.19,238.09c.24-.45.53-1.06,1.1-.61.49.39.14.96-.18,1.4-.3-.26-.61-.53-.92-.79Z"></path><g class="cls-19"><path class="cls-12" d="M234.16,59.19c34.82-1.28,66.39,9.52,96.18,27.34,22.22,13.29,37.7,32.4,50.06,54.53,2.9,5.2,6.06,10.38,8.08,15.94,4.76,13.08,9.45,26.17,10.37,40.36.64,9.85,1,19.71,1.68,29.56.66,9.56-1.8,18.85-3.55,28.17-.79,4.21-1.68,8.39-2.57,12.58-3.38,15.88-12.15,29.1-21.02,42.24-7.84,11.61-16.22,22.76-26.66,32.27-4.29,3.91-8.79,7.52-13.51,10.83-11.13,7.82-22.3,15.62-35.1,20.58-6.65,2.58-13.77,3.16-20.7,4.53-12.33,2.44-24.86,2.86-37.33,2.16-10.96-.62-21.86-2.38-32.48-5.31-26.17-7.21-49.95-19.23-71.28-36-11.47-9.01-19.51-20.98-27.36-33.02-11.35-17.4-20.65-35.84-27.26-55.58-1.97-5.89-2.23-12.08-3.17-18.14-3-19.23-2.13-38.46,3.16-57.05,7.46-26.2,18.1-51.03,38.39-70.31,6.73-6.4,14.02-12.11,22.22-16.76,17.1-9.7,34.89-17.64,53.67-23.42,12.38-3.81,24.85-6.7,38.19-5.48ZM369.44,139.79l-.31-.21.38.14c-.36,4.2,1.28,7.88,3.06,11.52.28-4.17-.11-8.17-3.13-11.45ZM178.13,353.53l-.11-.11c1.41,2.11,3.47,2.54,5.85,2.46,3.32-.11,2.63-3.64,4.42-5.36,7.42,4.42,15.15,7.74,23.6,8.52,5.03.47,9.94,1.23,14.83,2.42,2.9.71,5.84.73,6.86,4.54.37,1.39,2.14,2.54,3.48,3.52,5.58,4.09,9.29,2.73,10.57-4.1.46-2.45,1.5-3.04,3.69-2.94,4.1.19,8.2.34,12.31.33,2.13,0,3.89.5,5.75,1.63,9.83,5.95,21.11,3.29,28.98-4.79.63-.65.99-1.59.07-2.69-7.85,3.34-15.27,8.98-24.77,5.69,4.86-1.61,9.73-3.09,14.38-5.17,6.81-3.04,13.74-5.77,20.86-8.03,13.17-4.18,25.34-9.88,33.94-21.43,4.21-5.67,8.64-11.25,14.98-14.84.79-.45,1.37-1.25,2.05-1.89,8.54-8.15,13.43-18.71,19.03-28.8.44-.79.79-1.81.69-2.67-.28-2.38.61-4.37,1.63-6.38,7.24-14.29,9.2-29.82,10.57-45.45.89-10.14-.78-20.09-2.74-29.98-1.59-8.03-2.81-16.19-6.95-23.48-.68-1.19-.46-2.53-.5-3.83-.16-4.93-1.7-7.1-6.34-7.38-2.69-.16-3.4-1.49-4.25-3.46-1.78-4.1-3.28-8.42-5.69-12.14-8.51-13.15-16.94-26.37-26.78-38.61-2.09-2.6-4.53-4.93-5.3-8.42-.37-1.69-1.66-3.07-3.28-3.61-3.14-1.05-5.29-3.39-7.74-5.36-4.8-3.88-9.78-7.47-15.31-10.26-6.4-3.23-13.19-4.18-20.09-2.58-4.86,1.13-9.47,1.82-14.19-.28-.79-.35-1.87-.4-2.74-.21-8.47,1.89-16.55-1.69-24.88-1.77-1.48-.01-3.46-.49-2.43-3.15.89-2.29-.65-3.88-2.24-5.28-3.9-3.43-8.92-3.52-13.08.44-3.37,3.21-6.96,4.25-11.55,4.27-9.51.05-18.98,1.22-28.19,3.76-11.87,3.28-23.11,8.34-34.48,12.95-7.71,3.13-13.35,9.39-19.15,15.19-.8.8-1.56,1.83-1.35,2.95.21,1.14,2.18.08,2.68,2.35-25.72,15.73-43.49,37.87-50.49,67.96,2.05.8,2.78-1.56,4.76-.8-1.1,5.44-2.01,10.89-2.67,16.39-.99,8.16-.04,16.41-1.57,24.54-.7,3.71.34,7.49,1.78,10.9,2.41,5.7,3.4,11.72,4.98,17.62,1.41,5.29.34,11.81,6.32,15.31.54.32.79,1.25,1.01,1.95,1.55,4.86,4.38,9.03,6.89,13.4,2.77,4.81,5.72,9.53,5.9,15.45.09,3.16,2.1,5.54,5.3,6.55,6.88,2.18,12.76,6.08,17.85,11.03,6.93,6.75,13.82,13.58,19.38,21.57.54.77,1.2,1.34,2.13,1.7,5.67,2.13,10.57,6.18,17.26,5.78,3.2-.19,4.47,2.91,2.8,5.66-1.99,3.26-1.46,5.97,1.29,8.43ZM150.85,337.32c-10.57-9.28-18.65-19.62-26.64-30.03-.07-.09-.37-.07-.54-.03-.73.16.28.6-.39.27.68,10.27,17.77,29.58,27.57,29.79ZM257.85,70.8c5.36,2.38,11.3,1.29,16.79,3.05,5.43,1.75,10.97,3.01,16.73,2.17-10.59-5.81-21.57-8.86-33.52-5.22ZM84.3,179.23c-.06.13-.2.28-.17.38.05.15.29.4.33.38.44-.22.51-.5.19-.74-.08-.06-.24,0-.36-.01Z"></path><path class="cls-9" d="M126.4,364.87c-3.54,3.23-7.61,5.69-11.37,8.28-2.2-1.23-2.22-3.38-3.36-4.84-3.01-3.87-7.07-3.62-9.29.7-.34.66-.57,1.38-.81,2.08-.88,2.61-1.17,5.45-5.48,4.23-2.2-.62-4.01,1.68-5,3.8-1.58,3.38-3.21,6.74-4.48,10.24-1.02,2.8-2.6,4.84-5.26,6.15-5.46,2.68-10.53,6.17-16.61,7.69,1.98-1.14,3.89-2.45,5.96-3.38,3.87-1.75,6.31-5.13,9.3-7.88,1.2-1.1,1.41-2.61.61-4.11-.69-1.28-1.89-1.89-3.27-1.71-2.21.29-4.49.51-6.57,1.24-12.15,4.25-24.3,8.54-35.15,15.71-.93.62-1.87,1.23-2.8,1.86-1.16.78-1.95,1.8-1.61,3.27.3,1.3,1.44,1.55,2.56,1.8,1.04.23,2.05.57,2.98.83,0,2-1.24,1.91-2.27,2.07-4.29.64-8.62.46-12.8-.38-12.11-2.45-19.33-13.88-16.68-26.03,1.97-9.05,5.7-17.33,11.16-24.81,9.03-12.36,19.08-23.86,29.46-35.09,1.12-1.21,2.19-2.69,4.53-1.56.05,1.72-1.24,2.88-2.21,4.06-5.91,7.21-11.78,14.47-17.91,21.5-4.43,5.09-8.63,10.35-11.96,16.18-4.37,7.66-4.32,16.02-2.56,24.43.46,2.18,1.99,3.6,4.05,4.28,5.19,1.72,10.39,2.79,15.86.93,4.97-1.69,9.65-3.81,14.2-6.48,14.3-8.4,27.77-18.12,42.15-26.42,6.92-3.99,13.26-9,19.78-13.66,2.76-1.97,4.81-4.46,5.93-7.87,1.42-4.34,1.54-4.64-2.45-7.12-1.74-1.08-3.49-2.17-5.29-3.15-1.96-1.06-.76-4.41-4.08-4.83-2.47-.31-3.24-3.4-4.56-5.38-3.89-5.82-9.38-10.09-14.34-14.85-1.73-1.67-3.41-3.41-5.2-5.03-3.16-2.85-4.65-2.95-7.63-.08-6.44,6.22-12.79,12.54-19.17,18.82-1.15,1.14-2.61,3.46-3.89,2.26-2.01-1.88.82-3.12,1.91-4.32,10.54-11.58,20.44-23.7,30.41-35.75.71-.86,1.46-1.69,2.27-2.45.85-.79,1.71-.6,2.3.35.59.94,1.1,1.95,1.59,2.95,6.59,13.21,13.92,26.02,22.74,37.84,11.78,15.77,9.99,16.81,31.06,30.05.76.48,1.42,1.12,2.63,2.09-5.96,4.08-11.52,8.03-17.82,10.82-.25-.27-.5-.54-.75-.81,2.74-1.71,4.58-4.31,6.63-6.71,1.3-1.52,2.17-3.19.72-5.01-1.2-1.52-2.88-1.33-4.61-.89-5.53,1.4-9.62,4.49-12.3,9.61-.82,1.58-1.8,2.9-.5,4.53,1.25,1.56,2.91,1.33,4.61.88,1.53-.41,2.84-1.98,4.66-.91l-.04-.04ZM119.03,348.9c-.41.3-.92.54-1.23.94-.34.45-.23,1.19.27,1.32.34.09.96-.4,1.26-.79.34-.44.15-1-.31-1.47ZM120.35,348.29c.29-.16.62-.28.84-.5.06-.06-.23-.45-.35-.68-.28.15-.62.25-.8.48-.08.1.2.46.31.71Z"></path><path class="cls-9" d="M283.81,400.64c.73,2.4.16,4.41,0,6.43-1.16,13.74-1.81,27.49-.83,41.28.25,3.51,1.01,7.91,3.95,8.71,5.46,1.48,4.85,5.17,4.92,8.82.06,3.07,1.45,4.29,4.16,5.65,6.2,3.1,12.84,4.89,19.29,7.18,9.71,3.45,11.32,11.65,10.48,19.81-.27,2.59-2.33,4.13-5.07,4.24-2.85.11-5.56-.69-8.14-1.75-10.49-4.31-21.31-7.8-31.62-12.57-3.4-1.57-5.07-3.63-5.69-7.42-1.05-6.38-.31-12.69.46-18.87,2.2-17.66,1.88-35.29.84-52.96-.02-.37-.03-.74-.04-1.12q-.21-6.6,7.31-7.42ZM319.5,499.12c4.29.04,6.08-2.69,4.27-6.58-.39-.83-.86-1.67-1.46-2.36-5.13-5.79-11.3-10.14-18.53-12.91-2.13-.82-4.37-1.15-6.06,1.05-1.68,2.18-.77,4.26.43,6.19,3.74,6.01,9.04,10.27,15.45,13.12,1.85.82,3.81,1.47,5.9,1.48Z"></path><path class="cls-9" d="M192.96,394.56c1.56-.12,2.85.75,4.27,1.13,2.15.58,2.84,1.99,2.85,4.16.05,15.48.78,30.99.06,46.43-.37,8.1-1.98,16.19-1.85,24.38.05,3.53.64,7.05.7,10.58.15,8.51-3.18,12.49-11.55,13.48-11.45,1.36-22.72,4.42-34.4,3.58-1.11-.08-2.24,0-3.36-.07-5.21-.34-7.32-2.36-7.44-7.07-.16-5.81,1.64-8.34,7.17-8.44,11.63-.2,22.97-2.02,34.24-4.71,6.07-1.45,7.07-2.48,6.5-8.77-.18-2.04-.61-4.05-.88-6.08-.24-1.83-.41-3.66-.62-5.48,5.46-.89,6.51-1.83,7.21-7.44,1.08-8.57.41-17.13-.48-25.68-.89-8.53-1.79-17.06-2.63-25.59-.14-1.44-.53-2.94.19-4.39ZM170.51,483.24c-5.97-.46-11.01,3.09-16.69,3.89-1.71.24-1.85,2.12-1.9,3.64-.06,1.9.85,3.25,2.66,3.76,2.85.8,5.71,1.29,8.76.92,5.94-.73,11.34-3.38,17.15-4.54,1.75-.35,2.98-1.63,2.82-3.6-.16-2-1.66-2.85-3.41-3.08-3.12-.41-6.26-.66-9.39-.97Z"></path><path class="cls-9" d="M377.29,388.43c-.19-2.19,1.59-4.83-1.71-6.31-.91-.41-.27-1.68.17-2.49,3.54-6.51,3.1-13.71,3.52-20.74.73-12.1-.16-24.25,1.19-36.33.15-1.36-.57-3.05,1.62-4.09.89.99.69,2.27.73,3.44.4,10.63.79,21.25,1.14,31.88.17,5.05.74,10.04,1.83,14.97.28,1.26.77,2.48,1.27,3.68.29.69.88,1.29,1.72,1.13.81-.15,1.22-.91,1.32-1.6.39-2.52.67-5.07,1.12-8.58,1.49,11.8,6.6,21.41,10.42,31.47,1.38,3.64,3.11,7.21,3.41,11.17.09,1.22.45,2.79-1.05,3.46-1.48.66-2.49-.48-3.28-1.49-4-5.12-7.87-10.32-9.13-16.92-.14-.73-.13-1.5-.37-2.2-.39-1.12-1.2-2-2.4-2.09-1.48-.11-2.35.83-2.86,2.19-.95,2.53-.55,5.17-.68,7.76-.04.92,0,1.85,0,3.2-2.08-3.92-4.07-10.44-4.15-13.28.36-.4.83-.9.34-1.37-.51-.48-.94.04-1.28.47-1,.87-1.99,1.73-2.99,2.6l.07.08ZM393.88,393.36c.07,1.92.52,3.73,2.88,3.82,1.24.05,1.9-1.08,1.78-2.3-.2-2.04-.73-4.4-2.88-4.79-2.04-.37-1.5,1.91-1.78,3.26Z"></path><path class="cls-9" d="M297.69,51.23c-3.17-1.34-6.4-1.96-7.8-4.26-1.62-2.65,1.64-4.96,2.16-7.61.11-.54.36-1.06.56-1.58,1.96-4.97,2.62-5.13,7.1-2.27,1.66,1.06,2.28,2,1.53,4.05-1.33,3.64-2.28,7.41-3.54,11.66Z"></path><path class="cls-9" d="M317.26,44.72c8.89,5.23,7.53,4.69,4.33,11.7-1.7,3.73-2.55,3.65-9.29.21,2.42-3.5,3.4-7.62,4.96-11.91Z"></path><path class="cls-9" d="M108.44,386.25q-2.14,6.55-6.95,8.61c.31-5.7.5-11.16.98-16.59.14-1.61.92-3.24,1.74-4.67.67-1.16,1.09-3.18,2.96-2.74,1.64.39,1.77,2.25,2.09,3.67.29,1.29-.25,2-1.69,2.26-3.34.61-3.55,3.56-3.91,6.04-.46,3.17,2.3,3.19,4.78,3.41Z"></path><path class="cls-9" d="M81.5,401.16c7.93-2.72,7.11-10.09,10.51-15.45q-.4,7.7,3.76,9.31c-3.09,7.53-6.17,9.14-14.27,6.14Z"></path><path class="cls-9" d="M120.98,389.13c-.13,1.26.29,2.59-1.11,3-.99.3-1.7-.49-2.3-1.2-1.06-1.28-2.09-2.59-3.13-3.88-1.03-1.28-1.64-2.43.23-3.62,1.44-.91,1.4-2.46,1.23-3.99-.1-.92.64-1.3,1.33-1.51.93-.28,1.34.45,1.53,1.16.9,3.38,2.07,6.71,2.22,10.04Z"></path><path class="cls-9" d="M296,415.98c-1.92-4.92-1.3-10.12-3.44-14.83-.52-1.15-.29-2.2,1.19-2.51,1.54-.32,2.65.11,2.66,1.86.02,2.98-.04,5.96-.11,8.94-.06,2.18-.19,4.36-.3,6.54Z"></path><path class="cls-9" d="M389.86,414.42c-4.5-3.58-4.4-7.83-4.91-12.85,2.08,1.96,5.13,1.53,5.66,3.52.72,2.7.5,5.75-.75,9.33Z"></path><path class="cls-9" d="M182.48,389.64c1.89.61,3.47,1.05,2.8,3.06-1.58,4.74-1.14,9.8-2.8,14.6v-17.66Z"></path><path class="cls-9" d="M377.22,388.35c-3.27,5.11-6.82,8.43-10.95,9.9,1.01-3.05,1.18-6.12,5.08-6.23,2.72-.08,3.41-3.31,5.94-3.59,0,0-.07-.08-.07-.08Z"></path><path class="cls-9" d="M389.58,315.89c.64,3.71.49,7.42-.62,11.13-.29-3.69-.58-7.38-.88-11.08.5-.02,1-.03,1.5-.05Z"></path><path class="cls-9" d="M88.18,321.19c.22.33.67.72.72,1.16.08.58-.46.81-1.01.75-.61-.07-.92-.51-.88-1.07.04-.55.43-.85,1.16-.83Z"></path><path class="cls-9" d="M127.97,364.22c-.52.22-1.05.43-1.57.65,0,0,.04.04.04.04-.78-1.04.19-1.17.78-1.49.25.27.5.54.75.81Z"></path><path class="cls-9" d="M178.13,353.53c1.43-1.12.15-2.36.2-3.55.07-1.67.88-3,2.73-2.66,1.98.36,3.36,1.73,3.24,3.86-.08,1.45-1.14,2.27-2.72,2.01-1.21-.19-2.45-1.13-3.55.23,0,0,.11.11.11.11Z"></path><path class="cls-9" d="M280.69,126.13c-2.43.76-4.54-2.24-7.13-.46,1.29,1.79,3.42,2.04,5.21,2.76,11.46,4.59,22.49,9.96,32.56,17.17,2.88,2.06,5.58,4.35,8.24,6.69,9.08,7.97,13.36,18.04,14.14,29.98.53,8.16,1.3,16.37,4.89,23.96.59,1.25.49,2.56.3,3.85-2.27,15.85-4.3,31.74-8.5,47.25-3.01,11.13-9.26,20.06-17.41,28.12-7.8,7.7-16.49,13.9-26.11,18.97-9.23,4.86-19.17,7.33-29.45,7.83-6.28.31-12.51-1.62-18.74-2.72-4.17-.73-8.24-1.61-12.68-1.08-5.08.61-9.38,2.07-12.97,5.91-3.84-3.18-7.43-6.39-11.28-9.27-4.01-3-7.93-6.28-13.07-7.26-1.77-.34-2.28-1.74-2.97-3.05-8.62-16.32-17.26-32.63-25.84-48.97-2.88-5.48-5.17-11.17-5.49-17.47-.08-1.69-.16-3.3-1.96-4.29-1.47-.81-1.54-2.54-1.78-3.95-2.73-16.22-5.07-32.55-.59-48.76,3.94-14.25,11.35-26.39,24.61-33.99,3.05-1.75,6.11-4.33,10.26-2.65.94.38,2.4-.27,2.92-1.21,1.24-2.27,3.5-2.69,5.55-3.44,15.76-5.8,31.91-10.26,48.18-14.34,1.13-.28,2.05-.36,3.19.09,9.43,3.71,19.08,6.16,29.36,5.13,3.63-.36,4.02.08,6.55,5.21ZM179.34,150.3c-2.46-.2-3.03,1.25-3.7,2.52-3.93,7.44-7.45,15.08-9.08,23.37-2.93,14.85-4.4,29.91-4.09,45.01.22,10.78,1.93,21.47,6.64,31.5,4.65,9.9,10.72,18.81,18.04,26.79,8.9,9.71,19.57,16.53,32.96,18.49,5.52.81,10.92,2.37,16.43,3.26,8.47,1.38,16.99,1.9,25.53.4,8.53-1.5,16.37-4.84,24.16-8.49,5.17-2.42,9.69-5.51,13.49-9.69,1.99-2.18,3.62-4.7,5.7-6.79,4.09-4.13,7.84-8.48,10.53-13.68.33-.63.83-1.23,1.7-.64.92,2.38-1.57,4.56-.47,7,1.73-.61,2.05-2.22,2.51-3.55,3.97-11.46,6.82-23.19,8.43-35.23,1.24-9.3.55-18.53.18-27.85-.62-15.64-6.58-28.53-17.5-39.26-10.89-10.7-23.64-18.72-37.88-24.24-19.55-7.57-39.54-10.48-60.15-4.79-7.28,2.01-13.86,5.51-19.46,10.59-5.95,5.4-11.29,11.37-15.82,18.04-.62.91-.94,2.47-3.17,1.96,1.68-4.95,3.32-9.76,5.01-14.74ZM171.88,151.3c-10.54,6.76-19.45,32.05-14.53,40.34,1.39-14.81,6.57-28.05,14.53-40.34Z"></path><path class="cls-9" d="M226.81,73.4c4.39-3.95,7.23-4.68,9.83-2.74.88.66,1.89,1.44,1.52,2.67-.35,1.17-1.47,1.61-2.65,1.44-2.8-.4-5.6-.88-8.69-1.37Z"></path><path class="cls-9" d="M235.2,363.4c2.66-.88,4.66-.48,6.61-.5,2.47-.03,2.48,1.72,2.18,3.45-.33,1.92-1.74,2.24-3.33,1.78-2.23-.64-3.65-2.31-5.46-4.73Z"></path><path class="cls-9" d="M198.7,324.36c1.64-.08,2.97.22,3.12,2.06.06.67-.51,1.64-1.25,1.39-1.48-.5-2.12-1.73-1.87-3.44Z"></path><path class="cls-9" d="M236.6,250.83c-.61-.1-1.22-.2-1.83-.29,1.04-1.29,2.2-2.5,3.1-3.88,2.32-3.55,4.64-7.11,6.71-10.8,1-1.79,1.46-3.97-.5-5.56-1.98-1.6-3.93-.58-5.53.72-2.14,1.75-3.96,3.83-5.47,6.2-1.04,1.63-1.47,3.84-3.71,4.51-.38-1.47,1.53-2.53.66-4.31-3.47,1.85-4.96,5.69-8.09,7.75-.45-.24-.9-.49-1.34-.73,3.51-4.33,7.01-8.63,11.18-12.41,4-3.63,7.31-7.93,9.8-12.78,2.34-4.55,1.97-6.16-2.18-8.75-1.47-.92-2.86-1.67-3.22-3.54-.28-1.41-1.27-2.34-2.62-2.6-4.09-.81-3.83-4.53-4.97-7.3-.16-.38.13-1.19.47-1.48.65-.55,1.42-.18,1.98.33,7.71,7.08,14.8,14.68,17.95,24.97,1.43,4.68,1.42,9.39-1.45,13.93-3.45,5.48-6.12,11.46-10.92,16.02Z"></path><path class="cls-9" d="M209.06,203.45c3.03-2.78,3.17-6.01,2.24-9.63-.5-1.95,2.2-3.87,4.29-3.28.82.23,1.38.95,1.16,1.62-1.39,4.4-1.14,9.85-7.69,11.29Z"></path><path class="cls-9" d="M228.27,243.98c-.17-1.07-.08-2,1.19-2.34.23,1.1.21,2.07-1.19,2.34Z"></path></g><path class="cls-7" d="M256.89,54.31c.65-4.44.97-8.36,1.84-12.15,1.38-6.05,4.88-7.86,10.83-5.62,4.7,1.77,9.24,3.96,13.85,5.95.65.28,1.32.5,2.09.79,2.55-7.62,4.71-15.12,7.59-22.32,2.47-6.2,5.59-12.17,8.84-18,.83-1.49,3.23-2.81,4.98-2.91,3.08-.18,6.39.14,9.3,1.14,7.88,2.7,14.53,7.57,20.67,13.09,3.42,3.08,4.92,7.17,3.76,11.68-1.2,4.67-2.61,9.36-4.58,13.74-2.9,6.45-6.39,12.64-9.94,19.53,2.37.97,4.86,1.95,7.31,3.01,4.29,1.84,8.57,3.56,11.06,8.03,3.14,5.64,2.73,9.22-2.08,13.84-.39.38-.71.83-1.19,1.4,2.73,2.08,5.43,4.05,8.05,6.13,7.81,6.21,14.26,13.65,19.95,21.81,9.21,13.21,17.12,27.18,23.44,41.95,7.37,17.21,12.79,35,12.37,54.06-.25,11.36.24,22.79-.88,34.06-.95,9.59-2.76,19.35-5.99,28.38-3.11,8.7-3.79,17.11-3.56,26.14.29,11.73-.66,23.49-1.18,35.23-.62,14.22.12,28.35,3.2,42.27.79,3.6,2.52,6.98,3.77,10.49,2.12,5.95,4.36,11.88,6.24,17.91.82,2.64,1.18,5.7-1.64,7.63-1.9,1.3-4.61-.27-7.22-3.86-.97-1.33-1.9-2.7-3.24-4.61-1.67,2.74-1.05,5.36-1.48,7.73-.4,2.2-.36,4.95-3.01,5.44-2.79.51-4.54-1.82-5.35-4.1-1.29-3.67-2.09-7.52-2.98-11.32-.71-3.04-1.26-6.12-2.06-10.06-2.46,2.64-4.18,4.74-6.18,6.53-1.63,1.46-3.46,2.9-5.46,3.71-2.73,1.1-4.46-.6-3.67-3.41.45-1.59,1.33-3.07,2.05-4.58,2.9-6.05,5.88-12.07,8.66-18.18.67-1.47.94-3.23.95-4.86.02-16.61-.06-33.21-.12-49.82,0-.34-.21-.67-.62-1.92-3.5,4.57-6.51,8.86-9.9,12.84-3.38,3.97-6.98,7.79-10.77,11.37-3.93,3.7-8.07,7.21-12.37,10.48-4.3,3.26-8.88,6.17-13.4,9.14-4.37,2.86-8.76,5.71-13.26,8.35-4.62,2.71-9.4,5.17-14.32,7.85,2.33,25.98.4,52.27.71,78.53,0,.75.02,1.49.05,2.24.32,9.52.38,9.33,9.27,12.16,6.55,2.08,13.22,4.14,17.21,10.61,2.86,4.64,4.06,9.64,3.67,14.95-.55,7.33-5.89,11.94-13.2,11.32-3.12-.27-6.33-.93-9.22-2.12-10.33-4.26-20.52-8.86-30.81-13.24-5.26-2.24-7.5-6.02-7.49-11.8.07-21.83-.11-43.66-.24-65.49-.06-9.33-.24-18.66-.39-27.98-.01-.71-.23-1.42-.3-1.87-11.19.17-22.18,1.11-33.04.28-10.86-.83-21.58-3.41-32.46-5.25-.14.53-.39,1.05-.4,1.58-.35,22.95-.75,45.9-.96,68.85-.07,7.43.48,14.87.58,22.3.05,4.09.13,8.25-.48,12.28-.95,6.32-4.09,11.59-10.78,12.84-13.88,2.61-27.69,6.37-42.06,4.24-1.47-.22-2.97-.41-4.36-.89-7.72-2.63-11.15-12.66-6.44-19.35,1.08-1.53,3.13-2.75,4.97-3.27,2.83-.81,5.86-.9,8.81-1.29,7.01-.92,14.02-1.82,21.03-2.76,2.72-.37,4.35-1.69,4.4-4.74.06-3.35.76-6.7.63-10.03-.83-22.19-1.83-44.36-2.71-66.55-.32-8-.49-16-.73-23.93-8.95-4.39-17.62-8.64-26.42-12.96-9.51,6.01-19.09,12.07-28.79,18.21,1.2,3.5,2.54,6.56,3.23,9.76.49,2.28.57,4.87,0,7.12-1.15,4.57-4.94,5.52-8.51,2.38-1.24-1.09-2.25-2.45-3.49-3.83-1.52,1.87-2.72,3.76-4.33,5.19-1.2,1.07-2.93,2.16-4.41,2.15-3-.02-4.62,1.41-6.39,3.55-5.57,6.73-9.45,7.3-16.99,2.99-.63-.36-1.24-.76-2.16-1.32-10.29,6.76-22.31,9.06-33.84,12.71-7.25,2.29-14.61,2.71-22.12,1.63-18.92-2.72-23.97-19.75-21.81-31.54,1.83-10.02,5.69-19.39,12.01-27.45,7.13-9.09,14.51-18,22.07-26.74,11.6-13.4,23.4-26.62,35.22-39.83,2.48-2.78,3.68-5.77,4.05-9.49.74-7.42,2.03-14.78,3-22.17.24-1.82.67-3.88.1-5.5-3.72-10.55-3.96-21.63-5.14-32.54-2.08-19.25,1.04-38.03,7.09-56.19,5.13-15.4,12.71-29.71,20.81-43.88,9.22-16.14,22.65-27.33,37.64-37.1,18.52-12.07,38.29-21.62,59.72-27.56,14.79-4.1,29.72-4.88,44.92-3.26,4.92.52,9.95.08,14.95.08ZM399.31,218.62c0-3.73.07-7.46-.01-11.19-.41-17.54-4.39-34.41-11.13-50.45-6.01-14.29-14.4-27.39-23.72-39.82-6.19-8.25-13.27-15.66-21.64-21.74-22.63-16.46-47.59-27.8-74.95-33.76-1.63-.36-3.31-.55-4.98-.68-5.95-.48-11.9-.88-17.84-1.35-13.08-1.01-26.04-.79-38.89,2.5-16.89,4.32-33.08,10.49-48.66,18.15-13.56,6.66-26.6,14.21-37.53,24.98-20.09,19.79-31.02,44.62-38.17,71.13-4.37,16.19-5.8,32.89-3.7,49.92,1.82,14.77,4.91,28.91,11.06,42.51,7.87,17.42,17.56,33.71,28.51,49.33,5.07,7.23,10.89,13.73,17.51,19.53,16.52,14.48,36.04,24.18,56.16,31.83,26.63,10.12,54.58,13.71,83.08,8.67,7.88-1.4,16.06-2.22,23.45-5.03,17.42-6.62,32.53-17.4,46.6-29.42,16.68-14.25,28.47-32.45,39.3-51.26,2.86-4.98,5.94-10.06,7.53-15.5,5.54-19.01,10.11-38.25,8.03-58.34ZM49.99,322.3c21.77-1.92,42.24-1.33,61.71,7.16-1.32.49-2.62.65-3.86.46-8.11-1.19-16.16-2.9-24.31-3.6-10.94-.94-21.95-1.19-32.93-1.53-1.46-.05-3.37.7-4.36,1.75-11.19,11.76-21.86,23.98-31.12,37.34-5.14,7.42-8.77,15.63-10.05,24.65-1.48,10.38,4.31,20.33,13.8,22.73,4.95,1.25,10.55,2.13,15.42,1.1,13.64-2.9,27.07-6.57,39.67-13.05,7.38-3.79,12.8-8.36,15.08-16.56,1.44-5.18,4.62-8.95,10.78-7.99.64-1.76,1.11-3.16,1.65-4.53.99-2.5,2.23-4.92,5.27-5.17,3.05-.25,4.63,1.95,5.96,4.31.62,1.1,1.21,2.22,1.86,3.4,10.28-6.46,20.32-12.76,30.39-19.08-.55-.8-.69-1.19-.97-1.38-1.23-.84-2.48-1.65-3.75-2.43-11.38-6.97-20.58-16.01-27.91-27.27-8.75-13.45-17.43-26.91-24.42-41.38-.29-.6-.83-1.09-1.45-1.87-12.07,14.22-23.94,28.2-36.45,42.94ZM276.73,402.01c.76,19.31,1.9,37.57-.26,55.81-.61,5.18-.93,10.41-1.17,15.62-.12,2.59.24,5.2.42,7.79.25,3.54,2.09,5.64,5.47,6.93,10.61,4.06,21.11,8.43,31.7,12.54,2.23.87,4.65,1.44,7.03,1.7,3.09.34,5.08-1.28,5.74-4.09,1.8-7.62-2.22-15.76-9.57-18.79-6.7-2.76-13.47-5.39-20.33-7.71-3.21-1.09-4.31-2.9-4.52-6.1-.44-6.94-.02-13.76,1.35-20.59,1.14-5.65,2.36-11.34,2.77-17.07.57-7.99.44-16.03.55-24.05.02-1.61-.25-3.23-.44-5.53-6.5,1.22-12.45,2.34-18.75,3.53ZM182.06,389.85c2.12,14.32-.29,27.72,2.5,41.03,2.37,11.29,3.73,22.79,5.45,34.21.36,2.38.32,4.83.43,7.25.14,3.11-1.41,4.91-4.4,5.49-10.21,1.95-20.17,5.43-30.81,4.84-2.75-.15-5.59.28-8.29.86-1.29.28-2.84,1.28-3.46,2.4-3.4,6.22-.27,11.65,6.87,12.2,1.11.09,2.24.03,3.35.08,11.67.56,22.92-2.55,34.35-4.03,8.29-1.07,10.32-4.02,10.28-12.42-.03-8.2-.16-16.4-.14-24.6,0-2.03.34-4.06.62-6.08.35-2.53,1.16-5.05,1.17-7.57.02-14.16-.13-28.32-.26-42.48-.01-1.43-.27-2.86-.4-4.05-5.57-2.3-10.71-4.42-17.25-7.12ZM389.29,315.94c-7.44,1.39-8.64,2.28-8.77,6.43-.41,12.83-1.32,25.68-.95,38.49.26,8.99-1.94,16.88-6.24,24.46-1.56,2.75-3.21,5.45-4.73,8.22-.65,1.18-1.07,2.49-2.07,4.86,7.1-3.96,10.01-10.64,16.17-14.96-.54,2.72-1.38,4.4-1.07,5.83,1.37,6.34,3,12.63,4.69,18.9.49,1.79,1.51,3.44,2.82,6.31,2.85-7.74.31-14.82,3.19-21.65,2.82,7.73,7.2,13.98,11.99,16.91,0-2.28.45-4.3-.09-6.02-1.49-4.79-3.36-9.46-5.12-14.16-2.08-5.56-4.75-10.97-6.21-16.69-4.08-16.02-4.56-32.38-3.64-48.81.15-2.58.02-5.18.02-8.13ZM294.88,33.54c-1.88,4.75-3.45,8.69-5.18,13.07,9.38,5.49,19.34,8.96,29.89,12.59,1.44-3.1,2.81-6.04,4.25-9.15-8.42-7.84-19.1-10.7-28.96-16.51ZM96.95,379.89c-4.58,2.64-5.28,6.85-6.73,10.57-1.58,4.05-1.99,8.81-7.88,10.58,3.44,1.61,6.11,2.64,8.5.47,5.38-4.87,8.08-11.04,7.8-18.34-.04-.97-.96-1.9-1.7-3.28ZM106.76,370.52c-5.91,7.5-3.89,15.71-4.82,24.07,6.85-4.31,9.16-16.26,4.82-24.07ZM119.98,392.34c.8-5.13.42-7.27-2.19-14.04-3.09.4-3.67,2.59-3.81,5.2-.21,4.18,2.89,5.98,6,8.84Z"></path><path class="cls-7" d="M132.11,274.24c.31-2.78.49-5.57.95-8.32,1.47-8.99.06-17.48-4.53-25.34-4.04-6.92-8.42-13.63-12.39-20.59-5.43-9.5-7.08-19.92-6.85-30.74.22-10.72,4.6-19.22,13.86-24.65,5.27-3.09,10.93-5.71,16.7-7.71,4.76-1.65,8.37-4.34,10.52-8.57,2.43-4.78,4.34-9.85,6.1-14.93,2.8-8.09,4.96-16.42,8.01-24.42,3.32-8.71,8.94-15.85,16.76-21.16,7.42-5.03,14.76-5.81,22.24-.16,4.32,3.26,8.88,6.2,13.04,9.64,2.99,2.47,6.2,3.11,9.87,2.95,6.35-.27,11.87-2.68,17.27-5.86,6.09-3.58,12.27-7.11,18.74-9.89,4.19-1.8,8.94-2.58,13.52-3.16,8.91-1.14,15.56,2.95,20.24,10.24,1.79,2.78,3.03,5.98,4.17,9.11,1.21,3.31,3.14,5.82,6.11,7.71,5.31,3.39,11.08,5.11,17.32,5.8,6.46.71,13.08,1.15,19.26,2.96,15.43,4.52,24.04,14.62,22.12,35.77-.72,7.9-3.18,15.68-5.22,23.41-4.94,18.77-5.17,37.61-1.17,56.51,2,9.46,4.58,18.8,6.67,28.25,2.55,11.54-1.7,20.92-10.03,28.64-6.44,5.96-13.32,11.29-21.48,14.95-4.36,1.95-8.51,4.73-12.15,7.84-4.74,4.05-7.91,9.3-9.27,15.6-.86,3.99-2.05,7.96-3.53,11.77-5.78,14.89-18.41,20.81-33.36,15.45-4.7-1.68-9.1-4.23-13.55-6.55-4.46-2.33-8.73-5.03-13.22-7.27-4.64-2.32-9.14-2.62-13.43,1.3-2.02,1.85-4.65,3.1-7.15,4.34-12.8,6.38-24.24,3.92-32.49-7.79-3.82-5.42-6.23-11.83-9.26-17.8-1.35-2.66-2.54-5.4-3.99-8-3.88-6.98-9.96-10.38-17.88-10.48-3.35-.04-6.71.29-10.06.21-7-.18-12.45-3.1-16.38-9.08-4.01-6.11-6.55-12.54-6.08-19.99ZM135.17,273.14c-.31,7.32,2.31,13.53,6.39,19.37,2.9,4.16,6.71,6.44,11.7,6.56,3.34.08,6.7-.27,10.05-.36,10.46-.27,18.41,3.95,23.41,13.29,1.14,2.13,2.2,4.32,3.21,6.52,1.95,4.24,3.72,8.55,5.76,12.74,6.46,13.21,17.56,17.54,31.11,12.05,3.62-1.46,7.07-3.37,10.54-5.18,4.26-2.22,8.62-2.49,12.93-.48,4.89,2.28,9.6,4.95,14.46,7.31,4.52,2.19,8.98,4.65,13.73,6.17,11.29,3.6,20.45-.87,24.83-11.86,1.72-4.32,3.08-8.81,4.17-13.33,1.31-5.41,3.96-9.98,7.36-14.28,4.68-5.9,10.97-9.57,17.64-12.49,7.87-3.45,14.33-8.71,20.28-14.66,5.35-5.36,8.17-11.81,7.72-19.67-.54-9.38-2.42-18.46-5-27.45-4.75-16.59-5.83-33.39-2.41-50.36,2.17-10.78,4.89-21.46,6.73-32.29,2.81-16.54-4.34-27.63-20.34-32.35-2.66-.79-5.47-1.13-8.23-1.55-3.13-.47-6.3-.71-9.43-1.2-7.79-1.2-14.76-4.25-20-10.24-2.52-2.89-4.39-6.38-6.35-9.71-6.47-10.97-14.18-14.98-26.09-11.18-5.81,1.86-11.39,4.54-16.94,7.14-4.55,2.13-8.71,5.2-13.39,6.92-9.2,3.37-18.16,3.09-26.51-3.09-4.18-3.09-8.92-5.41-13.36-8.16-4.68-2.9-9.13-2.33-13.68.4-7.67,4.6-13.03,11.21-16.25,19.38-3.07,7.79-5.89,15.73-8.1,23.81-3.36,12.3-10.21,21.15-21.96,26.61-6.19,2.88-11.86,6.99-17.49,10.94-4.85,3.41-7.14,8.64-7.58,14.42-.76,10,.2,19.83,5.13,28.8,4.13,7.5,8.68,14.78,13.02,22.17,4.96,8.46,5.85,17.54,4.11,27.04-.5,2.73-.79,5.5-1.18,8.25Z"></path><path class="cls-7" d="M109.58,243.19c-.78,3.62-1.34,7.69-2.6,11.52-.71,2.16-2.28,4.31-4.03,5.81-2.96,2.54-7.47,1.3-8.65-2.39-1.23-3.85-2.37-7.87-2.56-11.87-.28-5.78,2.95-10.21,7.59-13.37,3.36-2.29,7.67-.67,9.02,3.29.7,2.07.79,4.35,1.23,7ZM103.85,236.89c-4.12.24-6.08,2.46-6.41,5.54-.43,4.03-.19,8.14-.02,12.21.04.91.99,1.77,1.53,2.66,1.01-.64,2.53-1.05,2.94-1.97,2.63-5.85,3.33-11.93,1.96-18.45Z"></path><path class="cls-7" d="M371.48,209.22c0-3.52-.19-7.06.08-10.57.14-1.77.87-3.63,1.8-5.18,1.51-2.54,3.83-4.11,6.98-3.61,3.09.49,5.08,2.55,5.76,5.42,1.6,6.8.75,13.35-3.17,19.25-2.06,3.1-4.84,4.12-7.63,3.31-2.96-.86-4.22-2.86-4.36-6.95-.02-.56,0-1.12,0-1.68.18,0,.36,0,.55,0ZM375.48,213.31c1.02-.12,2.08.08,2.67-.36,3.36-2.55,5.28-13.16,2.95-16.61-.51-.76-1.86-1.5-2.68-1.37-.83.13-1.94,1.25-2.13,2.12-1.19,5.23-1.94,10.52-.81,16.22Z"></path><path class="cls-7" d="M137.13,131.83c-.7,2.66-1.1,5.85-2.4,8.62-1.78,3.79-4.92,4.31-8.28,1.98-6.58-4.56-9.13-16.32-5.01-23.12,1.91-3.16,5.16-4.05,8.69-2.33,2.83,1.39,4.68,3.69,5.46,6.7.65,2.49.97,5.06,1.54,8.15ZM130.8,140.07c2.61-5.53,2.32-11-.13-16.44-.42-.92-1.43-1.71-2.35-2.24-1.7-.99-3.13-.54-4.21,1.2-3.77,6.08-.68,14.72,6.69,17.48Z"></path><path class="cls-7" d="M226.99,82.79c-1.23-.11-1.99-.09-2.7-.26-2.39-.57-5.26-1.36-5.53-3.91-.19-1.77,1.33-4.07,2.7-5.59,1.96-2.18,4.37-3.99,6.76-5.72,4.14-3,9.05-2.56,12.67.93,2.82,2.72,2.95,5.32.11,8.16-3.98,3.98-9.16,5.36-14.01,6.38ZM222.69,77.59c6,1.65,11.69-.32,15.25-4.98-4.43-4.03-10.44-2.19-15.25,4.98Z"></path><path class="cls-7" d="M349.01,316.69c1.16-1.35,2.2-2.84,3.5-4.03,5.56-5.07,9.87-11.09,13.96-17.35,3.36-5.13,7.09-10.03,10.73-14.97.58-.78,1.54-1.28,3.4-2.76-.67,2.49-.74,3.81-1.34,4.81-5.1,8.42-9.97,17.02-15.63,25.05-2.59,3.68-6.76,6.28-10.34,9.22-.88.72-2.24.84-3.38,1.24-.31-.4-.61-.81-.92-1.21Z"></path><path class="cls-7" d="M172.38,85.49c-.7.28-1.38.61-2.1.84-14.13,4.43-24.78,14.57-36.86,22.36-.15.1-.63-.3-.95-.47,2.57-10.27,26.35-24.96,38.99-24.09.3.45.61.91.91,1.36Z"></path><path class="cls-7" d="M323.41,95.28c2.59.76,5.37,1.15,7.71,2.38,2.69,1.41,3.68,4.57,3.02,7.16-.71,2.81-2.7,4.51-6.02,4.91-4.41.52-8.48-.5-12.09-3.11-2.03-1.47-3.77-3.25-2.98-6.02.79-2.78,2.99-4.18,5.73-4.6,1.44-.22,2.95-.04,4.43-.04.07-.23.14-.45.21-.68ZM330.15,104.45c-3.47-5.36-7.26-5.51-11.91-.54,3.91,1.6,7.49,3.44,11.91.54Z"></path><path class="cls-7" d="M248.97,364.74c-1.25,2.16-2.04,4.89-3.86,6.33-2.43,1.92-5.34.59-7.78-1.03-4.85-3.22-6.77-7.62-5.42-12.38,1.22-4.3,4.37-5.94,8.58-4.46,4.8,1.69,7.82,6,8.47,11.54ZM242.66,368.04c2.08-6.03.41-8.78-5.49-9.63-2.51,5.49-1.36,7.63,5.49,9.63Z"></path><path class="cls-7" d="M152.85,325.79c.88-3.19,1.45-6.51,2.75-9.52.94-2.17,2.88-4.07,5.64-3.84,2.81.23,4,2.43,4.74,4.84,1.35,4.41,1.34,8.8-.71,13-1.73,3.55-4.6,5.07-7.56,4.26-2.72-.74-4.24-3.14-4.4-6.95-.02-.56,0-1.11,0-1.67-.15-.04-.3-.08-.45-.12ZM160.66,316.56c-3.69,3.59-4.45,7.37-3.69,11.51.16.87,1.21,2.09,1.97,2.18.76.09,2.05-.86,2.42-1.67,1.75-3.81,2.19-7.67-.7-12.02Z"></path><path class="cls-7" d="M150.21,337.8c-6.2-.65-15.2-8.11-22.03-17.96-4.9-7.06-5.58-8.93-4.5-12.97,8.8,10.26,17.52,20.41,26.54,30.92Z"></path><path class="cls-7" d="M122.14,156.58c1.18-.7,2.27-1.64,3.54-2.05,7.65-2.47,12.32-7.96,15.48-15.02,1.97-4.4,3.81-8.87,5.81-13.25.41-.9,1.29-1.58,2.54-3.04.28,1.68.67,2.54.51,3.27-1.5,6.72-3.21,13.41-7.04,19.23-4.82,7.33-11.3,11.9-20.83,10.86Z"></path><path class="cls-7" d="M338.49,328.09c-.06,3.45-2.07,5.99-5.19,6.09-4.56.16-7.51-2.66-10.01-6.03-2.18-2.94-2.56-6.17-.71-9.33.66-1.12,2.07-2.31,3.29-2.49,5.2-.78,12.72,6.4,12.62,11.76ZM326.62,321.34c-1.35,4.55-.45,7.01,3.39,8.54,1.2.48,2.76.05,4.15.04-.18-1.54.11-3.38-.64-4.55-1.54-2.38-4.02-3.68-6.9-4.02Z"></path><path class="cls-7" d="M299.93,355.94c-5.65,14.9-26.29,15.94-37.24,2.15,2.07.83,4.34,1.36,6.16,2.56,6.28,4.16,12.6,3.82,19.12.79,3.67-1.71,7.36-3.38,11.97-5.5Z"></path><path class="cls-7" d="M107.14,216.54c4.76,7.5,9.65,14.93,14.24,22.53,3.4,5.63,3.47,10.65.7,21.09-.46-2.07-.94-3.15-.9-4.2.26-7.35-2.02-13.83-6.06-19.93-2.66-4.02-4.9-8.34-7.05-12.66-1.03-2.06-1.41-4.44-2.09-6.67.39-.05.78-.11,1.16-.16Z"></path><path class="cls-7" d="M125.63,292.23c-.02,4.57-2.53,7.73-6.18,7.77-4.53.05-8.03-4.13-8-9.56.02-3.75,2.5-6.25,6.27-6.32,4.67-.09,7.93,3.25,7.91,8.11ZM122.23,293.01c-1.99-1.75-3.06-3.36-4.47-3.78-2.03-.59-2.91,1.26-2.95,3-.06,2.19,1.47,3.44,3.48,3.32,1.07-.06,2.07-1.28,3.95-2.54Z"></path><path class="cls-7" d="M291.17,77.3c-3.27-.47-6.55-.84-9.8-1.43-8.12-1.48-16.23-3.06-24.57-4.64,6.18-5.56,28.82-1.07,34.37,6.07Z"></path><path class="cls-7" d="M101.61,190.86c-.43,3.1-1.23,6.32-4.51,8.19-2.57,1.46-5.07.9-7.38-.58-3.46-2.22-3.88-5.61-.96-8.64,1.63-1.69,3.41-3.54,5.51-4.43,3.61-1.53,7.2,1.24,7.35,5.46ZM96.83,190.18c-3.69-.16-4.92,2.15-5.7,5.13,4.86,1.98,6.25.7,5.7-5.13Z"></path><path class="cls-7" d="M384.69,244.07c-.06,4.19-3.12,7.67-6.57,7.48-3.36-.18-7.31-3.75-7.26-6.55.06-3.34,4.62-8.67,7.4-8.66,3.38.01,6.49,3.75,6.43,7.73ZM378,249.24c1.28-2.33,2.47-3.51,2.36-4.55-.12-1.1-1.48-2.06-2.3-3.08-.71,1.13-1.78,2.2-2.01,3.43-.16.86.84,1.93,1.96,4.2Z"></path><path class="cls-7" d="M188.02,350.12c.02,3.59-2.02,6.2-4.94,6.32-3.52.15-7.62-3.8-7.74-7.45-.11-3.47,2.4-6.16,5.77-6.17,3.78,0,6.88,3.26,6.9,7.29ZM183.24,352.62c.7-2.1.86-3.96-1.77-4.67-.69-.19-2.38.74-2.44,1.28-.31,2.69,1.58,3.28,4.21,3.38Z"></path><path class="cls-7" d="M381.87,170.41c-.06,4.21-2.27,7.21-5.32,7.19-3.77-.02-7.39-4.57-7.22-9.06.13-3.2,2.96-5.82,6.18-5.72,3.77.13,6.41,3.28,6.35,7.59ZM376.62,174.04c1.85-3.35,1.89-5.18-.21-6-.8-.31-2.7.33-3.06,1.05-1.33,2.67.36,4.09,2.74,4.95.16.06.36,0,.53,0Z"></path><path class="cls-7" d="M95.64,164.1c-2.34-5.19.49-13.09,6-16.75.15,3.15-3.5,13.34-6,16.75Z"></path><path class="cls-7" d="M88.19,230.16c-3.37-5.34-3.61-11.01-3.09-16.76.54-.05,1.08-.11,1.62-.16.49,5.64.98,11.28,1.47,16.92Z"></path><path class="cls-7" d="M368.7,139.09c4.12,4.5,5.22,8.55,3.59,13.14-2.13-4.23-2.95-8.31-3.59-13.14Z"></path><path class="cls-7" d="M150.71,113.48c.61-5.38,2.85-8.28,6.63-10.79-1.08,4.75-2.17,6.58-6.63,10.79Z"></path><path class="cls-7" d="M106.15,138.33c-.43-3.88,1.92-5.61,5.2-7.49.05,4.29-2.4,6.03-5.2,7.49Z"></path><path class="cls-7" d="M298.46,77.96c1.34,1.45,2.67,2.9,4.01,4.35-3.36.67-5.07-.41-5.32-3.14.44-.4.87-.8,1.31-1.2Z"></path><path class="cls-7" d="M382.25,264.82c-1.13-2.37-.35-4.42.91-6.39.42.05.84.11,1.26.16-.23,2.12-.46,4.25-.69,6.37-.5-.05-.99-.09-1.49-.14Z"></path><path class="cls-7" d="M121.22,263.58c1.62,3.38,2.35,5.54,0,7.87v-7.87Z"></path><path class="cls-7" d="M108.76,359.29c-3.18,2.74-6.16,5.78-9.58,8.16-16.7,11.62-33.72,22.76-52.48,30.81-5.59,2.4-11.78,3.42-17.73,4.93-1.67.42-3.62.85-5.15-1.55,3.21-1.12,6.08-2.3,9.04-3.14,14.01-3.95,26.25-11.48,38.5-18.96,7.79-4.76,15.38-9.87,23.13-14.7,3.32-2.07,6.78-3.91,10.25-5.72,1.02-.53,2.28-.58,3.43-.85.2.34.39.68.59,1.01Z"></path><path class="cls-7" d="M85.25,314.43c-7.74-.34-15.48-.67-23.69-1.03,4.19-3.47,17.45-3.12,23.69,1.03Z"></path><path class="cls-7" d="M116.55,351.01c1.45-1.7,2.89-3.41,5.12-6.03.02,4.22-1.98,5.56-3.82,7-.43-.32-.87-.65-1.3-.97Z"></path><path class="cls-7" d="M179.91,150.15c-1.65,4.67-3.31,9.33-4.96,14,.22.15.45.31.67.46.87-1.01,1.76-2,2.6-3.03,2.82-3.47,5.57-7.01,8.45-10.43,9.93-11.74,22.9-17.39,37.9-19.41,13.26-1.78,25.99.28,38.67,3.87,15.33,4.33,28.85,11.98,41.31,21.75,7.76,6.09,14.19,13.41,18.57,22.13,2.54,5.05,3.91,10.89,4.8,16.53,3.76,23.97.06,47.19-7.94,69.86-.43,1.22-1.07,2.37-1.7,3.51-.14.26-.61.35-1.46.8,0-1.41-.12-2.57.03-3.7.16-1.27.56-2.51.36-4.07-.64.85-1.29,1.69-1.91,2.56-1.08,1.52-2.01,3.16-3.21,4.58-4.06,4.83-8.16,9.62-12.34,14.35-6.96,7.86-16.56,11.26-25.92,14.9-12.15,4.72-24.71,5.24-37.44,2.73-5.67-1.12-11.31-2.42-17.02-3.33-12.33-1.97-22.56-7.95-30.76-17-5.85-6.46-11.12-13.57-15.84-20.91-7.34-11.42-10.13-24.37-10.62-37.81-.55-14.97.8-29.9,3.73-44.5,1.66-8.28,5.61-16.13,8.8-24.07.74-1.84,2.56-3.24,3.89-4.85.44.35.88.7,1.33,1.06ZM210.64,288.7c4.55,3.08,9.15,4.77,14.2,5.44,4.99.65,9.96,1.75,14.97,1.98,6.86.32,13.97,1.08,20.57-.29,9.05-1.88,17.75-5.52,26.55-8.54,1.72-.59,3.62-1.48,4.76-2.81,6.16-7.22,13.11-14.03,17.93-22.09,11.55-19.32,15.33-40.58,12.67-62.98-1.73-14.56-7.67-26.85-19.43-35.86-15.38-11.79-31.7-21.55-51.48-24.26-8.57-1.17-16.99-1.88-25.6-.7-13.41,1.84-25.16,6.89-34.15,17.28-5.12,5.92-9.87,12.15-14.86,18.17-4.56,5.5-7.07,11.74-7.5,18.89-.3,5.06-.89,10.1-1.35,15.21,6.94-4.15,13.34-7.85,19.57-11.82,1.22-.78,1.99-2.52,2.57-3.97,2.01-5,3.3-10.38,5.91-15.03,2.22-3.95,5.66-7.32,9-10.48,2.2-2.08,4.22-.99,4.38,2.13.16,3.16-.17,6.34-.08,9.51.08,2.7-.42,5.57,1.26,7.9,5.34,0,9.85-.95,12.07-6.26.2-.48.69-.98,1.17-1.16.98-.38,2.25-1.03,3.01-.69.75.33,1.37,1.71,1.45,2.68.2,2.57.07,5.17.07,7.05,4.2,3.76,7.74,7.37,11.72,10.38,4.18,3.17,6.45,7.54,8.88,11.9.18.32.41.62.63.92,6.62,9.19,6.83,18.56.92,28.19-10.49,17.08-22.37,33.04-37.21,46.64-.79.72-1.48,1.54-2.58,2.69ZM223.47,267.2c.53-.4,1.06-.65,1.38-1.06,7.72-9.81,15.48-19.56,21.83-30.4,3.85-6.57,3.17-12.65.33-19.15-3.06-6.99-8.11-12.41-13.28-17.77-1.23-1.27-2.73-2.29-4.1-3.42-.13,2.8.54,5.04,1.4,7.21,1.03,2.59,2.5,5.05,3.25,7.71.38,1.36.15,3.51-.72,4.51-3.53,4.07-7.28,7.97-11.21,11.67-3.63,3.41-7.04,2.26-7.75-2.78-.77-5.49-1.29-11.1-1.05-16.62.21-4.78,1.64-9.51,2.49-14.26.08-.48-.17-1.02-.35-1.91-1.5.43-2.81.8-4.12,1.18-.1,3.2,2.31,6.07-.31,8.86-4.59,4.89-8.95,10-13.62,14.81-1.99,2.04-4.03,1.52-5.37-1.06-.67-1.29-.97-2.8-1.25-4.25-.54-2.88-.94-5.78-1.36-8.4-.6-.27-.8-.45-.93-.41-7.58,2.1-13.29,7.36-19.56,11.66-.65.45-1.21,1.52-1.24,2.33-.35,9.92,1.09,19.58,4.04,28.85,23.21,2.61,34.37,6.15,38.4,12.52-12.41-3.47-23.98-8.43-36.73-9.37,7.44,16.06,16.22,30.64,33.2,38.77,3.92-4.24,7.6-8.42,11.52-12.38,2.54-2.56,2.63-4.96.86-7.97-1-1.69-2.98-3.28-1.73-6.81,2.23,2.96,3.95,5.25,5.98,7.94Z"></path><path class="cls-7" d="M337.71,199.86c-.96-20.96-6.82-39.86-22.91-54.45.26-.25.53-.51.79-.76.97.14,2.13,0,2.88.48,2.63,1.7,5.64,3.19,7.58,5.52,7.73,9.29,13.48,19.59,14.07,32.05.19,4.08.19,8.18.12,12.26-.03,1.57-.5,3.14-.78,4.71-.58.06-1.17.13-1.75.19Z"></path><path class="cls-7" d="M345.88,257.14c-1.15,3.88-1.93,7.93-3.58,11.58-1,2.21-3.07,4.26-5.16,5.58-3.43,2.16-7.5.16-7.92-3.86-.63-6.05.57-11.87,4.02-17,.91-1.34,2.27-2.52,3.66-3.36,4.33-2.61,8.17-.45,8.48,4.65.04.74,0,1.48,0,2.23.16.06.33.12.49.17ZM333.98,270.49c5.43-2.65,7.77-9.56,5.45-16.13-6.02,3.02-8.18,9.41-5.45,16.13Z"></path><path class="cls-7" d="M315.72,284.42c-8.66,18.15-37.08,31.73-50.04,27.46,3.57-2.46,7.58-2.31,11.04-3.66,3.63-1.41,7.26-2.88,10.76-4.59,3.34-1.64,6.61-3.46,9.72-5.5,3.26-2.14,6.21-4.74,9.42-6.97,2.96-2.05,4.62-5.97,9.11-6.74Z"></path><path class="cls-7" d="M188.67,132.76c17.86-13.46,37.68-18.11,60.68-13.62-2.62,2.45-4.89,1.84-6.89,1.85-12.55.08-24.87,1.53-36.65,6.07-5.19,2-10.22,4.44-15.35,6.62-.87.37-2.13,1.42-2.38-.68.19-.09.39-.18.59-.25Z"></path><path class="cls-7" d="M288.71,332.39c-.14,4.46-3.22,7.54-7.65,6.62-3.71-.77-7.34-2.45-10.64-4.36-1.07-.62-1.55-3.33-1.31-4.93.68-4.53,5.37-7.64,9.88-7.02,5.74.79,9.87,4.9,9.73,9.69ZM273.19,330.63c2.51,3.17,4.04,4.34,7.11,4.52,1.23.07,3.26-.54,3.59-1.37.42-1.06-.14-2.98-.96-3.95-2.6-3.07-6.87-2.6-9.74.8Z"></path><path class="cls-7" d="M348.4,237.98c3.66,11.84,5.33,22.54,2.16,33.51-1.78,6.17-9.14,13.69-16.42,16.36.7-1.34.99-2.3,1.59-2.96,1.87-2.07,3.68-4.25,5.85-5.98,4.83-3.86,6.25-9.17,6.42-14.85.16-5.19-.38-10.4-.59-15.6-.12-3.07-.92-6.19.98-10.48Z"></path><path class="cls-7" d="M181.6,288.41c6.69,6.07,12.15,13.59,20.56,17.48,8.01,3.71,16.19,7.05,24.38,10.58-5.53,1.61-16.73-1.61-27.04-7.7-8.17-4.83-14.31-11.44-17.9-20.36Z"></path><path class="cls-7" d="M268.01,115.02c-.39-2.41-.91-5.58-1.43-8.83,1.46-1.54,2.77-3.09,4.26-4.44,2.8-2.55,6-2.75,9.2-.76,2.84,1.77,3.87,4.86,2.76,8.25-1.14,3.46-3.98,5.49-7.51,5.49-2.17,0-4.34.17-7.28.29ZM271.14,110.09c2.11.44,3.62,1.22,4.78.87,1.14-.34,2.13-1.73,2.76-2.89.27-.49-.41-2.17-.87-2.26-1.31-.27-2.99-.43-4.03.19-1.05.63-1.52,2.24-2.65,4.09Z"></path><path class="cls-7" d="M145.68,203.56c-.37.65-.98,2.76-2.37,3.93-1.92,1.6-4.35.74-6.15-.67-2.46-1.92-4.92-3.96-6.91-6.33-2.72-3.24-.5-8.41,3.58-8.94,5.66-.73,11.98,4.95,11.85,12.02ZM133.28,196.5c.7,5.06,3.26,7.39,8.06,7.72.4-5.43-1.34-7.19-8.06-7.72Z"></path><path class="cls-7" d="M157.26,192.73c-4.74-11.64,4.19-35.77,15.45-42.84-.54,4.2-3.83,6.43-5.17,9.65-1.51,3.61-3.44,7.04-4.84,10.69-1.34,3.47-2.41,7.06-3.29,10.68-.87,3.6-1.34,7.29-2.15,11.83Z"></path><path class="cls-7" d="M155.86,277.25c-5.36.12-7.33-2.59-5.16-7.38.99-2.19,2.22-4.34,3.72-6.2.98-1.23,2.52-2.35,4.02-2.75,2.79-.75,5.8-.49,7.63,2.04,1.91,2.63,1.4,5.71,0,8.48-1.71,3.41-5.95,5.71-10.22,5.81ZM152.96,273.48c4.11.46,7.1-.46,9.45-3.13,1.3-1.47,2.19-3.56.54-4.86-1.14-.89-3.71-1.15-4.97-.46-2.89,1.59-5.09,4.09-5.02,8.45Z"></path><path class="cls-7" d="M181.92,116.69c-2.36-4.06-1.59-7.87,1.04-11.34,2.13-2.81,5.4-3.3,8.46-1.68,2.98,1.58,4.08,4.43,3.11,8.05-.96,3.58-3.37,5.59-6.7,5.46-1.77-.07-3.54-.29-5.92-.5ZM184.82,111.51c1.85,1.76,3.59,3.17,5.24.77.56-.82.25-3.34-.45-3.74-2.64-1.54-3.94.26-4.79,2.98Z"></path><path class="cls-7" d="M348.94,167.51c-.28-1.52-.72-3.02-.82-4.55-.28-4.07-.34-8.16-.62-12.23-.56-8.32-2.03-11.62-7.68-17.43,2.93-.97,4.65.7,6.16,2.53,2.91,3.5,4.97,7.55,5.22,12.08.3,5.54,0,11.12-.18,16.67-.03.98-.71,1.94-1.09,2.91-.33,0-.66.01-1,.02Z"></path><path class="cls-7" d="M132.26,180.16c-1.17.84-2.35,1.68-3.52,2.53-5.32,3.89-7.65,9.12-6.18,15.55,1.19,5.2,2.99,10.25,4.61,15.69-2.09-.51-3.33-2.39-3.98-4.27-1.62-4.72-3.47-9.49-4.11-14.38-1.07-8.15,4.02-13.95,13.17-15.12Z"></path><path class="cls-7" d="M334.26,134.05c.13,3.65-2.5,6.8-5.78,6.92-3.4.12-6.57-2.65-6.87-6.01-.28-3.04,3.35-7.34,6.26-7.42,3.14-.08,6.28,3.11,6.4,6.51ZM331.1,135.56c-1.2-1.33-2.12-2.8-2.48-2.68-1.02.36-2.05,1.24-2.57,2.2-.19.35,1.04,2.08,1.67,2.11.94.04,1.92-.87,3.38-1.63Z"></path><path class="cls-7" d="M222.12,331.57c.06,3.57-1.95,6.35-4.68,6.49-3.18.16-6.53-2.9-6.7-6.09-.19-3.73,2-6.66,5.05-6.75,3.39-.09,6.27,2.81,6.33,6.35ZM216.44,335.43c.88-1.42,1.89-2.33,1.74-2.98-.23-1.01-1.24-1.84-1.93-2.75-.76.83-2.09,1.63-2.11,2.48-.03.88,1.21,1.81,2.3,3.25Z"></path><path class="cls-7" d="M176.44,113.46c-2.77,9.33-3.52,17.95-7.27,26.25-1.96-3.76-1.96-4.49.78-15.19.97-3.79,1.51-7.94,6.49-11.07Z"></path><path class="cls-7" d="M308.9,125.58c-8.22.19-15.62-5.69-16.96-13.19,3.73,1.26,4.87,4.99,7.6,6.84,2.86,1.94,5.72,3.88,9.36,6.35Z"></path><path class="cls-7" d="M239.74,316.55c2.33-1.73,9.78-2.89,17.33-2.69-2.82,4.65-11.84,6.05-17.33,2.69Z"></path><path class="cls-7" d="M336.35,233.83c-.24-6.16,1.25-12.07,2.73-19.23,1.96,6.48.85,14.28-2.73,19.23Z"></path><path class="cls-7" d="M201.93,102.99c5.7,3.7,10.95,7.11,15.96,10.36-5.46,1.14-12.81-3.26-15.96-10.36Z"></path><path class="cls-7" d="M272.88,125.59c4.49-1.09,10.39,1.13,15.52,5.86-3.24.36-11.16-2.63-15.52-5.86Z"></path><path class="cls-7" d="M154.02,223.49c.73,5.58,1.45,11.16,2.22,17.04-3.31-2.89-4.73-11.02-2.22-17.04Z"></path><path class="cls-7" d="M346.78,222.69v7.76c-2.37-3.23-1.62-5.47-1.32-7.69.44-.03.88-.05,1.32-.08Z"></path><path class="cls-7" d="M188.67,132.76c-.2.07-.4.15-.59.25-.85.69-1.71,1.37-2.83,2.27q1.01-3.48,3.42-2.52Z"></path><path class="cls-7" d="M137.67,174.49c1.37-.52,2.74-1.05,4.11-1.57.17.39.34.78.52,1.17-1.3.62-2.61,1.23-3.91,1.85-.24-.48-.48-.96-.72-1.45Z"></path><path class="cls-7" d="M230.77,235.41c-1.32,9.43-23.07,35.9-34.48,42.34,1.82-5.09,5.38-7.83,7.91-11.19,2.69-3.57,5.68-6.91,8.55-10.34,2.87-3.43,5.72-6.88,8.65-10.26,2.85-3.3,5.79-6.52,9.37-10.55Z"></path><path class="cls-7" d="M238,223.8c-.47,1.01-.94,2.01-1.41,3.02-.27-.06-.55-.12-.82-.17.05-.69-.06-1.46.21-2.05.24-.52.9-.85,1.38-1.26.22.16.43.31.65.47Z"></path></g></g></g></g></svg> 