<?xml version="1.0" encoding="UTF-8"?> <svg xmlns="http://www.w3.org/2000/svg" viewBox="0 0 339.89 557.97"><defs><style> .cls-1 { fill: #03dbed; } .cls-1, .cls-2, .cls-3, .cls-4, .cls-5, .cls-6, .cls-7, .cls-8, .cls-9, .cls-10, .cls-11, .cls-12, .cls-13, .cls-14, .cls-15, .cls-16, .cls-17, .cls-18, .cls-19 { stroke-width: 0px; } .cls-2 { fill: #dcd7c9; } .cls-3 { fill: #e5ef7f; } .cls-4 { fill: #ff4549; } .cls-5 { fill: #5ce2ed; } .cls-6 { fill: #05f8e6; } .cls-20 { mix-blend-mode: multiply; opacity: .2; } .cls-7 { fill: #eea66a; } .cls-21 { isolation: isolate; } .cls-8 { fill: #301b40; } .cls-9 { fill: #fc9504; } .cls-10 { fill: #8d5b9c; } .cls-11 { fill: #eff3f7; } .cls-12 { fill: #d0f3ef; } .cls-13 { fill: #8b589a; } .cls-14 { fill: #ffea2f; } .cls-15 { fill: #fff3f2; } .cls-16 { fill: #fe7c90; } .cls-17 { fill: #ffe047; } .cls-18 { fill: #ffa5c4; } .cls-19 { fill: #fffffe; } </style></defs><g class="cls-21"><g id="Capa_2" data-name="Capa 2"><g id="OBJECTS"><g><path class="cls-5" d="M153.95,182.23c-3.04-12.52-10.31-21.55-23.99-25.02-10.34-2.62-20.36-1.32-29.96,2.98-.97.44-1.73,1.31-2.97,1.3-.92-1.61.16-3.08.68-4.41,7.41-18.91,15.14-37.74,26.38-54.98,18.69-28.68,46.24-45.95,80.94-53.59,5.03-1.11,9.88-.16,14.68,1.04,17.97,4.49,34.6,11.75,48.86,22.95,13.89,10.92,25.31,23.87,33.27,39.37,6.54,12.72,12.63,25.61,18.11,38.75,2.61,6.27,4.53,12.71,6.18,19.25,1.05,4.17,1.92,8.38,3.72,12.39.96,2.15,1.05,4.7,1.23,7.1,1.78,24.21,4.08,48.39,5.11,72.66.38,8.93.97,17.85.57,26.77-.37,8.24-1.26,16.47-1.77,24.71-.82,13.24.49,26.51-.61,39.75-1.02,12.34-1.69,24.72-3.98,36.94-.03.17-.02.35-.07.51-5.09,16.3-7.57,33.29-15.16,48.95-5.43,11.22-18.59,19.43-31.42,18.95-5.23-.19-9.61-1.9-12.93-5.84-2.39-2.83-4.92-5.56-7.38-8.34-.68-.77-1.1-1.85-2.51-1.57,0,0,0,.08,0,.08-.61-2.68-.41-5.28.62-7.86.44-1.1,1.11-2.32-.39-4.24-3.45,8.48-5.81,16.65-10.26,23.99l-.11.03c-2.27.41-3.8,1.87-5.41,3.26-7.79,6.75-21.22,5.31-27.81.05-4.04-3.23-6.01-7.84-5.82-12.77.1-2.61-.31-5.07-.61-7.59.47-10.62.21-13.39-2.06-17.2v16.19c-.78,3.36-.32,6.8-.62,10.16-.77,8.59-8.26,14.92-17.52,15.53-6.66.44-12.71-.62-17.47-5.49-.84-.86-2.04-1.42-3.08-2.11-.29-.75-.89-1.22-1.62-1.57-2.72-3.63-4.41-7.71-5.91-11.89-1.43-3.99-2.47-8.13-4.57-11.9.24-2.32-1.12-4.21-1.81-6.31-.47,2.18-.97,4.34.51,6.34-.05,2.12.97,3.99,1.65,5.92,1.03,2.9,1.53,5.58-1.16,8.01-.68.62-1.65,1.53-.41,2.57l-.02-.1c-1.39-.83-1.94.36-2.58,1.04-1.7,1.8-3.3,3.68-4.96,5.52-6.04,6.68-13.88,7.54-22.07,5.12-10.76-3.19-19.11-9.21-23.22-19.65-3.68-9.36-7.6-18.58-9.24-28.56-1-6.08-3.74-11.89-5-17.94-3.05-14.73-4.28-29.71-4.43-44.67-.2-21.53-1.53-43.01-2.31-64.51-.23-6.35.33-12.72.52-19.08.08-2.72,1.4-4.24,4.31-5.15,7.85-2.47,15.77-4.83,23.9-6,7.03-1.02,14.29-.61,21.44-.93,7.38-.33,11.68-4.56,14.64-10.4-4.02,1.52-6.67,4.98-10.69,6.44-4,1.46-8.1,2.2-12.36,1.03,7.98-2.75,14.03-7.97,19.31-13.9,3.83-4.3,8.23-8.28,10.62-13.61,5.79-12.97,3.74-25.73-1-38.44ZM199.75,236.79c-1.08.81-1.87,1.82-2.37,3.03-1.44,1.56-2.6,3.27-3.22,5.28-1.51,1.79-2.21,3.95-3.04,6.04-3.66,9.22-4.05,18.67-3.27,28.42.98,12.35,6.08,22.9,13.9,32.54,3.18,3.93,7.38,6.62,12.02,8.85,6.36,3.05,13.07,4.47,20.19,4.31,6.24-.14,12.54.27,18.71-.8,10.03-1.74,17.31-7.39,24.21-14.25,13.67-13.58,19.44-29.91,19.68-47.93.12-8.47-2.05-16.98-7-24.66-11.1-17.21-26.18-27.31-48.58-26.35-17.61.75-29.87,9.1-39.16,22.33-1.02.88-1.64,1.98-2.08,3.19ZM263.23,428.53c1.37-1.65.92-3.46.47-5.3-.62,1.76-1.92,3.3-1.62,5.29-.25.74-.7,1.86.31,1.98.76.09.86-1.16.84-1.97ZM179.78,235.75c-10,9.41-15.52,33.16-9.29,41.35,0-1.33.05-2.34,0-3.35-.44-8.33.66-16.33,4.17-24.16,1.97-4.4,4.1-8.78,5.8-13.3.71-.37,1.07-.83.41-1.53-.36.33-.72.66-1.08.99ZM308.62,260.01c.2,5.27,2.35,9.57,7.26,12.37,3.29,1.87,7.99,1.87,10.24-.5,4.08-4.28,6.67-9.29,5.92-15.3-.02-.18-.57-.3-1.12-.57-.54,1.46-1.1,2.88-1.59,4.32-1.01,2.96-2.42,5.76-4.39,8.25-2.29,2.9-4.19,3.16-7.54,1.37-4.14-2.22-5.87-5.95-7.21-9.94.1-.88-.03-1.84-1.17-1.71-.65.08-.57,1.05-.4,1.7ZM242.13,82.09l.07.04c-4.82-3.63-10.67-3.96-16.45-4.72-17.52-2.32-31.93,3.56-43.6,15.25-14.48,14.5-22.22,31.77-21.86,51.92.14,8.09-.14,16.34,2.04,24.13,4.07,14.52,13.09,25.45,28.5,31.27,8.99,3.4,17.95,5.82,27.77,4.18,6.18-1.03,12.07-2.86,17.87-5.06,11-4.17,20.16-10.85,27.16-19.59,6.54-8.17,10.08-17.91,12.62-27.85,1.86-7.3,1.36-14.73.77-22.12-.98-12.27-4.63-23.67-13.24-33.27-5.85-6.52-12.33-12.27-21.64-14.18ZM281.47,405.35c-2.5,4.82-.97,9.39.16,13.97.98,3.95,3.02,7.27,7.73,7.6,5.21.37,10.72,1.05,14.26-4.15,2.69-3.97,4.3-8.31,5.36-12.86.24-1.02.52-2.34-.63-2.76-2.11-.78-1.51-3.02-2.9-4.17-.99,1.58-1.01,3.33-1.42,4.98-1.13,4.54-2.64,8.93-6.01,12.53-3.32,3.55-6.12,3.7-9.83.65-2.56-2.1-4.34-4.58-4.93-7.79-.5-2.68-1.18-5.34-1.78-8ZM147.12,369.64c-2.08,1.37-2.69,3.65-2.68,5.69.06,9.84,3.15,18.65,11.41,25.19,3.66,2.9,8.82,2.9,12.12-.26,5.92-5.66,8.72-12.7,8.62-20.72-2.54,2.32-3.39,5.48-4.74,8.34-1.65,3.51-3.59,6.77-6.62,9.38-2.45,2.11-4.07,2.24-6.89.58-.92-.54-1.85-1.19-2.51-1.98-5.68-6.82-9.53-14.2-7.93-23.22.17-.94.72-1.99-.79-2.99ZM196.43,361.61c-1.57.06-1.72.59-1.91,1.04-3.77,9.1,1.5,23.36,10.41,28.19,6.33,3.43,11.45,2.05,14.17-4.33,3.07-7.22,2.85-14.89,2.47-22.57-2.02,1.75-2.24,4.04-2.63,6.33-.86,5.07-.96,10.32-3.38,15.06-2.23,4.37-5.16,5.15-9.21,2.26-4.45-3.18-7.69-7.23-9.5-12.34-1.61-4.54-1.05-9.07-.41-13.65ZM281.99,377.9c-1.87,1.34-2.09,2.36-2.43,3.32-1.6,4.57-3.19,9.17-5.57,13.44-2.66,4.77-6.05,5.46-10.82,2.54-1.25-.77-2.27-1.73-3.13-2.86-4.02-5.33-7-10.94-5.34-17.77.17-.68.4-1.38-.51-1.7-.9-.31-1.35.34-1.68.93-.25.44-.34.97-.45,1.48-1.82,8.54,1.46,15.85,7.63,21.57,4.99,4.63,11.64,5.45,15.47.39,4.58-6.06,6.96-13.07,6.85-21.35ZM243.77,410.61c-2.88.76-3.27,2.16-4.04,3.27-2.08,3.03-3.98,6.21-6.41,8.97-4.28,4.86-8.75,4.31-12.01-1.24-.52-.89-.94-1.88-1.16-2.88-.89-4.04-1.64-8.05-.39-12.22.5-1.66,1.39-3.48.74-5.38-.57.1-1,.06-1.22.24-.4.33-.78.75-.98,1.2-2.77,6.26-3.36,12.57-.75,19.05,1.23,3.05,3.27,5.33,6.25,6.9,3.39,1.79,6.79,1.62,9.65-.86,5.08-4.41,7.83-10.09,10.32-17.07ZM123.56,349.62c-2.63,1.12-2.81,2.96-3.55,4.42-1.02,2.02-1.79,4.18-3.07,6.04-2.9,4.22-7.93,4.47-11.57.73-.74-.76-1.38-1.62-1.95-2.5-4.27-6.5-7.46-13.27-5.31-21.9-3.23,2.06-3.47,4.64-3.33,6.84.44,7.2,2.87,13.97,7.71,19.57,4.47,5.17,14,7.07,18.19-2.08,1.51-3.3,2.68-6.73,2.89-11.11ZM157.17,314.52c-2.04,1.58-2.26,3.17-2.96,4.47-.99,1.84-1.77,3.79-2.94,5.52-3.02,4.48-6.72,5.47-11.74,2.9-5.43-2.78-8.05-7.32-8.19-13.1-.03-1.09.69-2.28-.44-3.14-1.66.31-1.79,1.42-2,2.39-1.21,5.63,2.45,13.68,7.77,16.57,4.48,2.44,9.65,4,13.94.55,4.78-3.84,7.09-9.21,6.56-16.17ZM138.84,405.19c-1.24,4.67-2.13,9.07-3.6,13.3-2.09,6.01-7.41,7.12-12.37,2.8-2.63-2.29-3.99-5.3-5.3-8.35-1.37-3.2-1.52-6.69-2.65-10.18q-1.58,3.04-.87,7.45c.82,5.24,2.77,10.04,6.99,13.7,6.6,5.73,14.5,3.85,17.26-4.03,1.21-3.45,1.66-7.05,2.06-10.64.15-1.32.28-2.79-1.51-4.04ZM290.68,331.09c-.46,5.93.91,10.72,4.99,14.58,3.93,3.73,9.64,3.39,12.88-.84,2.92-3.8,4.73-8.12,5.09-12.86.13-1.68-.07-3.27-1.48-4.71-1.37,1.67-1.19,3.46-1.58,5.09-.96,4.06-2.41,7.94-5.64,10.95-2.42,2.26-4.05,2.27-6.66.23-2.65-2.07-3.74-4.99-4.9-7.9-.53-1.34.15-3.17-2.7-4.54ZM96.57,286.94c-2.06,7.72-1.32,14.88,2.71,21.62,2.29,3.84,7.73,6.06,11.71,5.14,4.37-1.01,7.52-4.66,7.78-9.31-2.19.96-3.41,2.74-5.03,4.05-3.26,2.63-5.31,2.76-8.93.73-1.65-.93-2.83-2.21-3.6-3.79-2.48-5.06-4.18-10.27-3.13-15.95.15-.82.48-1.69-1.51-2.49ZM254.74,200.49c12.35-2.52,29.08-23.55,28.75-36.53-3.76,7.62-7.65,14.17-12.09,20.41-4.5,6.33-10.32,11.46-16.67,16.11ZM166.53,100.22c-10.03,6-18.5,35.14-14.23,47.6,1.01-16.93,4.69-32.61,14.23-47.6ZM256.43,346.89c-.37-.15-.74-.29-1.11-.44-1.12,1.72-2.12,3.51-3.37,5.13-2.35,3.03-5.23,5.46-9.6,4.87-4.65-.62-6.68-3.81-7.83-7.68-.31-1.06.03-2.48-2.09-2.87-.93,4.58.19,8.45,3.97,11.39,3.58,2.79,7.89,3.04,11.9,1.28,5.18-2.27,7.75-6.45,8.14-11.68ZM160.17,81.14c-4.73,2.18-5.52,2.91-9.26,8.05-4.11,5.64-4.6,6.87-3.9,11.08,3.48-7.08,8.08-12.68,13.16-19.13ZM133.78,127.86c-4.48,5.25-6.15,10.25-5.59,15.77,2.04-5.74,3.82-10.76,5.59-15.77ZM155.87,229.7c-2.16,2.05-3.3,3.5-2.7,6.08,1.91-1.66,2.38-3.34,2.7-6.08ZM286.21,153.04c.67-.02.98-.42,1-.96.01-.3-.15-.8-.37-.87-.59-.2-1,.21-1.19.69-.21.51-.06.96.56,1.15ZM168.05,98.84c.26-.36.22-.71-.2-.87-.86-.33-1.19.31-1.57.85-.25.36-.24.7.19.86.85.32,1.22-.28,1.57-.84ZM174.3,292.28c-.13.11-.39.23-.37.32.04.31.18.61.28.91.13-.11.37-.24.36-.34-.04-.3-.17-.6-.27-.9ZM173.22,289.37c-.11.12-.32.25-.31.36.04.29.17.58.26.87.1-.12.31-.25.29-.37-.03-.29-.16-.57-.24-.86Z"></path><path class="cls-9" d="M120.95,245.88c-9.66,3.31-19.89,4.72-29.6,7.87-13.85,4.49-27.36,9.79-40.89,15.05-3.38,1.32-6.8,2.56-10.2,3.83-.44-.43-.88-.86-1.31-1.28,16.86-12.27,34.54-23.35,53.83-32,5.78-2.59,11.8-4.81,17.9-6.65,3.96-1.19,8.28-1.29,12.5-1.18,2.41.06,4.75-.15,6.89-1.32,1.41-.77,2.14-1.79,1.77-3.4-.4-1.75-1.77-2-3.31-2.06-3-.12-5.89.62-8.62,1.52-20.98,6.92-41.22,15.41-60.31,26.15-8.68,4.88-16.22,11.26-24.39,16.82-5.22,3.55-10.84,6.38-16.93,8.48-8.13,2.8-16.58-2.28-15.27-12.31.86-6.6,3.85-12.49,7.47-18.15,7.58-11.85,17.97-21.3,29.2-29.97,15.04-11.61,31.28-21.69,47.29-32.06,4.49-2.91,9.39-5.26,14.09-7.87,12.41-2.11,22.11,2.44,29.09,11.6,8.29,10.88,14.41,22.54,11.89,36.81-.81,4.57-2.57,7.88-5.84,11.16-4.31,4.33-9.88,6.42-15.25,8.96ZM64.6,244.6c1.89-.17,3.26-1.11,4.36-2.49,1.92-1,3.82-2.04,5.77-2.98,18.93-9.17,37.37-19.46,59.34-22.34-.79-1.61-2.23-1.82-3.61-2.01-3.17-.43-6.19.28-9.2,1.13-6.34,1.78-12.43,4.15-18.42,6.74-12.16,5.25-24.13,10.85-34.79,18.58-1.7.55-3.16,1.34-3.8,3.05-.12.23-.24.46-.36.68.24-.12.47-.24.71-.36ZM106.1,205.79c3.21,0,5.22.05,7.22-.02.71-.03,1.44-.28,2.12-.52,3.19-1.16,5.08-4.2,4.33-6.9-.6-2.15-3.47-3.77-6.63-3.57-1.25.08-2.56.37-3.68.87-7.26,3.29-13.87,7.59-20.53,11.79-.6.38-1.13.89-1.58,1.42-.99,1.16-2.82,2.45-1.54,3.94,1.54,1.78,2.87-.17,4.09-1,5.21-3.52,10.24-7.45,16.2-6Z"></path><path class="cls-16" d="M120.95,245.88c5.37-2.54,10.94-4.63,15.25-8.96,3.26-3.28,5.03-6.59,5.84-11.16,2.52-14.27-3.6-25.93-11.89-36.81-6.98-9.16-16.68-13.71-29.09-11.6-.24-1.81-1.3-2.22-3.1-1.78-5.43,1.32-10.27,3.59-13.86,7.67-1.81-.92-.81-1.95-.46-2.73,4.34-9.84,12.4-16.55,22.73-19.77,11.5-3.59,23.16-3,33.53,4.3,4.79,3.38,7.36,8.01,9.53,13,.85,1.96,1.07,4.64,4.52,4.2,4.74,12.71,6.8,25.48,1,38.44-2.39,5.34-6.79,9.31-10.62,13.61-5.28,5.93-11.33,11.16-19.31,13.9-2.06.32-3.7-.02-4.07-2.31Z"></path><path class="cls-17" d="M138.05,79.05c-2.75,3.04-5.32,5.94-7.95,8.79-10.89,11.77-17.48,25.76-23.84,39.93-5.2,11.59-9.58,23.46-14.16,35.25-.31.81-.55,1.65-.97,2.42-1.66,3.03-3.04,3.07-5.65.31-8.07-8.56-10.65-18.82-9.6-29.79,1.71-17.88,9.73-33.11,24.09-45.07,10.02-8.35,21.47-13.84,35.48-12.76.55.04,1.09.12,1.63.22.15.03.27.19.97.71ZM84.17,130.67c.05.86.05,1.72.16,2.57.48,3.56,2.52,6.53,4.94,6.8,3.74.41,5.16-2.33,6.22-4.83,2.02-4.77,3.64-9.69,5.45-14.55.55-1.49.16-2.62-1.15-3.62-.84-.64-1.58-1.44-2.19-2.28-1.26-1.73-1.37-3.58.09-5.24,1.61-1.82,3.76-2.06,5.98-1.19.98.38,1.82,1.14,2.63,1.83,1.03.88,1.94.79,2.83-.1,2.65-2.66,5.04-5.52,6.06-9.07,1.39-4.82-2.02-8.16-7.35-7.24-3.9.68-7.16,2.46-9.58,5.53-5.6,7.12-9.17,15.21-12.62,23.33-1.06,2.51-1.55,5.3-1.48,8.08Z"></path><path class="cls-4" d="M259.78,499.85c2.66,2.1.1,4.93,1.37,7.68,1.25-.93,2.42-2,4.35-1.19,11.57,4.86,23.89,7.79,35.75,11.93,1.88.65,3.74,1.47,5.41,2.5,3.1,1.9,4.31,4.4,3.41,6.38-1,2.22-4.95,4.1-7.92,3.65-2.57-.39-4.83-1.59-7.15-2.64-7.61-3.42-15.12-7.04-23.1-9.68-1.55-.51-3.15-1.07-4.76-1.21-4.05-.34-6.09,2.62-4.27,5.99,1.11,2.04,2.82,3.57,4.7,4.99,5.14,3.88,10.28,7.78,15.35,11.74,1.69,1.32,3.21,2.83,4.76,4.29,1.75,1.66,2.23,3.59.86,5.62-1.42,2.12-3.58,2.94-6.17,2.27-2.13-.55-4.12-1.46-5.92-2.69-7.9-5.39-15.09-11.39-20.83-18.94-6.72-8.84-14.14-17.16-24.01-23.18-1.62-.98-2.72-2.28-3.64-3.78-1.65-2.71-.55-5.12,2.67-5.76,2.44-.48,4.68.66,7.01.99,2.8.4,3.12,2.57,3.64,4.54,3.12-.58,1.18-4.46,4.1-4.97,1.65,1.7,3.82,2.3,6.12,2.85,3.05.73,5.96,1.43,8.25-1.42Z"></path><path class="cls-4" d="M175.94,498.69c.2.84.31,1.7.62,2.5.31.79.81,1.51,1.74,3.19,1.01-5.26,4.73-6.12,8.73-6.56,2.11-.23,4.21-.09,5.19,1.99.9,1.91.22,3.72-1.27,5.22-.75.75-1.49,1.57-2.39,2.13-10.79,6.69-18.46,16.15-26.01,25.7-5.56,7.03-12.64,12.43-20.2,17.37-1.33.87-2.92,1.46-4.47,1.96-2.65.84-4.7-.24-6.18-2.24-1.49-2.01-.95-3.97.71-5.64,4.01-4.04,8.69-7.4,13.22-10.89,2.55-1.97,5.15-3.89,7.76-5.78,1.65-1.19,2.95-2.64,3.62-4.46.53-1.41,1.33-2.96-.29-4.29-1.4-1.16-2.78-2.14-4.9-1.5-4.2,1.27-8.34,2.67-12.34,4.43-5.98,2.64-11.95,5.31-17.96,7.89-4.44,1.91-7.51,1.54-10.12-1.05-2.01-2-2.14-3.8-.28-5.94,1.29-1.48,2.87-2.67,4.81-3.37,3.26-1.17,6.46-2.51,9.8-3.42,9.53-2.62,18.84-5.8,28.09-9.15,1.97-.71,3.84-1.75,5.51.66,0-2.22,0-4.44,0-6.67,5.34,1.9,10.35,1.42,15.03-1.74.4-.27,1.05-.23,1.58-.33Z"></path><path class="cls-7" d="M192.89,33.1c-.86-7.62-.8-14.12-.18-20.61.25-2.64,2.08-3.19,4.11-1.33,1.43,1.31,2.43,3.01,3.75,4.44,1.67,1.81,3.01,1.68,4.13-.54.85-1.7,1.36-3.55,1.98-5.35.39-1.14.59-2.36,1.11-3.45.72-1.53,1.38-3.57,3.59-3.34,1.97.2,1.98,2.24,2.44,3.67.63,1.97,1.17,3.98,1.77,5.96.35,1.17.76,2.4,2.34,2.48,1.26.07,1.91-.84,2.49-1.75.95-1.47,1.91-2.94,2.89-4.4,1.02-1.53,2.34-2.93,4.41-2.24,1.85.62,1.9,2.72,1.77,4.02-.55,5.63-.79,11.31-2.31,16.85-.74,2.71-2.24,3-4.85,2.55-7.29-1.27-14.61-.98-21.92.06-2.39.34-4.62.92-7.52,2.96Z"></path><path class="cls-4" d="M158.49,486.27c-2.09-3.34-1.13-7.21-2.09-10.76-.18-.64.89-.91,1.54-1.17,4.22,2.16,8.05.89,11.81-1.13-3.74.47-7.45,1.03-11.22.47-1.56-1.23-2.68-2.59-2.84-4.67-.19-2.53-.63-5.06-1.24-7.54-1.2-4.9-2.03-9.66,2.45-13.65.54-.48.54-1.22.15-1.88,0,0,.02.1.02.1,1.73.38,1.88-2.02,3.86-1.74,1.86,2.83,2.42,6.5,4.94,9.19.55,1.31,1.63,2.16,2.83,2.92.26.71.51,1.43.77,2.14-3.59,1.91-7.35,3.33-11.51,3.76,4.79,1.97,8.77.49,12.39-2.65,3.07,2.85,2.56,6.75,2,9.91-.38,2.14.18,3.75.43,5.59.41,2.99,1.54,5.94.45,9-.48.27-.88.56-.6,1.17l-.05.03c-1.26-.35-2.56-.28-3.7.23-3.39,1.52-6.84,1.59-10.39.66Z"></path><path class="cls-4" d="M252.02,473.98c2.46,2.07,5.45,1.61,8.3,1.32,2.27-.23,3.09.61,2.9,2.55-.29,2.98.76,6.31-2.42,8.57-4.23,1.88-8.19-1.32-13.55-.75,5.13,2.04,8.99,4.4,13.59,1.74,2.37,4.02.88,7.72-1.06,11.39-3.3,1.29-6.59,1.82-9.93.08-1.42-.74-2.94-1.31-4.42-1.96-1.45-1.23-1.18-2.81-.8-4.27,1.33-5.09,2.03-10.24,2.31-15.47.09-1.79.3-3.85,2.98-4.17l-.09-.06c.27,1.28,1.29,1.16,2.29,1.09l-.08-.05Z"></path><path class="cls-4" d="M250.79,454.86s.11-.03.11-.03c1.88.83,2.74-.55,3.43-1.64,1.3-2.04,2.39-4.2,3.47-6.35.76-1.52,1.11-3.28,3.12-3.91,0,0,0-.08,0-.08-.52,2.75,1.66,4.41,3.14,6.19,2.05,2.48,2.82,5.07,2.31,8.09-.71,4.2-1.33,8.42-2.14,12.6-.57,2.97-1.84,3.81-5.21,4.15-2.34.24-4.68-.64-7,.09,0,0,.08.05.08.05-.18-1.45-1.27-1.21-2.29-1.09l.09.06c-2.59-2.83-3.16-9.85-.98-12.82.55-.75,1.33-.08,2-.04,4.91,3.81,8.14,4.29,11.31,1.28-4.17,1.37-7.3-1.64-11.07-1.91-.79-1.51.52-3.16-.36-4.66Z"></path><path class="cls-14" d="M80.52,289.94c-1.06.44-1.54.24-1.91-.15-5.68-6.14-10.68-12.57-11.38-21.12-.17-2.05.17-3.12,2.38-3.81,3.58-1.13,7.05-2.59,10.91-4.04v29.13Z"></path><path class="cls-4" d="M160.45,498.86c-3.27-3.34-2.1-7.36-1.95-11.22,5.15,1.75,9.85,1.07,14.08-2.25l.05-.03.44.14h.46c1.54,3.65,2.77,7.33,1.3,11.28-4.52,2.38-9.06,4.57-14.38,2.08Z"></path><path class="cls-12" d="M209.08,436.79v-16.19c2.27,3.82,2.53,6.59,2.06,17.2-.69-.34-1.37-.68-2.06-1.02Z"></path><path class="cls-15" d="M160.45,498.86c5.32,2.49,9.86.3,14.38-2.08.37.64.74,1.28,1.11,1.91-.53.1-1.18.06-1.58.33-4.68,3.16-9.69,3.64-15.03,1.74.37-.63.74-1.26,1.12-1.9Z"></path><path class="cls-15" d="M245.41,496.91c1.48.65,3,1.22,4.42,1.96,3.35,1.74,6.64,1.21,9.93-.08,0,.35,0,.71.01,1.06-2.29,2.85-5.2,2.15-8.25,1.42-2.3-.55-4.47-1.15-6.12-2.85,0-.5,0-1.01,0-1.51Z"></path><path class="cls-2" d="M170.35,459.68c-3.62,3.14-7.61,4.62-12.39,2.65,4.16-.43,7.92-1.86,11.51-3.76.29.37.59.74.88,1.12Z"></path><path class="cls-18" d="M172.58,485.39c-4.22,3.32-8.93,4-14.08,2.25,0-.45,0-.91,0-1.36,3.55.93,7,.86,10.39-.66,1.13-.51,2.43-.57,3.7-.23Z"></path><path class="cls-2" d="M260.82,487.4c-4.6,2.67-8.46.3-13.59-1.74,5.36-.57,9.32,2.63,13.55.75.04.33.05.66.03.99Z"></path><path class="cls-2" d="M168.7,456.43c-1.2-.76-2.28-1.61-2.83-2.92.97-.07,1.93-.13,2.9-.2.73.35,1.33.82,1.62,1.57-.28.79-.84,1.31-1.69,1.55Z"></path><path class="cls-18" d="M173.53,485.49h-.46s-.44-.13-.44-.13c-.29-.61.12-.91.6-1.17.1.44.21.87.31,1.31Z"></path><path class="cls-1" d="M242.13,82.09c9.31,1.92,15.79,7.66,21.64,14.18,8.62,9.6,12.27,21.01,13.24,33.27.59,7.38,1.1,14.81-.77,22.12-2.54,9.94-6.08,19.68-12.62,27.85-7,8.74-16.16,15.43-27.16,19.59-5.8,2.19-11.68,4.02-17.87,5.06-9.81,1.64-18.77-.79-27.77-4.18-15.41-5.82-24.44-16.75-28.5-31.27-2.18-7.79-1.9-16.04-2.04-24.13-.36-20.15,7.39-37.42,21.86-51.92,11.67-11.69,26.08-17.57,43.6-15.25,5.78.77,11.64,1.09,16.45,4.72-1.83.13-3.72.44-5.42-.38-5.95-2.88-12.34-3.08-18.81-2.82-11.24.46-21.37,4.26-29.58,11.12-9.28,7.75-15.44,17.88-20.14,28.64-5.76,13.21-7.17,27.22-5.36,41.11,3.18,24.32,16.99,35.42,39.21,42.22,5.93,1.82,11.92.11,17.74-1.01,13.56-2.61,25.93-7.63,35.71-17.13,4.95-4.81,9.48-9.86,12.47-16.19,6.38-13.5,7.37-27.56,5.94-41.9-.67-6.64-1.81-13.41-5.59-19.26-5.29-8.19-12.05-15.15-21.02-20.02-2.05-1.11-4.03-2.38-5.23-4.41Z"></path><path class="cls-1" d="M201.82,233.6c9.29-13.23,21.55-21.58,39.17-22.33,22.4-.95,37.48,9.14,48.58,26.35,4.95,7.68,7.12,16.19,7,24.66-.25,18.02-6.01,34.35-19.68,47.93-6.9,6.86-14.18,12.51-24.21,14.25-6.16,1.07-12.46.65-18.71.8-7.13.16-13.83-1.26-20.19-4.31-4.64-2.23-8.84-4.92-12.02-8.85-7.82-9.65-12.91-20.19-13.9-32.54-.78-9.76-.39-19.21,3.27-28.42.83-2.09,1.53-4.25,3.04-6.04.24.19.48.37.72.56-.5,1.65-.92,3.33-1.51,4.95-3.69,10.08-4.78,20.32-3.3,30.96,1.48,10.6,5.84,19.92,13.22,27.8,3.02,3.23,5.96,6.75,10.45,8.88,12.66,6.01,25.88,5.96,39.25,3.69,5.41-.92,10.43-3.47,14.65-6.88,8.15-6.59,14.81-14.37,19.47-23.48,5.61-10.96,7.06-22.76,6.57-34.71-.31-7.65-2.75-14.91-7.84-21.14-2.01-2.46-4.11-4.86-6.33-7.15-7.93-8.22-17.77-13.43-29.45-14.86-5.92-.72-12.06-1.13-18.02.6-8.42,2.44-15.74,6.47-21.69,12.64-2.46,2.55-5.12,4.92-7.69,7.37-.28-.25-.56-.49-.84-.74Z"></path><path class="cls-1" d="M281.47,405.35c.6,2.67,1.28,5.32,1.78,8,.6,3.21,2.37,5.68,4.93,7.79,3.71,3.05,6.51,2.9,9.83-.65,3.36-3.6,4.88-7.98,6.01-12.53.41-1.65.43-3.4,1.42-4.98,1.4,1.15.79,3.39,2.9,4.17,1.16.43.87,1.75.63,2.76-1.06,4.55-2.66,8.88-5.36,12.86-3.53,5.21-9.05,4.52-14.26,4.15-4.71-.33-6.75-3.65-7.73-7.6-1.14-4.58-2.66-9.15-.16-13.97Z"></path><path class="cls-1" d="M147.12,369.64c1.5,1,.95,2.05.79,2.99-1.6,9.02,2.25,16.4,7.93,23.22.66.79,1.59,1.44,2.51,1.98,2.81,1.66,4.43,1.53,6.89-.58,3.03-2.61,4.97-5.87,6.62-9.38,1.35-2.86,2.2-6.02,4.74-8.34.1,8.02-2.7,15.06-8.62,20.72-3.3,3.16-8.46,3.16-12.12.26-8.26-6.55-11.35-15.36-11.41-25.19-.01-2.04.6-4.31,2.68-5.69Z"></path><path class="cls-1" d="M196.43,361.61c-.64,4.58-1.2,9.11.41,13.65,1.81,5.11,5.05,9.16,9.5,12.34,4.05,2.89,6.98,2.1,9.21-2.26,2.43-4.74,2.53-9.99,3.38-15.06.39-2.29.6-4.58,2.63-6.33.39,7.68.61,15.35-2.47,22.57-2.71,6.38-7.83,7.76-14.17,4.33-8.92-4.83-14.19-19.09-10.41-28.19.19-.45.34-.98,1.91-1.04Z"></path><path class="cls-1" d="M281.99,377.9c.12,8.28-2.27,15.29-6.85,21.35-3.83,5.06-10.48,4.24-15.47-.39-6.17-5.72-9.45-13.03-7.63-21.57.11-.5.2-1.03.45-1.48.34-.59.79-1.25,1.68-.93.92.32.68,1.02.51,1.7-1.65,6.83,1.32,12.44,5.34,17.77.86,1.13,1.88,2.09,3.13,2.86,4.77,2.92,8.17,2.23,10.82-2.54,2.38-4.27,3.97-8.87,5.57-13.44.34-.96.55-1.98,2.43-3.32Z"></path><path class="cls-1" d="M243.77,410.61c-2.49,6.97-5.25,12.66-10.32,17.07-2.86,2.48-6.26,2.65-9.65.86-2.97-1.57-5.02-3.85-6.25-6.9-2.61-6.48-2.02-12.79.75-19.05.2-.46.58-.88.98-1.2.22-.18.66-.14,1.22-.24.65,1.9-.24,3.72-.74,5.38-1.25,4.17-.5,8.18.39,12.22.22.99.64,1.99,1.16,2.88,3.26,5.54,7.72,6.1,12.01,1.24,2.43-2.76,4.33-5.94,6.41-8.97.77-1.11,1.16-2.52,4.04-3.27Z"></path><path class="cls-1" d="M123.56,349.62c-.21,4.37-1.38,7.81-2.89,11.11-4.19,9.15-13.71,7.25-18.19,2.08-4.84-5.6-7.27-12.36-7.71-19.57-.14-2.2.1-4.78,3.33-6.84-2.15,8.63,1.04,15.4,5.31,21.9.58.88,1.22,1.74,1.95,2.5,3.64,3.74,8.67,3.49,11.57-.73,1.28-1.86,2.05-4.03,3.07-6.04.74-1.46.92-3.3,3.55-4.42Z"></path><path class="cls-1" d="M157.17,314.52c.53,6.96-1.78,12.33-6.56,16.17-4.29,3.45-9.46,1.88-13.94-.55-5.32-2.89-8.98-10.94-7.77-16.57.21-.97.34-2.08,2-2.39,1.13.86.41,2.05.44,3.14.14,5.78,2.77,10.32,8.19,13.1,5.02,2.57,8.72,1.58,11.74-2.9,1.17-1.73,1.95-3.69,2.94-5.52.7-1.31.93-2.9,2.96-4.47Z"></path><path class="cls-1" d="M138.84,405.19c1.8,1.24,1.66,2.71,1.51,4.04-.4,3.59-.85,7.2-2.06,10.64-2.76,7.88-10.66,9.76-17.26,4.03-4.22-3.66-6.16-8.45-6.99-13.7q-.69-4.41.87-7.45c1.14,3.49,1.28,6.98,2.65,10.18,1.31,3.05,2.67,6.06,5.3,8.35,4.96,4.32,10.28,3.22,12.37-2.8,1.47-4.23,2.36-8.63,3.6-13.3Z"></path><path class="cls-1" d="M290.68,331.09c2.85,1.37,2.17,3.2,2.7,4.54,1.16,2.91,2.25,5.83,4.9,7.9,2.61,2.04,4.24,2.03,6.66-.23,3.23-3.02,4.68-6.89,5.64-10.95.39-1.63.21-3.42,1.58-5.09,1.41,1.44,1.61,3.03,1.48,4.71-.37,4.75-2.18,9.07-5.09,12.86-3.24,4.23-8.95,4.57-12.88.84-4.08-3.86-5.45-8.65-4.99-14.58Z"></path><path class="cls-1" d="M96.57,286.94c1.99.8,1.66,1.67,1.51,2.49-1.05,5.67.65,10.89,3.13,15.95.77,1.57,1.95,2.86,3.6,3.79,3.62,2.03,5.67,1.91,8.93-.73,1.62-1.31,2.84-3.09,5.03-4.05-.26,4.65-3.41,8.3-7.78,9.31-3.98.92-9.41-1.31-11.71-5.14-4.03-6.74-4.78-13.9-2.71-21.62Z"></path><path class="cls-1" d="M254.74,200.49c6.35-4.66,12.16-9.78,16.67-16.11,4.44-6.25,8.33-12.79,12.09-20.41.32,12.98-16.41,34.01-28.75,36.53Z"></path><path class="cls-1" d="M166.53,100.22c-9.53,14.99-13.22,30.67-14.23,47.6-4.27-12.46,4.2-41.6,14.23-47.6Z"></path><path class="cls-1" d="M310.2,260.02c1.33,3.99,3.06,7.73,7.21,9.94,3.35,1.79,5.25,1.53,7.54-1.37,1.97-2.49,3.37-5.29,4.39-8.25.49-1.44,1.05-2.86,1.59-4.32.55.27,1.1.39,1.12.57.75,6.01-1.84,11.02-5.92,15.3-2.26,2.37-6.96,2.37-10.24.5-4.91-2.79-7.06-7.1-7.26-12.37.53,0,1.05,0,1.58,0Z"></path><path class="cls-1" d="M180.45,236.28c-1.7,4.52-3.82,8.9-5.8,13.3-3.51,7.82-4.61,15.83-4.17,24.16.05,1.01,0,2.03,0,3.35-6.22-8.19-.71-31.93,9.29-41.35.22.18.44.36.67.54Z"></path><path class="cls-1" d="M256.43,346.89c-.38,5.24-2.96,9.41-8.14,11.68-4.01,1.76-8.32,1.51-11.9-1.28-3.78-2.94-4.9-6.81-3.97-11.39,2.12.39,1.77,1.81,2.09,2.87,1.15,3.87,3.18,7.06,7.83,7.68,4.38.59,7.25-1.84,9.6-4.87,1.26-1.62,2.26-3.41,3.37-5.13.37.15.74.29,1.11.44Z"></path><path class="cls-19" d="M168.77,453.31c-.97.07-1.93.13-2.9.2-2.52-2.69-3.08-6.36-4.94-9.19-1.98-.29-2.13,2.11-3.86,1.74-1.24-1.04-.27-1.95.41-2.57,2.68-2.43,2.19-5.11,1.16-8.01-.69-1.93-1.71-3.8-1.65-5.92.43,0,.87-.02,1.3-.03,2.1,3.77,3.14,7.9,4.57,11.9,1.5,4.18,3.19,8.26,5.91,11.89Z"></path><path class="cls-1" d="M160.17,81.14c-5.07,6.45-9.68,12.04-13.16,19.13-.7-4.2-.21-5.44,3.9-11.08,3.74-5.13,4.53-5.86,9.26-8.05Z"></path><path class="cls-19" d="M260.93,442.94c-2.02.62-2.36,2.39-3.12,3.91-1.08,2.15-2.17,4.31-3.47,6.35-.69,1.09-1.55,2.47-3.43,1.64,4.45-7.33,6.81-15.5,10.26-23.99,1.49,1.92.83,3.13.39,4.24-1.03,2.58-1.23,5.18-.62,7.86Z"></path><path class="cls-12" d="M133.78,127.86c-1.78,5.01-3.56,10.03-5.59,15.77-.56-5.52,1.11-10.53,5.59-15.77Z"></path><path class="cls-12" d="M155.87,229.7c-.31,2.74-.79,4.42-2.7,6.08-.6-2.58.53-4.03,2.7-6.08Z"></path><path class="cls-12" d="M158.29,429.52c-.43,0-.87.02-1.3.03-1.48-2-.98-4.16-.51-6.34.68,2.1,2.05,4,1.81,6.31Z"></path><path class="cls-11" d="M194.16,245.1c.62-2,1.78-3.71,3.22-5.28.27.23.54.45.82.67-.49,2.07-1.62,3.78-3.31,5.17-.24-.19-.48-.37-.72-.56Z"></path><path class="cls-12" d="M262.08,428.52c-.29-1.99,1-3.53,1.62-5.29.44,1.84.89,3.65-.47,5.3-.38,0-.77,0-1.15-.01Z"></path><path class="cls-11" d="M199.75,236.79c.44-1.21,1.06-2.31,2.08-3.19.28.24.56.49.84.73-.39,1.26-1.04,2.34-2.27,3.05-.22-.2-.43-.4-.65-.6Z"></path><path class="cls-6" d="M286.21,153.04c-.62-.19-.77-.64-.56-1.15.2-.48.61-.89,1.19-.69.22.07.38.57.37.87-.02.54-.33.95-1,.96Z"></path><path class="cls-11" d="M197.38,239.82c.5-1.21,1.29-2.22,2.37-3.03.21.2.43.4.64.6-.36,1.26-1.12,2.28-2.2,3.1-.28-.22-.55-.44-.82-.67Z"></path><path class="cls-12" d="M168.05,98.84c-.36.56-.72,1.16-1.58.84-.43-.16-.44-.5-.19-.86.37-.54.7-1.18,1.57-.85.42.16.45.52.2.87Z"></path><path class="cls-12" d="M310.2,260.02c-.53,0-1.05,0-1.58,0-.17-.65-.25-1.62.4-1.7,1.14-.14,1.27.83,1.17,1.71Z"></path><path class="cls-12" d="M174.3,292.28c.1.3.23.59.27.9.01.1-.23.22-.36.34-.1-.3-.24-.6-.28-.91-.01-.09.24-.21.38-.32Z"></path><path class="cls-12" d="M173.22,289.37c.09.28.21.57.24.86.01.11-.19.24-.29.37-.09-.29-.22-.57-.26-.87-.01-.11.2-.24.31-.36Z"></path><path class="cls-12" d="M179.78,235.75c.36-.33.72-.66,1.08-.99.66.7.3,1.15-.41,1.53-.23-.17-.45-.35-.67-.54Z"></path><path class="cls-19" d="M262.08,428.52c.38,0,.77,0,1.15.01.02.8-.08,2.06-.84,1.97-1.01-.12-.56-1.24-.31-1.98Z"></path><path class="cls-15" d="M106.1,205.79c-5.96-1.44-10.99,2.48-16.2,6-1.22.83-2.56,2.78-4.09,1-1.28-1.48.55-2.77,1.54-3.94.45-.53.98-1.04,1.58-1.42,6.67-4.2,13.27-8.51,20.53-11.79,1.12-.51,2.44-.79,3.68-.87,3.16-.2,6.03,1.42,6.63,3.57.76,2.7-1.14,5.74-4.33,6.9-.68.25-1.4.5-2.12.52-2,.07-4.01.02-7.22.02Z"></path><path class="cls-15" d="M68.04,241.22c10.66-7.73,22.63-13.33,34.79-18.58,5.99-2.59,12.09-4.96,18.42-6.74,3.01-.85,6.03-1.56,9.2-1.13,1.38.19,2.83.4,3.61,2.01-21.97,2.88-40.41,13.17-59.34,22.34-1.95.95-3.85,1.99-5.77,2.98-.3-.29-.61-.59-.91-.88Z"></path><path class="cls-3" d="M68.96,242.1c-1.1,1.38-2.47,2.33-4.36,2.49l-.35-.33c.64-1.7,2.11-2.5,3.8-3.05.3.29.61.59.91.88Z"></path><path class="cls-14" d="M84.17,130.67c-.07-2.79.41-5.58,1.48-8.08,3.44-8.12,7.02-16.21,12.62-23.33,2.41-3.07,5.68-4.85,9.58-5.53,5.33-.92,8.74,2.42,7.35,7.24-1.02,3.55-3.42,6.42-6.06,9.07-.89.89-1.8.98-2.83.1-.81-.69-1.65-1.44-2.63-1.83-2.21-.87-4.37-.63-5.98,1.19-1.47,1.66-1.35,3.51-.09,5.24.61.84,1.35,1.64,2.19,2.28,1.31,1,1.7,2.14,1.15,3.62-1.8,4.85-3.42,9.78-5.45,14.55-1.06,2.5-2.48,5.24-6.22,4.83-2.42-.26-4.46-3.24-4.94-6.8-.11-.85-.11-1.71-.16-2.57ZM94.16,125.56c.07-.93-.19-2.28-1.86-2.85-1.16-.4-2.42-.05-2.82.97-.82,2.06-1.71,4.17-1.34,6.44.14.84.58,1.76,1.47,2.05,1.25.41,2.05-.52,2.68-1.34,1.08-1.41,1.83-2.97,1.86-5.29Z"></path><path class="cls-19" d="M158.53,473.7c3.77.56,7.48,0,11.22-.47-3.76,2.02-7.59,3.29-11.81,1.13.2-.21.4-.43.59-.66Z"></path><path class="cls-19" d="M249.8,472.94c1.03-.12,2.12-.36,2.29,1.09-1,.07-2.02.19-2.29-1.09Z"></path><path class="cls-2" d="M251.15,459.51c3.78.28,6.91,3.28,11.07,1.91-3.16,3.01-6.39,2.53-11.31-1.28-.12-.27-.05-.48.23-.63Z"></path><path class="cls-16" d="M242.13,82.09c1.2,2.03,3.17,3.3,5.23,4.41,8.98,4.87,15.73,11.83,21.02,20.02,3.78,5.85,4.92,12.62,5.59,19.26,1.44,14.34.44,28.4-5.94,41.9-2.99,6.34-7.52,11.38-12.47,16.19-9.78,9.5-22.16,14.52-35.71,17.13-5.82,1.12-11.81,2.82-17.74,1.01-22.22-6.8-36.03-17.9-39.21-42.22-1.82-13.89-.41-27.89,5.36-41.11,4.7-10.77,10.86-20.89,20.14-28.64,8.21-6.86,18.34-10.66,29.58-11.12,6.47-.26,12.86-.06,18.81,2.82,1.7.82,3.59.51,5.42.38l-.07-.04ZM169.36,151.91c-.51,6.61,1.34,14.49,4.5,22.05,3.34,7.98,8.94,14.59,17.68,17.4,7.87,2.53,16.03,3.72,24.8,2.79,11.66-1.25,21.47-4.69,29.73-12.66,9.01-8.69,16.12-18.14,18.55-30.35,1.67-8.35,2.09-16.57.92-25.06-1.87-13.47-8.09-24.52-19.08-33.19-5.75-4.54-12.59-6.98-20.08-7.7-23.96-2.3-42.74,14.13-48.87,28-5.23,11.83-8.22,24.18-8.14,38.7Z"></path><path class="cls-16" d="M198.2,240.49c1.08-.82,1.83-1.84,2.2-3.1,1.23-.71,1.89-1.79,2.27-3.05,2.57-2.45,5.24-4.82,7.69-7.37,5.95-6.17,13.26-10.2,21.69-12.64,5.97-1.73,12.11-1.33,18.02-.6,11.68,1.43,21.52,6.64,29.45,14.86,2.21,2.29,4.32,4.7,6.33,7.15,5.09,6.22,7.53,13.49,7.84,21.14.49,11.95-.96,23.75-6.57,34.71-4.66,9.11-11.32,16.9-19.47,23.48-4.22,3.41-9.24,5.96-14.65,6.88-13.37,2.27-26.59,2.32-39.25-3.69-4.48-2.13-7.43-5.65-10.45-8.88-7.37-7.88-11.74-17.2-13.22-27.8-1.48-10.64-.4-20.88,3.3-30.96.59-1.62,1.01-3.3,1.51-4.95,1.69-1.39,2.82-3.1,3.31-5.16ZM286.31,267.33c.22-11.41-1.08-18.63-4.72-27.09-1.59-3.68-3.66-7.14-6.75-9.94-9.01-8.18-19.5-13.61-32.29-13.41-5.53.09-11.14.49-16.44,3.28-8.81,4.64-14.87,11.57-20.32,19.13-9.36,12.98-12.26,27.44-9.96,42.75,1.56,10.37,6.41,19.33,15.53,25.82,4.27,3.04,9.26,4.85,14.15,6.82,10.16,4.1,20.42,3.71,30.37-.19,8.82-3.46,15.76-9.32,20.97-16.91,6.74-9.82,10.6-20.36,9.47-30.26Z"></path><path class="cls-17" d="M94.16,125.56c-.03,2.32-.78,3.88-1.86,5.29-.63.82-1.43,1.75-2.68,1.34-.89-.29-1.33-1.21-1.47-2.05-.38-2.28.52-4.39,1.34-6.44.41-1.02,1.66-1.37,2.82-.97,1.66.57,1.93,1.92,1.86,2.85Z"></path><path class="cls-17" d="M169.36,151.91c-.08-14.52,2.91-26.87,8.14-38.7,6.13-13.87,24.91-30.3,48.87-28,7.49.72,14.33,3.16,20.08,7.7,11,8.67,17.22,19.72,19.08,33.19,1.18,8.49.75,16.7-.92,25.06-2.43,12.21-9.55,21.66-18.55,30.35-8.25,7.97-18.07,11.41-29.73,12.66-8.76.94-16.92-.26-24.8-2.79-8.75-2.81-14.34-9.42-17.68-17.4-3.17-7.57-5.01-15.44-4.5-22.05ZM185.71,144.78c0,4.1-.05,7.19.01,10.29.11,4.88,2.38,8.95,5.68,12.56,2.09,2.29,4.86,3.33,7.91,2.28,2.9-1.01,3.88-3.6,3.98-6.28.16-4.47.17-8.95.02-13.42-.14-4.2.49-8.31,2.23-12.1,1.75-3.79,2.68-6.67-2.47-8.85-2.73-1.15-2.17-4.2-1.71-6.54.48-2.44,2.83-2.89,5.06-3.21,2.73-.39,4.98.84,7.28,1.91,1.09.5,2.15,1.43,3.47.27,2.29-2.01,4.61-4.03,5.67-6.88,2.07-5.55-1.39-10.48-7.66-11.07-5.36-.51-10.24.21-13.88,4.5-.89,1.05-2.2,1.81-3.39,2.6-2.92,1.94-5.01,4.45-6.64,7.43-4.74,8.67-6.19,17.91-5.56,26.52Z"></path><path class="cls-15" d="M286.31,267.33c1.13,9.89-2.73,20.44-9.47,30.26-5.21,7.59-12.16,13.46-20.97,16.91-9.95,3.9-20.21,4.29-30.37.19-4.89-1.97-9.88-3.79-14.15-6.82-9.12-6.49-13.97-15.45-15.53-25.82-2.3-15.32.6-29.78,9.96-42.75,5.45-7.56,11.51-14.49,20.32-19.13,5.31-2.8,10.91-3.19,16.44-3.28,12.8-.2,23.28,5.23,32.29,13.41,3.09,2.81,5.16,6.26,6.75,9.94,3.64,8.46,4.95,15.68,4.72,27.09ZM282.97,264.21c.63-4.88-.76-10.17-1.96-15.59-3.52-15.89-15.26-23.57-30.51-27.93-4.6-1.31-9.41-1.35-14.18-.5-11.14,1.98-19.26,8.28-25.74,16.46-10.15,12.81-14.62,27.27-12.56,43.24,1.11,8.59,4.66,16.33,11.09,22.58,6.04,5.87,14.27,8.39,22.2,11.01,3.32,1.09,7.2,1.48,10.89,1.02,11.44-1.44,20.88-6.41,28.1-14.78,8.72-10.11,13.56-21.58,12.67-35.5Z"></path><path class="cls-14" d="M185.71,144.78c-.63-8.61.81-17.84,5.56-26.52,1.63-2.98,3.73-5.49,6.64-7.43,1.19-.79,2.5-1.55,3.39-2.6,3.64-4.29,8.51-5,13.88-4.5,6.27.59,9.73,5.52,7.66,11.07-1.06,2.84-3.38,4.86-5.67,6.88-1.32,1.16-2.38.24-3.47-.27-2.31-1.07-4.55-2.3-7.28-1.91-2.23.32-4.59.77-5.06,3.21-.46,2.33-1.02,5.38,1.71,6.54,5.16,2.18,4.22,5.06,2.47,8.85-1.75,3.79-2.37,7.9-2.23,12.1.15,4.47.14,8.95-.02,13.42-.1,2.67-1.07,5.27-3.98,6.28-3.05,1.05-5.82.01-7.91-2.28-3.3-3.61-5.57-7.68-5.68-12.56-.07-3.1-.01-6.2-.01-10.29ZM194.2,155.52c.92-4.45-.67-7.53-.8-10.77-.04-1.02,0-2.25-1.39-2.43-1.52-.2-2.19.85-2.64,2.08-1.2,3.35-.94,6.68-.07,10.03.56,2.15,1.04,5.08,3.85,4.77,2.61-.29.85-3.17,1.04-3.68Z"></path><path class="cls-17" d="M282.97,264.21c.89,13.92-3.95,25.39-12.67,35.5-7.22,8.38-16.66,13.34-28.1,14.78-3.69.47-7.58.08-10.89-1.02-7.93-2.61-16.16-5.13-22.2-11.01-6.43-6.25-9.98-13.99-11.09-22.58-2.06-15.97,2.41-30.42,12.56-43.24,6.48-8.18,14.6-14.48,25.74-16.46,4.78-.85,9.59-.82,14.18.5,15.25,4.36,26.99,12.04,30.51,27.93,1.2,5.42,2.59,10.71,1.96,15.59ZM240.39,257.23c-2.48-1.73-5.18-3.05-6.47-5.62-.91-1.83-2.23-3.77-.52-5.78,1.8-2.11,4.3-1.75,6.59-1.06,1.71.52,3.28,1.52,4.85,2.41,1.51.87,2.44.44,2.9-1.01.37-1.14.77-2.33.79-3.5.06-4.48-3.72-9.31-8.51-11.08-4.98-1.84-9.96-.88-13.65,2.67-2.07,1.99-3.62,4.33-4.98,6.78-6.79,12.19-8.14,25.24-6.69,38.65.45,4.17,2.64,7.85,5.43,11.14,1.8,2.13,4.18,3.26,7.06,3.6,4.47.53,7.17-1.3,7.4-5.54.15-2.73-.15-5.51-.6-8.22-.6-3.62-.38-7.15.19-10.76.75-4.75,3.57-8.54,6.23-12.67Z"></path><path class="cls-17" d="M194.2,155.52c-.19.51,1.57,3.39-1.04,3.68-2.81.32-3.29-2.61-3.85-4.77-.88-3.35-1.13-6.69.07-10.03.44-1.24,1.12-2.29,2.64-2.08,1.39.19,1.35,1.41,1.39,2.43.13,3.23,1.72,6.31.8,10.77Z"></path><path class="cls-14" d="M240.39,257.23c-2.66,4.13-5.48,7.92-6.23,12.67-.57,3.61-.79,7.13-.19,10.76.45,2.71.74,5.49.6,8.22-.23,4.24-2.94,6.07-7.4,5.54-2.87-.34-5.26-1.48-7.06-3.6-2.78-3.29-4.98-6.97-5.43-11.14-1.45-13.41-.1-26.46,6.69-38.65,1.37-2.45,2.91-4.79,4.98-6.78,3.69-3.55,8.66-4.51,13.65-2.67,4.79,1.77,8.57,6.6,8.51,11.08-.02,1.17-.42,2.36-.79,3.5-.46,1.45-1.39,1.88-2.9,1.01-1.56-.89-3.13-1.89-4.85-2.41-2.28-.69-4.78-1.06-6.59,1.06-1.71,2.01-.39,3.95.52,5.78,1.29,2.58,3.99,3.9,6.47,5.62ZM225.36,279.47c.28-3.44-.38-6.46-.88-9.5-.17-1.01-.06-2.19-1.45-2.43-1.52-.27-2.38.7-2.91,1.85-1.91,4.11-1.39,8.39-.58,12.59.29,1.47,1.8,2.56,3.27,3.31,1.17.59,2.33.21,2.5-1.02.23-1.68.06-3.41.06-4.79Z"></path><path class="cls-3" d="M225.36,279.47c0,1.38.17,3.11-.06,4.79-.17,1.23-1.33,1.61-2.5,1.02-1.47-.74-2.99-1.83-3.27-3.31-.81-4.2-1.33-8.47.58-12.59.54-1.15,1.4-2.12,2.91-1.85,1.39.24,1.28,1.42,1.45,2.43.5,3.04,1.16,6.06.88,9.5Z"></path><path class="cls-10" d="M72.19,237.71c-2.52,2.51-5.42,4.69-9.05,5.94,2.42-2.64,5.46-4.55,9.05-5.94Z"></path><g class="cls-20"><path class="cls-13" d="M250.26,61.27c8.49,3.84,16.08,8.88,22.97,14.9,8.78,7.67,16.57,16.11,22.82,25.71,7.19,11.04,12.48,22.97,17.95,34.8,5.69,12.33,9.86,25.09,13.66,38.06,3.26,11.11,4.09,22.28,4.98,33.55,1.44,18.18,2.61,36.37,3.63,54.57.89,16.02.61,31.91-1.15,47.84-.6,5.46-.44,11.01-.3,16.51.54,21.37-.29,42.74-4.75,63.67-2.68,12.55-5.5,25.24-10.24,37.37-1.13,2.91-2.48,5.75-3.47,8.69-3.49,10.41-11.59,16.4-21.92,20.25-9.67,3.61-17.71,1.68-24.84-5.54-1.27-1.28-1.86-3.49-4.33-3.54l.04.03c.15-2.28-1.41-3.36-3.35-4.17l.04.06c-2.13-3.43-1.35-6.84-.05-10.32,1.22-3.24,2.28-6.54,1.87-10.67-2.56,7.02-5.09,13.45-7.23,20-2.18,6.69-6.38,11.78-12.25,16.02-7.42,5.36-20.97,4.39-27.2-1.14-3.81-3.39-5.51-7.94-5.62-13.02-.15-7.44-.58-14.88-.88-22.32-.38,0-.76.02-1.15.02-.3,7.26-.51,14.52-.91,21.77-.63,11.64-6.98,17.22-17.68,18.03-11.28.85-21.15-5.08-25.64-15.02-1.78-3.95-3.11-8.09-4.61-12.15-1.42-3.87-2.79-7.76-4.25-11.84-.84,4.28.7,8.01,2.13,11.66,1.4,3.59,1.24,6.5-1.79,9.36-2.7,2.55-4.92,5.55-7.4,8.31-5.89,6.57-13.7,7.3-21.62,5.04-10.98-3.13-19.47-9.25-23.64-19.92-3.66-9.37-7.58-18.59-9.21-28.57-.93-5.74-3.4-11.24-4.85-16.92-1.93-7.55-2.52-15.3-3.17-23.01-.84-9.95-1.71-19.9-1.58-29.91.24-18.95-1.62-37.83-2.08-56.76-.14-6.02.17-12.05.29-18.07.08-3.6,1.52-5.79,5.66-6.98,7.2-2.08,14.46-3.9,21.77-5.54,1.94-.43,4-.42,6.01-.51,5.32-.23,10.65-.55,15.97-.55,4.57,0,8.39-1.54,11.17-4.72,4.22-4.83,9.33-8.76,14.01-13.13,8.37-7.83,11.53-17.31,10.69-28.18-.21-2.75-.21-5.51-.35-8.26-.05-1.03-.08-2.09-.37-3.07-.56-1.9-.6-4.68-3.67-4.22-2.79.42-2.14,3.01-1.76,4.7,1.49,6.62-.27,13.02-1.32,19.43-1.91,11.62-9.89,19.25-19.82,25.46-1.37.86-2.95,1.42-4.33,2.27-2.6,1.61-2.56,1.88.14,4.47,0,.32.04.63.09.94-5.29,2.75-10.77,3.01-16.09.37-1.84-.91-3.11-.33-4.62.08-6.68,1.82-13.26,3.98-20.26,4.55-.11-1.11.86-1.41,1.62-1.78,3.22-1.61,6.42-3.24,10.06-3.99,3.97-.82,7.59-2.48,10.92-4.64,1.44-.93,2.41-2.22,1.77-3.94-.73-1.98-2.53-2.34-4.47-2.1-1.26.16-2.49.52-3.71.88-10.17,2.95-19.43,7.91-29.28,11.57-.83.31-1.63.82-2.26,1.41-1.09,1.04-1.68,2.45-.85,3.74.77,1.2,2.39,1.03,3.48.46,4.07-2.14,8.49-1.46,12.8-1.68-4.72,2.76-10.26,3.47-15.31,5.47-14.33,5.69-28.8,11.08-43.21,16.58-.48.19-1.01.27-1.61.42-.63-1.15.39-1.48,1-1.91,17.24-12.29,35.01-23.83,54.62-32.63,5.94-2.66,12.11-4.92,18.35-6.91,3.96-1.26,8.28-1.27,12.48-1.32,1.66-.02,3.32-.02,4.9-.37,4.06-.9,4.65-2.23,2.95-6.26,0-.29.02-.58.03-.87,3.91-1.45,1.78-5.03,2.92-7.47.23-.49-.91-.87-1.61-1.09-2.51-.79-5.05-.47-7.63-.04-.43-1.22.58-1.54,1.14-1.99,4.99-4.05,5.68-9.13,3.53-14.55-2.27-5.72-6.65-9.44-13.39-10.05-2.92-.27-5.85-.15-8.74.6-26.65,6.89-49.78,19.27-67.96,39-6.33,6.87-11.68,14.54-17.66,21.71-3.72,4.47-4.15,9.41-3.17,14.67.69,3.69,2.93,5.3,6.98,5.05,2.78-.17,5.38-1,7.83-2.27,1.59-.83,3.22-1.6,4.83-2.4.44.39.89.78,1.33,1.17-5.79,5.19-12.74,8.55-20.09,11.35-8.32,3.18-17.4-1.48-16.04-12.37.62-4.98,2.54-9.64,5.07-14.08,7.75-13.61,19.02-24.35,31.62-33.96,14.95-11.41,30.99-21.42,46.8-31.73,4.03-2.63,8.39-4.83,12.61-7.2.79-.45,1.81-.81,1.48-1.85-.47-1.48-1.7-.8-2.71-.61-5.55,1.05-10.13,3.71-13.89,7.69-1.6-1.28-.72-2.38-.28-3.36,4.34-9.64,12.37-16.2,22.47-19.28,11.33-3.46,23.15-3.77,33.3,4.18-.06.53-.12,1.05-.18,1.58-5.88-1.7-11.92-1.86-17.97-1.45-2.64.18-5.04,1.24-5.94,3.89-.85,2.48.44,4.38,2.41,5.85,2.72,2.03,5.6,3.87,8.34,5.87,6.69,4.87,12.41,10.48,15.64,18.01,1.16,2.71,2.34,5.41,3.69,8.04.74,1.45,2.08,2.48,3.97,2.2,1.61-.23,2.57-1.37,3.05-2.7.82-2.29,1.01-4.64.85-7.1-.38-5.67-1.56-11.19-2.94-16.69.33,0,.63-.09.92-.24,2.01-.33,2.16-1.52,1.66-3.06-2.94-8.91-7.91-16.18-17.57-19.95-12.52-4.88-24.65-4.12-36.54,1.77-.47.23-.99.39-1.69.66-1.19-1.82.05-3.43.6-4.82,7.34-18.75,15.09-37.38,26.15-54.53,18.58-28.79,46.19-45.99,80.78-53.84,2.91-.66,5.87-.66,8.77-.19,7.24,1.17,14.31,2.95,20.94,6.01,0,.59.01,1.19.02,1.78-2.88-.5-5.74-1.06-8.63-1.48-1.91-.27-3.78.02-4.59,1.95-.73,1.73.41,2.97,1.76,3.96,2.6,1.9,5.36,3.58,8.24,5.11,11.36,6.05,22.34,12.56,30.91,22.07,2.5,2.77,5.7,4.84,8.93,6.83,1.79,1.1,3.79,1.64,5.58.13,1.69-1.42,1.79-3.32.98-5.22-.47-1.11-.98-2.23-1.67-3.23-4.34-6.25-9.65-11.67-16.09-16.08-3.69-2.53-7.39-5.06-11.08-7.58.51-.41,1.02-.83,1.53-1.24ZM199.12,238.28c-.73.01-1.04.42-1.11,1.04-1.73,1.78-3.54,3.52-3.27,6.23-1.74.38-1.95,1.9-2.45,3.1-2.36,5.61-3.96,11.3-4.45,17.42-1.16,14.69,1.7,28.29,10.05,40.89,6.29,9.49,15.22,15.27,26.75,17.37,9.27,1.68,18.74,1.37,27.96-.06,9.7-1.51,17.9-6.01,23.37-14.09.33-.31.66-.62.99-.92,8.62-7.43,13.68-16.85,16.72-27.22,1.74-5.94,2.73-12.15,2.59-18.31-.2-9.09-.96-18.19-7.21-25.87-.4-.96-.62-2.03-1.23-2.86-9.79-13.32-22.08-22.88-40.32-23.55-11.46-.42-22.43,1.02-31.67,8-5.38,4.06-10.76,8.27-13.63,14.48-1.57.63-2.17,1.77-1.98,3.33-.83-.1-1.07.37-1.11,1.03ZM98.15,288.9c-1.44-1.21-1.49-1.22-1.61-.73-1.76,7.36-.98,14.42,3.32,20.87,2.29,3.44,7.59,5.51,10.99,4.47,4.41-1.35,7.17-4.23,8.67-9.32-3.08,1.52-4.37,3.48-6.2,4.84-4.39,3.27-9.34,1.69-11.37-3.61.85-.86,1.62-.2,2.43.09,5.13,1.82,7.8.97,10.38-3.51,2.04-3.54,2.93-7.37,2.95-11.4.01-3.46-.12-6.86-1.93-10.02-1.66-2.91-4.39-4.06-7.7-4.13-3.29-.07-4.92,2.09-5.93,4.59-1.03,2.56-1.7,5.25-2.53,7.88-.49,0-.99-.01-1.48-.02ZM98.23,337.43c-3.74.52-3.26,3.53-3.21,5.64.19,7.23,2.66,13.98,7.48,19.56,4.62,5.34,14,7.05,18.05-2.04,1.46-3.27,2.77-6.64,2.76-10.23-1.22-.56-1.68.74-2.61.65-.61-3.04,1.38-5.57,1.88-8.4,1.33-7.53,1.76-14.65-6-19.85-3.02-2.02-6.4-3.04-8.35-.73-3.21,3.79-7.96,6.69-8.8,12.06-.18,1.16-.86,2.25-1.31,3.37l.1-.03ZM164.33,106.21c.15-2.97,2.03-5.09,4.02-7.13,1.23-1.27,2.5-2.46,1.46-4.36-.17-1.18.73-1.88,1.4-2.67,6.91-8.16,15.23-14.8,24.63-20.32,4.23-2.48,8.79-4.29,13.32-6.17,1.57-.65,3.02-1.56,2.86-3.39-.15-1.7-1.44-2.82-3.05-3.37-2.96-1-6.03-1.41-9.2-1.09-6.65.68-12.92,2.46-18.95,5.16-8.02,3.59-15.08,8.49-22.06,13.58-24.15,17.61-42.29,39.05-49.66,67.48-.61,2.33-1.73,4.88.53,6.79,2.06,1.73,4.5.49,6.78-.15,2.22-.62,4.41-1.71,6.68.25,1.14.98,2.88.8,4.11-.14,2.77-2.12,4.82-1.49,6.78,1.05.61.79,1.7,1.35,2.69,1.76,4.7,1.96,7.98,5.42,11.11,9.05.69.8,1.35,1.64,2.12,2.38,1.12,1.09,2.51,1.52,3.98.7,1.52-.85,1.54-2.29,1.08-3.66-.38-1.14-1.02-2.2-1.59-3.28-1.57-2.94-2.88-5.96-3.27-9.26,1.25-.15,2.64.19,3.65-.86,3.41.17,3.11-2.17,3.17-4.2.25-7.58,1.92-14.87,4.92-21.91.57,0,1.13,0,1.7,0-3.4,10.35-3.67,21-2.8,31.65.43,5.28.21,10.69,1.93,15.82,4.7,13.99,13.48,24.72,28.57,29.9,4.92,1.69,9.51,4.14,15.1,4.46,10.55.6,20.39-1.4,29.96-5.24,12.1-4.85,22.43-12.01,29.25-22.55,9.37-14.48,13.54-30.26,11.4-47.42-1.48-11.87-4.71-22.93-12.92-32.33-5.89-6.76-12.56-12.53-21.99-14.66l.1.08c-.57-.39-1.1-.85-1.71-1.16-7.55-3.83-15.88-3.48-24.05-3.76-3.47-.12-6.92.42-10.29,1.31-9.98,2.67-17.78,8.46-24.85,15.28-4.74,4.57-8.04,10.15-12.12,15.18-.37,0-.74-.02-1.1-.04.03-.5.09-1.01.09-1.51q.03-2.78-2.76-1.55c-.32.14-.67.2-1.01.3ZM255.29,199.95c2.45.7,4.23-.58,5.99-1.82,10.25-7.28,17.05-16.9,21.43-28.09.53-1.36,1.33-2.86.66-4.64-.76.88-1.36,2.25-2.12,2.33-5.11.54-7.1,4.49-9.82,7.6-5.69,6.5-10.26,13.87-17.37,19.24-1.37,1.04-1.67,2.22-.3,3.48.65.59,1.48,1.03,1.62,1.98-.19.18-1.08.18-.22.59.21.1.39-.37.13-.66ZM175.03,252.82c-.45-.03-.91-.06-1.36-.09,1.11-5.91,4.4-11.05,6.63-16.57,1.36-.43,1.76.34,2.43,1.32,2.65,3.84,4.64,3.93,7.44.34,7.63-9.77,15.71-19.06,27.69-24.53,1.52-.69,1.91-2.04,1.23-3.52-.6-1.31-1.87-1.72-3.2-1.4-1.76.42-3.54.95-5.16,1.71-3.13,1.47-5.99,2.01-9.28.04-2.1-1.26-4.76-1.76-7.23-2.41-5.21-1.36-9.64-3.96-13.7-7.21-1.14-.92-2.26-2.02-3.85-1.27-1.86.88-1.77,2.5-1.04,4.03,1.63,3.39.83,6.54-.35,9.93-1.57,4.51-3.31,9.09-1.42,14.07.87,2.28,1.64,3.54,4.58,3.08,2.8-.44,3.6.53,3.09,3.04-.2.98-.76,1.9-1.16,2.84-2.65.27-3.32,2.44-4.25,4.16-1.74,3.21-3.08,6.62-4.8,9.84-2.63,4.92-3.48,10.12-3.21,15.52.22,4.49-.74,9.27,3.4,12.92.56.49.49,1.62.66,2.47.53,2.7,1.04,5.4,1.55,8.1.85,4.54,3.72,7.98,7.13,11.01,1.57,1.4,3.76,2.56,6,1.25,2.14-1.25,2.13-3.31,1.79-5.51-1.86-12.05-6.29-23.68-6.56-36.02-.09-4.13-2.98-6.45-7.04-7.17ZM221.18,363.43c-.39-.37-.78-.74-1.17-1.11.57-2.16,1.06-4.34,1.74-6.48,1-3.16.15-5.73-2.41-7.92-4.62-3.95-8.86-8.23-12.78-12.8-1.66-1.94-3.78-3.39-6.67-2.76-3.02.65-3.72,3.02-4.28,5.44-1.02,4.43-.73,8.87-.29,13.35.33,3.38,1.23,6.83-.04,10.19-3.88,10.22-1.2,20.43,7.34,27.68,6.84,5.8,14.37,4.21,17.03-3.93,2.22-6.78,2.13-13.9,2.24-20.94,0-.24-.46-.48-.7-.72ZM300.1,415.59c.23.25.48.49.74.72-.26,1.83-1.67,3.07-2.8,4.36-3.05,3.48-6.29,3.59-9.95.61-2.59-2.1-4.36-4.62-4.98-7.81-.51-2.61-1.1-5.21-1.66-7.82-2.16,7.43-.35,14.16,4.11,20.74-2.27-.38-4.04-.75-5.84-.97-1.71-.21-3.42.06-4.48,1.44-2.25,2.95-4.31,5.97-3.37,9.93,1.02,4.27,2.75,8.2,5.74,11.59,1.82,2.07,4.21,3.32,7,3.83,6.83,1.25,19-3.98,22.51-9.63,2.1-3.38,1.54-6.22-1.95-8.52-3.17-2.09-6.78-3.42-10.33-4.84-1.03-.41-2.53-.47-2.83-1.82.82-1.02,1.82-.83,2.64-.75,4.98.53,8.07-1.91,10.01-5.79,2.3-4.62,5.14-9.16,3.68-14.67-.19-.73.3-1.67.63-2.45,4.96-11.68,1.4-22.66-3.16-33.53-1.05-2.52-2.92-4.5-6.04-4.65-3.37-.16-5.38,1.86-6.9,4.37-2.01,3.31-3.42,6.86-4.51,10.51-.99,3.31-1.54,6.77-2.89,9.93-2.63,6.14-2.23,12.18.35,18.06,2.71,6.15,7.35,9.36,14.29,7.16ZM326.32,217.33c-1.13-8.5-1.61-18.8-1.85-29.11-.07-2.91-.62-5.82-1.17-8.7-3.98-21.02-11.39-40.89-22.77-59.42-3.34-5.44-7.7-10.06-12.67-14.2-1.78-1.48-3.93-3.35-6.32-1.78-2.43,1.6-1.17,4.19-.21,6.15,2.48,5.08,3.53,10.45,4.47,15.9,2.03,11.75,3.38,23.53,2.48,35.46-.39,5.17-.93,10.48-3.2,15.1-4.07,8.25-8.79,16.28-17,21.82-.88.59-1.64,1.39-2.31,2.2-1.98,2.39-1.61,4.61,1.46,5.08,7.15,1.09,10.69,5.91,14.81,10.63,4.31,4.94,8.75,9.62,10.6,15.97.66,2.27,2.62,3.02,5.18,2.88,6.19-.33,6.29-.06,9.1,5.2,2.42,4.51,3.28,9.48,5.24,14.1,1.2,2.85,3.22,5.25,6.82,5.2,3.66-.05,5.32-2.66,6.52-5.5.27-.64.43-1.31.62-1.98,1.31-4.57,1.31-9.15.37-13.8-.57-2.84-1.96-5.63-1.23-8.62.88-3.56.68-7.19,1.06-12.57ZM233.27,428.33c3.78-4.42,6.76-8.72,8.78-13.53.4-.95,1.27-2.45.9-2.83-2.29-2.36-.09-4.06.76-5.88,1.48-3.16,2.85-6.37,3.59-9.74,1.41-6.38.88-12.21-5.01-16.9-3.95-3.15-7.24-3.96-11.24-.96-7.14,5.34-12.26,11.9-12.23,20.96,0,1.78-.43,3.42-1.09,5.01-.96,2.28-1.59,4.69-1.6,7.04-.06,9.42,2.18,15.81,12.08,18.59-1.77,1.38-3.52,2.6-5.1,3.99-4.42,3.86-5.16,7.24-3.02,12.57,1.12,2.8,3.17,5.03,4.99,7.39,4.34,5.62,10.81,6.46,16.75,2.24,1.92-1.36,3.57-2.99,4.97-4.81,4.23-5.51,7.28-11.58,9.24-18.07,1.21-4.02,1.13-8.2.2-12.29-.48-2.11-1.6-3.83-4.25-4.15-2.35-.28-3.86.79-5,2.51-.87,1.31-1.54,2.76-2.5,4.01-2.55,3.33-5.46,6.13-11.22,4.86ZM204.55,422.31c-.12,0-.24,0-.35,0,0-4.3.32-8.63-.08-12.9-.5-5.32-4.28-7.79-9.6-6.12-4.51,1.42-9.02,1.32-13.6,1.41-10.1.19-14.87,5.32-13.44,14.61.27,1.74.52,3.27-.27,4.99-.47,1.01-.41,2.44-.06,3.54,2.11,6.62,4.59,13.14,9.17,18.64,4.4,5.28,13.06,6.81,18.33,3.15,5.99-4.17,9.97-9.6,9.91-16.99-.03-3.44,0-6.89,0-10.33ZM130.8,314.6c.36-.26.71-.51,1.07-.77,1.48,1.2,2.86,2.55,4.47,3.58,3.12,1.98,6.5,3.4,10.33,1.85,3.77-1.52,4.38-4.81,4.83-8.13.05-.34.05-.69.06-1.03.16-5.01,1.2-9.91,1.88-14.86.71-5.09,2.09-10.17.66-15.38-1.47-5.37-4.63-8.23-10.62-9.06-5.26-.72-9.67,1.04-12.12,5.4-5.67,10.09-7.82,20.63-2.87,31.6.82,1.82,1.26,3.43.77,5.43-1.59,6.4,1.28,11.49,6.04,15.71,3.93,3.49,10.4,4.32,14.37,2.27,4.54-2.34,8.11-10.72,6.65-16.01-1.68,3.23-3.04,6.41-4.9,9.32-2.98,4.64-6.54,5.59-11.68,3.19-5.81-2.71-7.97-7.62-8.93-13.12ZM256.44,364.49c-.31,7.88.59,12.69,2.94,17.05,1.73,3.22,3.94,5.85,8.23,5.97,4.1.11,6.31-2.37,8.09-5.32,2.81-4.66,5.27-9.53,6.57-14.73,2.52-10.03,3.26-20.03-1.8-29.76-3-5.78-6.89-6.68-11.99-2.22-4.36,3.82-7.65,8.37-9.53,13.71-1.85,5.27-2.67,10.71-2.51,15.3ZM177.37,355.67c.04-2.41.17-4.82-.36-7.2-1.09-4.91-4.83-7.66-10.05-7.86-6.3-.25-10.59,2.47-13.11,7.63-4.66,9.52-5.82,19.46-3.25,29.69.81,3.23,2.42,6.12,5.26,8.28,4.12,3.13,8.87,3.13,12.29-.59,6.37-6.92,11.32-14.43,9.28-24.29-.38-1.82-.05-3.77-.05-5.66ZM117.69,411.55c2.26,1.52,3.82,3.69,6.22,5.04,4.53,2.54,8.01,1.66,10.45-2.76.5-.91.87-1.9,1.16-2.89,2.3-7.85,3.36-15.84,2.49-23.97-.24-2.21-.61-4.43-1.67-6.49-2.52-4.91-7.09-6.46-12.34-4.1-3.91,1.75-6.07,4.86-7.47,8.54-1.49,3.93-1.95,8.08-2.27,12.16-.46,5.77-1.25,11.63.94,17.32,1.38,3.59,2.99,7.06,6.12,9.63,4.74,3.9,11.89,4.01,14.67-.12,3.61-5.37,4.47-11.46,3.62-17.73-.02-.18-.52-.3-.89-.51-.44,1.87-.83,3.71-1.31,5.54-.65,2.5-1.23,5.02-2.05,7.47-1.96,5.84-6.55,7.15-12.38,2.82-3.18-2.36-4.81-5.91-5.28-9.96ZM311.47,316.42c-.74-6.04-1.05-12.4-3.64-18.37-1-2.32-2.56-4.19-5.61-4.24-2.9-.05-4.85,1.25-6.06,3.65-1.97,3.88-4.44,7.48-6.88,11.11-1.37,2.03-2.59,4.37-1.48,6.81,2.65,5.83,4.78,11.88,8.1,17.44,1.52,2.55,3.67,4.28,7.07,3.97,3.23-.3,4.59-2.5,5.68-4.96,2.16-4.85,2.26-10.02,2.83-15.41ZM162.41,311.06c.07,5.43,2.37,10.41,3.68,15.59.59,2.34,1.4,4.64,2.75,6.73,3.95,6.1,9.56,6.37,13.98.63,3.18-4.13,4.93-8.79,5.76-13.82.68-4.1-.43-7.56-3.84-10.18-3.84-2.94-7.82-5.72-11.78-8.51-.86-.61-1.91-1.06-2.94-1.38-2.79-.86-4.91-.13-5.72,2.42-.89,2.76-2.19,5.5-1.89,8.52ZM124.96,429.61c-7.98-.27-11.23,1.98-10.67,7.12.5,4.62,2.02,9.03,6.17,12.21,9.82,7.52,28.69,1.22,31.55-10.52.57-2.35-.22-4.07-2.1-5.4-1.93-1.37-4.16-2.29-6.61-2.25-6.61.1-13.18-.11-18.35-1.15ZM256.71,335.94c-.08-3.81-1.1-5.47-4.2-6.9-4.42-2.05-9-2.62-13.83-1.15-5.67,1.72-8.25,6.02-6.05,11.08,1.52,3.5,3.72,6.71,6.77,9.28,2.73,2.3,6.13,2.72,9.06.8,5.1-3.35,7.54-8.21,8.24-13.1ZM147.72,369.32c-2.59,3.31-3.12,3.79-3.13,5.96-.05,9.72,3.08,18.37,11.03,24.88,4.55,3.73,10.24,2.86,14.06-1.69,3.83-4.55,5.86-9.91,7.13-15.51.23-1.03.77-2.28-.43-3.37-1.81,1.03-1.94,2.88-2.62,4.39-1.8,3.96-3.46,7.98-6.39,11.39-4.12,4.8-7.09,4.92-11.75.43-.89-.86-1.88-1.74-2.44-2.79-3.62-6.76-7.7-13.46-5.11-21.53.14-.43-.15-.98-.37-2.16ZM254.73,374.88c-2.43.28-2.39,1.77-2.65,3.06-1.5,7.35,1.45,13.58,5.98,19.19,6.28,7.78,15.05,6.85,19.48-1.9,1.09-2.17,2-4.44,2.75-6.73,1.02-3.16,2.33-6.33,1.18-10.21-1.81,1.93-2.04,4.03-2.84,5.88-1.44,3.34-2.6,6.82-4.29,10.04-2.97,5.67-7.23,6.38-12.37,2.31-.83-.65-1.5-1.5-2.16-2.31-4.58-5.7-6.8-12-5.07-19.32ZM291.14,331.6c-.52,4.84.81,9.61,3.49,12.78,4.3,5.09,11.02,4.82,14.58-.72,2.09-3.25,3.62-6.75,4.08-10.59.23-1.91.3-3.75-1.31-5.62-.45,1.86-.9,3.49-1.24,5.14-.64,3.08-1.87,5.95-3.65,8.57-3.6,5.31-7.85,5.27-11.34-.05-1.25-1.91-2.07-4.01-2.75-6.16-.33-1.06.22-2.49-1.85-3.33ZM330.83,256.22c-1.24,4.33-2.78,8.38-5.4,11.95-2.48,3.38-4.68,3.71-8.41,1.69-2.87-1.56-4.33-4.08-5.78-6.71-.8-1.45-.42-3.37-2.04-4.8-1.18,6.43,3.11,13.4,8.97,14.8,3.16.75,6.31.61,8.6-1.98,3.36-3.81,5-8.31,5.59-13.17.07-.61-.04-1.4-1.52-1.79ZM256.09,345.66c-1.98,2.95-3.11,4.89-4.51,6.66-2.28,2.89-5.28,5.03-9.28,4.45-4.2-.62-6.49-3.53-7.8-7.19-.42-1.17.15-2.83-1.74-3.43-1.13,7.25,2.59,12.51,9.18,13.11,7.68.71,13.23-4.22,14.13-13.59Z"></path><path class="cls-10" d="M141.76,511.25c4.39-1.66,8.84-3.18,13.13-5.04,2.1-.91,2.96.39,4.19,1.33.9-2.49-.91-5.24,1.03-7.54.85-1.02-.54-1.41-.7-2.11-.81-3.48-2.99-6.98-.07-10.47.31-.37.77-.5.14-1.05-3.88-3.36-2.79-7.81-2.65-11.92.07-1.99-1.17-3.49-1.21-5.39-.05-2.21-.61-4.41-1.04-6.61q-1.94-10.06,5.5-18.32c1.59-.04,1.47,1.27,1.85,2.13,1.62,3.65,3.18,7.34,6.51,10.01,1.15.92,1.1,2.06.86,3.27-1.7.24-3.16-.49-4.73-.89-3.09-.77-5.46,2.1-4.52,5.1.3.96.3,2.02.35,3.04.08,1.54-.35,3.26.24,4.6.89,2-3,2.32-1.49,3.44,1.51,1.12,2.07,2.14,2.22,3.75.63,6.66,1.38,13.3,2.2,19.94.41,3.31,1.71,3.32,4.08,3.51,3.02.24,4.44-2.09,6.46-3.44.38-.26.34-.59.04-.82-3.08-2.33-1.73-5.71-1.86-8.51-.3-6.75-1.49-13.32-2.86-19.91-.68-3.23-2.56-6.56-.19-9.89,1.37.1,2.48.48,2.66,1.99.26,2.22,1.06,4.51.7,6.64-.67,4.04.84,7.82.91,11.73.07,4.11,1.19,8.05,1.86,12.06.55,3.3-.67,6.83,1.53,9.91.4.56.51,1.3,1.7,1.62.7-4.71,4.71-5.2,8.67-5.69,1.9-.24,3.83-.01,4.84,1.72,1.07,1.83.57,3.68-.78,5.29-.57.67-1.16,1.35-1.87,1.88-2.73,2.03-5.64,3.86-8.22,6.04-2.56,2.15-4.81,4.63-7.05,6.82-2-.6-2.09-1.96-2.66-2.93-1.79-3-3.73-3.38-6.32-.9-2.41,2.32-4.58,4.85-7.76,8.25.21-3.05.23-4.85-2-6.1-2.02-1.13-3.51-.35-5.15.15-9.47,2.85-18.25,7.22-27.26,11.07-1.67.71-3.24,1.6-5.12,1.8-3.36.35-6.74-1.26-7.79-3.75-.98-2.33.24-4.84,3.68-6.73,5.9-3.23,12.35-5.06,19.1-5.98l-.05-.08c-3.37,1.29-6.73,2.63-10.12,3.85-2.15.77-4.61,1.96-4.18,4.06.44,2.13,3.49,1.94,5.54,2.39.68.15,1.47.01,2.18-.15,8.07-1.85,15.45-5.32,22.89-8.61,1.56-.69,2.61-1.99,1.88-3.8-.71-1.74-2.28-2.21-4.04-1.85-1.77.36-3.45,1.13-5.33,1l.08.07ZM162.45,500.34c-.11-.11-.2-.3-.31-.3-.11,0-.24.16-.36.24.17.1.33.2.5.3.06-.09.12-.18.17-.24Z"></path><path class="cls-10" d="M138.3,78.39c-2.03,3.58-4.7,5.73-6.95,8.15-11.29,12.14-18.41,26.44-24.95,41.11-5.24,11.76-9.79,23.74-14.3,35.75-.24.65-.43,1.33-.75,1.94-1.62,3.05-3.36,3.3-5.74.78-8.34-8.84-10.91-19.43-9.71-30.78,1.87-17.66,9.84-32.72,24.02-44.56,10.61-8.86,22.7-14.47,38.38-12.39ZM111.53,90.43c-6.37,1.57-12.72,3.48-16.77,9.33-1.99,2.87-3.89,5.79-6.43,8.35-8.67,8.72-10.16,19.57-9.46,30.8.28,4.51,4.99,7.93,9.93,8.29,2.06.15,3.62-.72,4.58-2.31.8-1.33,1.43-2.8,1.86-4.27,2.98-10.02,7.41-19.41,13.53-28.11,2.63-3.73,5.18-7.52,7.13-11.62.75-1.57,1.53-3.13,1.6-4.91.13-3.36-2.16-5.59-5.96-5.54Z"></path><path class="cls-10" d="M247.6,498.79c3.71,4.14,8.03,3.75,12.72,1.15,1.39,2.52.03,4.94.63,7.52,1.42-.35,1.9-2.4,4.21-1.41,11.01,4.74,22.71,7.76,34.17,11.4,2.62.83,5.15,1.83,7.45,3.29,2.95,1.86,4.21,4.37,3.31,6.42-.93,2.13-4.46,4.02-7.3,3.76-2.39-.22-4.57-1.07-7.05-2.69,2.39-.8,4.46-.15,6.43-.32,1.94-.17,3.78-.52,4.22-2.59.49-2.3-1.06-3.58-3.16-4.16-2.45-.68-4.97-1.17-7.49-1.63-6.48-1.16-12.97-2.12-19.08-4.75-4.08-1.76-4.66-1.23-5.34,3.29-3.77-.93-7.61-1.86-9.55,2.8-.44,1.06-1.51.75-2.28.18-1.29-.96-2.53-1.99-3.77-3.01-2.03-1.67-3.69-3.87-7-3.39-1.37.2-2.21-1.09-3.16-1.86-1.95-1.57-3.83-3.21-5.78-4.78-1.01-.81-2.51-1.69-3.44-.7-2.85,3.02-4.66.29-6.24-1.04-1.8-1.51-3.91-3.44-2.72-6.18.96-2.19,3.47-2.81,7.25-2.09,2.99.58,5.98,1.22,7.09,4.32,2.54-1.05,1.04-4.19,3.76-4.52l-.09-.08c.38,1.09,1.07,1.6,2.31,1.08l-.09-.05Z"></path><path class="cls-10" d="M79.44,290.64c-6.79-6.43-11.81-13.74-12.49-23.18-.09-1.17.41-1.95,1.6-2.39,3.24-1.21,6.46-2.48,9.69-3.7,1.68-.63,2.9-.44,2.9,1.62,0,9.07,0,18.14,0,27.21-.57.15-1.14.29-1.71.44Z"></path><path class="cls-10" d="M193.13,33.6c-1.43-7.66-1.24-14.16-.54-20.66.13-1.2.07-2.53,1.69-2.87,1.45-.3,2.45.56,3.26,1.52,1.02,1.21,1.85,2.58,2.95,3.73,1.91,2.01,3.22,1.79,4.44-.74.6-1.24.91-2.6,1.33-3.91.36-1.15.6-2.34,1.05-3.45.76-1.89,1.34-4.48,3.88-4.36,2.37.12,2.35,2.71,2.81,4.5.76,2.95,1.08,6.09,3.93,8.15,1.27.92.28,1.85-.04,2.73-.34.94-1.1,1.26-2.17,1.02-1.34-.31-1.63-1.2-1.65-2.32-.04-2.41-.1-4.81-.16-7.22-.04-1.57-.84-2.64-2.53-2.88-1.75-.25-2.98.79-3.31,2.14-.56,2.33-.69,4.76-.96,7.14-.3,2.68-2.17,3.82-4.76,2.81-.65-.26-1.15-.85-1.77-1.2-1.31-.74-2.38-2.7-4.21-1.4-1.48,1.05-.95,2.83-.78,4.36.08.68.15,1.37.32,2.04,1.26,5.19,4.26,6.99,9.62,5.27,2.7-.87,5.31-1.18,8.07-1.05.95.05,1.88.25,1.74,1.44-.11.91-.97.88-1.67.92-4.2.24-8.42,0-12.61.77-2.68.49-5.41.67-7.95,3.55Z"></path><path class="cls-10" d="M265.28,448.13c-.21.27-.68.67-.61.78,2.87,4.54,1.81,9.23.76,13.97-.52,2.34-.77,4.74-1.13,7.11-.16,1.03-.32,2.1-1.36,2.68-.76.43-1.69.99-2.47.89-.99-.12-1.26-1.25-1.1-2.08.59-3.02-1.67-6.44,1.76-9.14.75-.59-1.33-.69-1.87-1.53-2.85-4.45-2.92-4.4-7.33-1.58-.28.18-.7.17-1.05.25,0,0,.09.07.09.07-.46-1.02-.5-2.03.41-2.83,3.29-2.9,5.26-6.55,6.61-10.48.72-2.08,2.17-2.28,4.02-2.2,0,0-.04-.06-.04-.06-.08,3.14.62,4.02,3.35,4.17l-.04-.03Z"></path><path class="cls-10" d="M167.06,526.72c-6.01,9.93-14.78,17.34-24.72,23.65-1.66,1.06-3.49,1.87-5.55,2.07-2.24.22-3.99-.63-5.17-2.31-1.23-1.75-1.21-3.75.27-5.27,4.37-4.46,9.13-8.51,14.78-11.55-.71,2.14-2.73,3.08-4.21,4.48-2.06,1.95-4.26,3.77-6.33,5.72-1.26,1.18-1.91,2.65-.76,4.16,1.29,1.71,3.14,2.36,5.31,1.54,2.27-.85,3.89-2.53,5.57-4.12,5.67-5.37,11.3-10.77,17.02-16.1,1.07-1,1.82-2.72,3.92-2.2,0,0-.1-.07-.1-.07Z"></path><path class="cls-10" d="M245.47,497.83c-1.05-1.85-1.38-3.78-.84-5.85,1.12-4.31,1.92-8.71,1.92-13.12,0-2.64,2.43-4.88,1.35-7.42-1.18-2.78-.08-5.39-.03-8.07.03-1.85.13-3.94,3.1-3.83,0,0-.09-.07-.09-.07,1.05,1.9,1.12,3.84.71,5.94-1.89,9.8-2.83,19.67-2.3,29.64.08,1.46.69,3.23-1.71,3.73,0,0,.09.05.09.05-.34-1.17-1.19-1.38-2.31-1.08l.09.08Z"></path><path class="cls-10" d="M285.21,543.23c3.8,1.78,4.86,3.48,3.78,6.02-1.09,2.57-4.09,3.74-7.34,2.81-.87-.25-1.75-.57-2.51-1.02-10.51-6.12-19.38-13.8-26.21-24.49,2.74.33,3.6,1.87,4.6,3.08,6.35,7.73,15.1,12.87,23.03,18.9,1.22.93,2.64,1.23,4.05.27,1.33-.9,1.84-2.09,1.27-3.59-.24-.64-.48-1.29-.72-1.93l.06-.05Z"></path><path class="cls-10" d="M257.49,499.08c1.8-7.17,1.65-13.95,1.77-20.71.01-.67.11-1.38.37-1.99.38-.88,1.26-1.19,2.22-1.16,1.24.04,1.35.97,1.37,1.8.04,1.36.2,2.78-.13,4.08-1.08,4.27-.88,8.64-1.4,12.95-.23,1.93-.31,4.2-4.2,5.02Z"></path><path class="cls-10" d="M223.12,9.59c.04-.92.62-1.58,1.31-2.14,2.94-2.38,4.68-1.95,4.87,1.74.35,6.67-.5,13.3-2.56,19.73-.35,1.11-1.27,1.86-2.48,1.27-1.42-.69-.62-1.76-.05-2.59,2.46-3.58,2.4-7.83,3.53-11.75,1.11-3.89-.03-4.96-4.61-6.26Z"></path><path class="cls-10" d="M130.71,223.89c-.01.29-.02.58-.03.87-6.06-.49-11.42,1.85-16.91,3.65-6.68,2.19-13.3,4.53-19.75,7.32,5.22-3.96,11.65-5.74,17.46-8.59,6.08-2.99,12.72-2.69,19.24-3.24Z"></path><path class="cls-10" d="M250.26,61.27c-.51.41-1.02.83-1.53,1.24-4.78-2.15-9.56-4.31-14.34-6.46,0-.59-.01-1.18-.02-1.78,5.57,1.79,11.15,3.55,15.89,7Z"></path><path class="cls-10" d="M151.29,182.21c-.28.15-.59.24-.92.24-1.95-3.27-3.69-6.63-4.21-10.41l-.08.08c3.03,2.78,3.41,6.75,5.2,10.09Z"></path><path class="cls-10" d="M139.28,166.54c.06-.53.12-1.05.18-1.58,3.42,1.41,5.61,3.81,6.64,7.16l.08-.08c-3.02-1.04-4.04-4.27-6.89-5.51Z"></path><path class="cls-10" d="M137.39,246.75c-.05-.31-.09-.62-.09-.94.98-.25,1.96-.5,3.14-.81-.7,1.44-1.91,1.52-3.04,1.75Z"></path><path class="cls-10" d="M169.22,523.58c.05,1.51-.75,2.51-2.16,3.14,0,0,.1.07.1.07-.61-1.83,1.05-2.31,2.13-3.14,0,0-.07-.07-.07-.07Z"></path><path class="cls-10" d="M132.92,514.38c.8-1.2,2.22-.66,3.31-1.04,0,0-.05-.08-.05-.08-.92.87-2.18.76-3.31,1.04l.04.08Z"></path><path class="cls-10" d="M136.22,513.35c.8-1.2,2.19-.74,3.31-1.04l-.05-.08c-.87.99-2.18.77-3.31,1.04l.05.08Z"></path><path class="cls-10" d="M284.07,542.22c-.17-.05-.39-.05-.52-.15-.54-.4-1.12-.8-1.01-1.56.01-.07.34-.18.49-.14.8.19,1.14.75,1.2,1.46.01.15-.15.3-.23.46,0,0,.07-.07.07-.07Z"></path><path class="cls-10" d="M139.54,512.31c.45-.89,1.4-.85,2.23-1.06l-.08-.07c-.34,1.06-1.4.81-2.2,1.04l.05.08Z"></path><path class="cls-10" d="M170.42,522.59c.15-.14.31-.29.46-.43-.04.09-.06.21-.13.25-.12.07-.27.08-.41.11l.07.07Z"></path><path class="cls-10" d="M170.35,522.53c-.08.63-.46.98-1.13,1.05,0,0,.07.07.07.07.38-.35.76-.7,1.13-1.05,0,0-.07-.07-.07-.07Z"></path><polygon class="cls-10" points="251.37 525.08 251.77 524.99 251.71 525.29 251.37 525.08"></polygon><path class="cls-10" d="M285.14,543.28c-.66-.09-1.02-.44-1.08-1.06,0,0-.06.07-.07.07.95-.3,1.29.08,1.2.94,0,0-.06.05-.06.05Z"></path><path class="cls-10" d="M221.18,363.43c-2.6,4.54-2.1,9.7-3.21,14.54-.58,2.53-1.07,5.06-2.28,7.4-2.28,4.42-5.51,5.29-9.68,2.27-5.92-4.28-9.42-10-10.33-17-.22-1.69-.03-3.42-.03-5.41,1.79.51,1.81,1.79,2.14,2.75.92,2.64,2.03,5.19,3.94,7.32,3.95,4.41,9.38,4.1,12.84-.7,1.45-2.01,2.4-4.25,3.15-6.56.64-1.95.98-4.01,2.3-5.72.39.37.78.74,1.17,1.11Z"></path><path class="cls-10" d="M158.31,108.98c-1.85,7.1-5.06,13.84-6.05,21.2-.59,4.44-.55,8.86-.75,13.3-.09,2.05,1.05,3.57,2.22,5.1-1.02,1.04-2.4.7-3.65.86-5.1-14.45-1.2-27.55,6.82-40.03.3-.46.82-.6,1.4-.41Z"></path><path class="cls-10" d="M159.35,114.14c.36-1.27.82-2.52,1.07-3.8.38-1.98-.94-1.61-2.18-1.27-.43-3.07,2.18-4.8,3.63-7,2-3.01,4.56-5.6,7.95-7.34,1.04,1.9-.23,3.09-1.46,4.36-1.99,2.05-3.87,4.17-4.02,7.14,0,0-.08,0-.08,0-1.56.06-1.63.7-.75,1.7-1.15,2.21-2.08,4.55-4.2,6.17l.05.06Z"></path><path class="cls-10" d="M103.13,356.16c-.34,0-.89.11-.98-.03-3.7-5.79-6.49-11.76-3.92-18.7,0,0-.1.03-.1.03.56,6.5,2.47,12.67,5.01,18.71Z"></path><path class="cls-10" d="M161.83,122.46c1.42-4.75,3.5-9.24,6.18-13.49.37.02.73.03,1.1.04-1.86,4.48-3.72,8.97-5.58,13.45-.57,0-1.13,0-1.7,0Z"></path><path class="cls-10" d="M100.83,304.54c-2.8-4.93-4.13-10.07-2.69-15.64.5,0,.99.01,1.49.02.07,4.92-.31,9.91,2.15,14.52-.32.37-.63.73-.95,1.1Z"></path><path class="cls-10" d="M175.03,252.82c-.62.45-1.23.91-1.85,1.36-.55-.69-.2-1.12.48-1.45.45.03.91.06,1.36.09Z"></path><path class="cls-10" d="M238.8,415.07c-1.59,3.96-4.39,7.1-7.58,9.99-2.08,1.88-4.27,1.82-6.44.25-2.06-1.48-3.87-3.21-4.58-5.66-1.11-3.78-1.72-7.59-.9-11.79,1.51,1.2,1.38,2.63,1.69,3.91,1.43,5.89,8.11,8.55,13.75,5.55,1.38-.73,2.17-2.46,4.15-2.19l-.09-.06Z"></path><path class="cls-10" d="M238.89,415.13c.07-.47.14-.93.21-1.4,1.18.7.07.94-.3,1.34,0,0,.09.06.09.06Z"></path><path class="cls-13" d="M300.1,415.59c.32-.28.71-.67,1.11-.28.39.38.04.75-.37.99-.26-.23-.51-.46-.74-.71Z"></path><path class="cls-10" d="M214.5,230.01c2.56.92,3.59-1.29,4.98-2.36,7.73-5.97,16.41-8.9,26.48-7.88,13.21,1.34,31.51,11.28,35.11,27.84,2.28,10.49,3.37,20.88.7,31.13-3.76,14.47-12.28,26.1-27.19,32.62-9.22,4.03-18.67,4.67-28.16.59-2.5-1.07-5.06-2.02-7.57-3.06-12.92-5.38-18.76-15.7-20.74-27.93-2.82-17.42,2.57-32.99,14.2-46.74,1.06-1.25,2.97-2.18,2.27-4.28,0,0-.09.09-.09.09ZM208.74,267.98c.11,2.23.14,4.48.35,6.7.97,10.08,4.45,19.12,12.49,26.26,2.84,2.52,5.88,4.74,9.79,5.52,6.01,1.19,12.13,1.33,18.02-.2,5.63-1.46,11.41-3.16,14.9-8.15,7.19-10.27,12.36-21.15,10.87-33.88-.36-3.08-.61-6.18-1.24-9.21-2.36-11.39-8.1-20.42-19.68-25.85-9.62-4.51-24.78-4.05-33.48,6.3-7.99,9.51-12.25,20.28-12.03,32.5Z"></path><path class="cls-10" d="M197.93,239.25c1.03.28,1.14-.31,1.11-1.03.84.11,1.05-.39,1.11-1.02,1.5-.53,2.11-1.64,2.29-3.04,3.24-2.99,6.56-5.91,9.7-9,6.14-6.04,13.8-10.11,22.28-11.38,12.14-1.81,24.05-.11,34.71,6.45,6.85,4.21,12.23,9.77,17.08,15.84.65.81,1.06,1.81,2.14,2.27,4.08,8.06,6.16,16.52,5.47,25.46-.68,8.75-1.82,17.44-5.5,25.63-.68,1.51-.98,3.31-2.78,4.26-.48-1.53.74-2.65.9-4,.2-1.68.62-3.3-2.31-2.41-1.58.49-1.36-.81-1.06-1.46,4.33-9.38,3.73-19.34,2.78-29.01-1.01-10.29-3.86-20.54-12.59-27.84-9.74-8.14-20.85-12.74-34.57-11.79-8.94.61-15.55,4.49-22.04,9.36-1.17.88-1.96,2.03-2.16,3.47,0,0,.09-.09.09-.09-5.35,3.18-8.09,8.34-11.12,13.2-8.45,13.59-10.21,28.27-6.49,43.34,3.08,12.45,11.04,21.56,24.11,26.3,1.8.65,3.79,1.15,5.5,2.76-2.14,1.05-3.83.47-5.5-.06-1.39-.45-2.7-1.12-4.11-1.48-3.89-1-4.57-.36-3.96,3.52-1.25.26-2.13-.51-2.85-1.17-10.56-9.69-18.48-20.59-20.19-34.93-1.27-10.65-.3-20.88,3.31-30.98.58-1.61,1.55-3.16,1.34-4.96,2.18-1.57,3.77-3.41,3.3-6.22Z"></path><path class="cls-10" d="M266.57,315.86c-8.1,5.65-17.12,8.39-27.49,6.68,4.85-.05,9.35-1.45,13.79-2.96,4.41-1.5,8.72-3.29,13.07-4.95.21.41.42.82.63,1.22Z"></path><path class="cls-10" d="M221.2,320.96c3.63.21,7.29.22,11.19,1.74-4.23.51-7.72-.41-11.12-1.81l-.07.07Z"></path><path class="cls-10" d="M275.84,308.17c-.35.33-.7.66-1.04.98-.61.13-1.22.25-1.83.38l.07.06c.94-1.19,1.31-2.93,3.36-3.03l-.08-.06c-.16.55-.32,1.11-.48,1.66Z"></path><path class="cls-10" d="M269.66,312.67c-.07.31-.05.68-.23.93-.37.51-.95,1.33-1.56.72-.67-.66.4-.98.87-1.31.26-.18.66-.18.99-.27,0,0-.07-.07-.07-.07Z"></path><path class="cls-10" d="M216.77,318.87c-.66.13-1.29.1-1.79-.38-.03-.02.14-.35.26-.37.74-.13,1.25.12,1.45.83,0,0,.08-.09.08-.09Z"></path><path class="cls-10" d="M221.27,320.89c-.82-.2-1.94.17-2.23-1.04l-.06.07c.85.13,1.64.39,2.22,1.04,0,0,.07-.07.07-.07Z"></path><path class="cls-10" d="M219.04,319.85c-.95.05-1.97.27-2.28-.98,0,0-.08.09-.08.09.96-.08,1.75.18,2.29.97,0,0,.06-.07.06-.07Z"></path><path class="cls-10" d="M276.4,306.57c-.17-.92.23-1.61,1.02-2.13,0,0-.07-.07-.07-.07.09.9-.05,1.69-1.02,2.14,0,0,.08.06.08.06Z"></path><path class="cls-10" d="M283.02,298.28c.01-.84.08-1.66,1.06-2.07l-.08-.07c-.03.84-.18,1.62-1.06,2.08,0,0,.07.07.07.07Z"></path><path class="cls-10" d="M269.73,312.74c.36-.35.72-.7,1.08-1.05l-.07-.07c-.03.65-.4.99-1.08,1.05,0,0,.07.07.07.07Z"></path><path class="cls-10" d="M270.81,311.69c.37-.35.73-.69,1.1-1.04,0,0-.07-.07-.07-.07-.04.64-.42.98-1.1,1.04,0,0,.07.07.07.07Z"></path><path class="cls-10" d="M272.96,309.53c-.06.65-.43,1-1.13,1.05,0,0,.07.07.07.07.38-.35.75-.7,1.13-1.05,0,0-.07-.06-.07-.06Z"></path><path class="cls-10" d="M278.47,303.36c-.08.62-.39,1.02-1.12,1,0,0,.07.07.07.07.37-.34.75-.67,1.12-1.01,0,0-.07-.06-.07-.06Z"></path><path class="cls-10" d="M279.62,302.38c-.38.33-.77.65-1.16.98,0,0,.07.06.07.06.38-.33.77-.65,1.15-.98l-.07-.06Z"></path><path class="cls-10" d="M279.69,302.45c.05-.13.1-.27.14-.4-.07.11-.14.22-.21.34,0,0,.07.06.07.06Z"></path><path class="cls-10" d="M281.77,299.22c-.05.14-.1.28-.15.43.07-.12.15-.24.22-.36l-.07-.07Z"></path><path class="cls-10" d="M281.85,299.29c.22-.51.51-.95,1.17-1.02,0,0-.07-.07-.07-.07-.23.5-.53.93-1.18,1.01,0,0,.07.07.07.07Z"></path><path class="cls-10" d="M284.08,296.2c.12-.3.25-.59.37-.89.74.7.08.72-.44.82l.08.07Z"></path><path class="cls-13" d="M242.04,82.08c1.49,1.77,3.3,3.23,5.38,4.34,8.64,4.66,14.96,11.47,20.51,19.06,2.9,3.97,3.98,8.54,4.83,13.05,2.4,12.75,3.14,25.56-.69,38.25-.45,1.49-.93,2.97-1.46,4.43-.29.81-.71,1.58-1.24,2.76-1.91-1.83-3.51-2.55-5.32.18-3.39,5.11-6.89,10.19-10.92,14.86-7.56,8.78-16.95,14.85-29.11,17.21-9.54,1.86-18.82,2.68-28.22-.13-.51-.15-1.24-.38-1.6-.17-6.28,3.62-10.68-1.21-14.03-4.06-9.1-7.74-15.51-17.47-17.15-29.21-1.05-7.49-.89-15.08-.06-22.62.54,0,1.08,0,1.62,0,.93.81,2.01,1.29,2.4-.28.75-3.01,1.31-6.06,1.85-9.11,2.06-11.51,7.31-21.54,15.7-30.14,2.97-3.04,6.41-5.68,8.73-9.27.9-1.4,2.5-2.02,3.98-2.66,3.33-1.44,6.7-2.8,10.07-4.15,1.69-.68,4.08-1.07,4.66-2.52,1.39-3.52,4.2-3.01,7.06-3.06,5.91-.12,11.79-.11,17.16,2.68,1.92.99,3.96.43,5.94.64,0,0-.1-.08-.1-.08ZM181.44,147.61c-.18,3.82.16,7.59,1.14,11.28,2.62,9.79,7.73,17.81,18.16,21.93,12.04,4.75,24.03,3.41,35.95-.4,1.33-.43,2.65-1.3,3.62-2.28,8.25-8.3,14.98-17.65,17.34-28.83,3.69-17.44-.86-33-14.32-46.01-5.71-5.52-12.39-9.08-20.53-10.06-9.87-1.19-18.27,1.87-24.44,9-11.39,13.16-16.33,28.61-16.92,45.38ZM267.92,152.38c.15.24.25.63.45.68.23.06.71-.1.8-.29.23-.48-.02-.89-.6-.9-.21,0-.43.32-.65.5Z"></path><path class="cls-10" d="M164.58,140.04c-.54,0-1.08,0-1.62,0-.56-2.75.83-5.12,1.62-8.18v8.19Z"></path><path class="cls-10" d="M186.99,91.46c.58-1.1,1.31-2.02,3.04-2.17-.15,2.05-1.29,2.5-3.13,2.09l.09.07Z"></path><path class="cls-10" d="M184.66,93.45c-.04.12-.08.24-.11.35.06-.09.13-.19.19-.28l-.07-.07Z"></path><path class="cls-10" d="M184.74,93.52c.38-.34.75-.68,1.13-1.02,0,0-.07-.07-.07-.07.04.75-.45.98-1.13,1.02,0,0,.07.07.07.07Z"></path><path class="cls-10" d="M186.9,91.39c.21.88-.33,1.07-1.1,1.04,0,0,.07.07.07.07.15-.56.52-.92,1.12-1.04,0,0-.09-.07-.09-.07Z"></path><path class="cls-10" d="M147.02,193.83c-.14.32.11,1.12-.49.89-.52-.2-.88-.96-1.1-1.54-.18-.45.16-1.01.76-.91.86.15.77.92.83,1.56Z"></path><path class="cls-10" d="M125.52,172.08c-.14.25-.25.68-.44.72-.84.15-1.28-.43-1.6-1.03-.06-.12.25-.57.46-.63.87-.24,1.29.28,1.58.95Z"></path><path class="cls-13" d="M120.78,350.93c-.05,3.4-1.95,6.19-3.63,8.99-1.4,2.32-3.51,4.15-6.68,3.52-3.06-.61-5.94-1.68-6.31-5.25,1.13-.96,1.97.05,2.91.37,4.05,1.38,5.81.85,8.44-2.37,1.56-1.91,2.18-4.67,5.26-5.25Z"></path><path class="cls-13" d="M104.21,358.23c-1.35-.26-1.73-.98-1.14-2.15,1.13.37,2.22.75,1.14,2.15Z"></path><path class="cls-10" d="M144.95,438.27c-.14.44-.47.59-.81.3-.22-.2-.38-.59-.35-.88.04-.41.48-.59.82-.33.23.18.24.6.35.91Z"></path><path class="cls-10" d="M171.98,256.74c.47,2.18.68,4.33-.99,6.68-1-2.7,1.14-4.54.99-6.68Z"></path><path class="cls-13" d="M100.83,304.54c.32-.37.63-.73.95-1.1.44.65,1.39,1.25.22,2.05-.94.28-1.04-.35-1.17-.95Z"></path><path class="cls-10" d="M159.29,114.08c-.07.27-.14.55-.21.82.02-.12.03-.25.07-.36.05-.14.13-.27.19-.4,0,0-.06-.06-.06-.06Z"></path><path class="cls-13" d="M163.5,107.91c-.88-1-.81-1.64.75-1.7.16.73-.27,1.22-.75,1.7Z"></path><path class="cls-10" d="M267.92,152.38c.22-.18.44-.5.65-.5.58,0,.83.42.6.9-.09.18-.57.35-.8.29-.2-.06-.3-.44-.45-.68Z"></path></g><path class="cls-8" d="M130.88,553.94c-3.43,1.37-5.9,5.34-10.9,3.6.27-3.31,2.92-4.82,4.98-6.59,1.64-1.42,2.84-2.76,3.5-4.96.64-2.14,2.5-4.2,4.35-5.74,5.51-4.56,11.32-8.79,16.92-13.25,2.17-1.73,4.08-3.74,6-5.52-1.72-2.43-3.24-1.63-4.77-.99-8.55,3.6-17.14,7.12-25.64,10.82-4.65,2.02-9.08,3.58-14.13.81-1.27-.7-3.48.05-5.25.21-2.23.19-4.45.46-6.47.67-.33-.91-.49-1.16-.43-1.22,6.03-6.04,10.67-13.59,19.7-16.41,10.28-3.22,20.62-6.27,30.93-9.41,2.24-.68,4.45-1.46,6.78-2.23-1.75-15.69-3.46-31.05-5.23-46.85-1.17.52-2.14.85-2.99,1.35-7.22,4.24-14.92,4.84-22.73,2.07-11.49-4.07-20.22-10.83-24.47-22.2-3.52-9.43-7.32-18.7-9.03-28.66-1.23-7.11-4.21-13.97-5.23-21.09-1.7-11.93-2.83-23.96-3.51-35.99-.75-13.24-.63-26.52-1.1-39.77-.19-5.15-.85-10.29-1.57-15.41-.19-1.38-1.07-3-2.18-3.89-8.32-6.69-13.41-14.93-14.41-25.95-1.9.63-3.57,1.1-5.17,1.73-5.76,2.26-11.37,4.96-17.28,6.78-7.65,2.35-15.45,4.53-23.36,5.82C6.57,283.55-.09,277.66,0,266.62c.05-6.6,2.72-12.42,5.95-18.08,7.97-13.96,19.56-24.96,32.87-34.38,10.7-7.58,21.74-14.73,32.63-22.08,1.49-1.01,2.9-2.12,4.42-3.09,2.84-1.8,4.45-3.98,5.1-7.41.75-3.97,2.95-7.7,4.58-11.69-.05-.12-.07-.53-.3-.74-11.47-10.51-13.93-23.72-11.62-37.7,3.55-21.45,14.5-38.83,34.7-50.37,10.12-5.78,21.01-8.01,32.91-5.26,8.37-7.64,17.76-14.03,28-19.11,11.1-5.5,23.08-9.1,35.53-10.62,10.78-1.32,21.12,1.51,31.23,4.85,31.25,10.33,53.67,30.32,68.65,57.36,8.01,14.46,13.48,30.14,20.19,45.23,7.48,16.81,9.54,34.64,10.84,52.5,1.81,24.92,3.13,49.87,4.17,74.83.33,7.86-1.01,15.78-1.43,23.68-.34,6.36-.39,12.74-.71,19.1-.79,15.65-1.52,31.3-2.55,46.94-.46,7.03-1.42,14.04-2.45,21.02-.52,3.56-1.7,7.04-2.57,10.56-1.04,4.19-2.19,8.35-3.08,12.57-2.25,10.56-5.86,20.81-11.57,30-7.02,11.29-18.21,17.44-32.48,16.81-4.54-.2-8.98-2.44-14.01-3.91-2.61,14.67-2.53,30.3-5.83,45.74,1.92.71,3.39,1.34,4.92,1.81,10.48,3.19,21,6.29,31.46,9.55,5.27,1.64,10.3,3.66,13.13,8.72.72,1.28,2.47,2.02,3.64,3.1,1.78,1.63,3.47,3.35,5.45,5.28-2.82,2.01-5.13,1.13-7.31.55-2.53-.68-4.78-1.01-7.34.39-3.74,2.04-7.47.64-11.07-.89-8.7-3.7-17.41-7.39-26.13-11.05-1.59-.67-3.23-1.97-5.31.08.79,2.42,2.95,3.98,5.01,5.58,5.8,4.51,11.66,8.95,17.43,13.49,2.39,1.89,4.48,3.94,5.04,7.14.23,1.29,1.71,2.46,2.8,3.54,1.97,1.94,4.57,3.43,5.22,6.33-3.74,1.49-4.17,1.36-11.03-3.25-5.11,2.77-10.07,1.24-14.66-1.74-7.27-4.72-14.13-9.85-19.53-16.58-4.75-5.92-9.66-11.74-14.89-17.28-2.89-3.06-6.69-5.35-9.89-8.19-2.09-1.86-4.34-3.82-5.62-6.17-2.39-4.39.61-8.82,5.9-9.2,1.62-.12,3.32.06,4.91.38,1.57.32,3.06,1,5.29,1.76,1.55-11.41,3.04-22.39,4.58-33.77-14.15,3.91-26.63,3.88-35.09-9.37-8.47,13.08-20.83,13.41-35.16,9.28,1.5,11.28,2.97,22.31,4.48,33.63,2.7-.71,4.92-1.49,7.22-1.85,3.43-.53,6.74-.11,8.74,3,1.99,3.1.83,5.99-1.21,8.65-.74.97-1.58,1.98-2.63,2.61-10.26,6.24-17.48,15.21-24.5,24.27-5.94,7.66-13.29,13.79-21.62,18.95-5.63,3.49-8.15,3.63-14.54,1.82ZM263.37,423.63c1.28,4.71-.59,8.72-1.94,12.79-.89,2.7-.8,4.86,1.43,7.07,2.77,2.74,5.11,5.87,7.68,8.79,5.3,6.01,12.45,7.6,19.94,5.7,11.65-2.95,20.51-9.1,25.35-20.27,6.83-15.75,9.69-32.44,14.52-48.65.49-1.65.74-3.38.93-5.09,2.23-20.06,3.77-40.14,3.42-60.34-.12-6.87.63-13.76.9-20.64.37-9.45,1.29-18.93.86-28.36-1-21.85-2.55-43.69-4.1-65.51-.9-12.66-1.37-25.38-6.05-37.58-3.54-9.22-5.91-18.84-9.72-27.94-4.55-10.89-9.69-21.6-15.26-32.07-17.4-32.65-45.62-52.83-83.01-62.09-5.17-1.28-10.42-1.58-15.79-.26-35.76,8.74-63.53,27.46-81.39,58.01-9.18,15.71-16.58,32.27-22.89,49.21-.52,1.39-.85,2.85-1.27,4.3.61.1.82.2.94.15.98-.44,1.93-.97,2.93-1.37,14.75-5.85,28.96-5.85,42.1,3.76,1.98,1.45,3.8,3.31,5.08,5.32,7.45,11.69,10.53,24.55,10.53,38.03,0,6.11-1.58,12.23-5.52,17.09-7.4,9.12-14.22,18.97-26.05,23.92-.11.04-.12.29-.36.97,4.13-.29,8.17-.06,11.67-2.08,3.32-1.92,6.38-4.24,9.99-6.68,0,1.13.2,1.73-.03,2.07-3.89,5.55-8.71,9.79-16.39,9.83-3.13.01-6.26.24-9.37.09-13.42-.67-25.46,4.11-37.85,7.74-1.58,12.61-1.32,24.79-.59,36.99.5,8.25,1.11,16.5,1.41,24.76.46,12.56.43,25.14,1.08,37.7.82,16.01,2.16,31.99,8.01,47.27.31.81.61,1.65.71,2.49,1.18,10.06,5.39,19.26,8.95,28.67,4.23,11.17,13.15,17.22,24.56,20.36,7.94,2.18,15.33.64,20.93-5.67,2.12-2.38,3.98-4.99,6.32-7.17,3.27-3.05,3.85-6.23,2.16-10.22-1.46-3.46-2.88-7.06-1.84-12.03.81,2.14,1.29,3.36,1.75,4.59,2.55,6.82,4.53,13.89,7.77,20.41,5.63,11.31,16.82,17.2,29.73,13.64,7.27-2,12.3-7.82,12.6-14.73.33-7.38.52-14.76.83-22.14.04-1.02.44-2.03.68-3.05.36.04.72.09,1.07.13.4,7.81.86,15.61,1.19,23.42.25,5.78,2.09,10.84,7.4,14.19,6.49,4.09,19.79,4.5,26.76-1.75,4.71-4.22,8.2-8.66,10.19-14.36,2.27-6.5,4.69-12.95,7.05-19.42ZM38.18,273.14c11.9-4.47,23.73-9.1,35.72-13.34,9.43-3.34,18.96-6.45,28.6-9.19,8.61-2.45,17.53-4.03,25.51-8.1,13.56-6.92,15.52-13.4,13.92-27.97-.74-6.78-4.49-13.42-7.66-19.78-2.83-5.66-7.66-10.09-13.14-13.72-7.43-4.92-15.4-5.33-23.47-1.68-3.77,1.7-7.37,3.83-10.77,6.11-15.4,10.32-30.88,20.53-45.98,31.22-13,9.21-24.2,20.12-32.04,33.71-3.35,5.81-6.07,11.8-5.34,18.66.72,6.75,6.1,10.48,13.11,8.73,3.34-.84,6.75-1.97,9.65-3.68,6.21-3.65,12.32-7.52,18.11-11.73,10.79-7.85,22.14-14.8,34.57-20.14,6.68-2.87,13.31-5.86,20.12-8.44,8.31-3.15,16.76-5.98,25.2-8.81,1.51-.51,3.34-.76,4.85-.44,1.18.25,2.57,1.41,2.99,2.47.29.73-.65,2.57-1.49,2.89-2.48.95-5.14,1.61-7.8,1.99-4.51.65-9.34.27-13.57,1.61-26.66,8.42-49.47,23.14-71.09,39.64ZM154.17,516.07c5.05,4.51,5.28,5.91,1.22,9.8-2.81,2.69-6.12,4.92-9.2,7.38-4.33,3.46-8.71,6.87-12.95,10.44-1.83,1.55-3.12,3.47-1.59,5.94,1.26,2.02,3.74,2.95,6.77,1.94,2.38-.8,4.74-1.95,6.75-3.39,6.88-4.91,13.27-10.25,18.42-16.91,7.12-9.21,14.74-18.08,25.13-24.39,1.04-.63,2.16-1.58,2.55-2.61.56-1.48,1.1-3.44.48-4.69-.47-.94-2.81-1.57-4.25-1.47-4.24.27-8.28,1.19-8.85,7.45-1.64-2.96-2.61-4.71-3.69-6.67-4.72,3.01-9.74,4.4-15.33,1.97v8.43c-1.4-1.44-2.29-2.36-3.09-3.18-4.39,1.53-8.49,3.06-12.65,4.4-7.81,2.52-15.7,4.84-23.48,7.44-2.73.92-5.5,2.11-7.79,3.74-3.93,2.79-3.14,6.48,1.37,8.41,2.66,1.14,5.06.37,7.41-.64,5.51-2.37,10.91-4.97,16.46-7.24,5.36-2.19,10.85-4.1,16.31-6.14ZM265.55,516.31c2.25.67,4.41,1.12,6.4,1.94,8.07,3.29,16.08,6.73,24.14,10.05,2.17.89,4.38,1.84,6.68,2.28,2.59.5,6.03-1.46,6.84-3.41.84-2.02-.16-4.34-2.91-6.06-1.67-1.04-3.48-1.98-5.36-2.59-12.62-4.1-25.28-8.11-38.2-12.23-.53.82-1.15,1.79-1.77,2.76-.31-.2-.62-.41-.93-.61v-7.86c-5.79,3.05-10.74.89-15.31-1.51-1.17,2.02-2.15,3.72-3.49,6.02-1.11-3.11-1.58-5.41-4.68-6.23-4.85-1.28-7.99-1.12-9.06,1.02-1.07,2.13.66,4.94,4.3,7.62,3.74,2.76,7.7,5.39,10.88,8.66,5.43,5.59,10.46,11.53,15.39,17.51,5.24,6.35,11.7,11.4,18.68,15.86,2.02,1.29,4.7,2.19,7.12,2.28,4.12.16,6.04-3.68,3.69-6.87-.82-1.11-1.94-2.06-3.05-2.95-3.9-3.13-7.86-6.2-11.79-9.3-2.81-2.21-5.8-4.26-8.34-6.71-3.99-3.86-3.8-5.4.78-9.66ZM88.74,167.92c1.11-1.88,2.24-3.37,2.93-5.02,5.99-14.4,11.79-28.88,17.88-43.24,5.88-13.87,14.27-26.32,25.06-37.34.9-.92,1.59-2.03,2.68-3.45-1.5-.28-2.36-.52-3.24-.59-7.79-.65-14.96,1.49-21.61,4.93-20.6,10.64-31.56,27.62-35.65,48.86-1.25,6.49-.84,13.01.99,19.43,1.8,6.29,5.12,11.67,10.96,16.43ZM146.83,218.66c.3-1.81.73-4.42,1.16-7.03.37,0,.74.02,1.1.03.52,2.2,1.04,4.41,1.8,7.65,2.02-8.14-1.46-14.64-2.78-22.03,4.71,2.58,3.9,7.25,6.74,11.04.28-13.33-2.42-24.93-8.47-35.87-2.77-5.01-7.2-8.04-12.42-10.5-8.66-4.07-17.51-3.19-26.37-1.16-8.19,1.87-14.37,6.82-19.59,12.7-2.26,2.54-3.8,5.73-4.46,9.29,5.75-5.25,12.63-7.06,20.27-8.21,9.24-1.4,16.66,1.02,23.33,6.54,12.25,10.13,17.37,23.48,19.7,37.56ZM248.75,460.2c-.43,3.75-.81,7.12-1.28,11.2,3.66.83,6.94,1.94,10.3,2.24,4.19.38,5.78-1.24,6.38-5.27.41-2.72.5-5.56,1.42-8.12,2.47-6.85-1.44-11.32-5.72-15.82-3.02,4.83-5.9,9.44-8.86,14.2,3.49,2.17,7.27,3.46,11.65,3.04-4.96,4.24-8.88-.3-13.89-1.47ZM169.08,458.67c-3.13-5.04-5.94-9.57-8.95-14.42-1.24,1.61-2.24,3.24-3.57,4.58-2.8,2.81-3.16,6.03-2.41,9.58.64,3.04,1.21,6.09,1.72,9.15.91,5.5,2.94,6.96,8.86,5.83,2.61-.5,5.12-1.46,7.88-2.27-.47-3.99-.87-7.36-1.28-10.8q-11.18,3.72-13.94.75c4.72,1.26,8.21-.48,11.7-2.4ZM80.21,290.07v-28.92c-2.41.97-4.39,1.79-6.39,2.57-2,.78-4.02,1.53-5.86,2.23-.55,8.57,3.87,17.62,12.24,24.12ZM173.95,486.49c-5.44.92-10.31,1.75-15.69,2.66,1.29,3.06-1.35,7.7,3.71,9.93,5.34,2.34,9.32-.65,13.63-3.32-.6-3.35-1.15-6.47-1.65-9.27ZM246.14,486.46c-.46,2.47-1.01,4.97-1.35,7.49-.1.75.13,1.9.67,2.31,3.2,2.39,6.75,4.28,11.03,3.45,2.61-.51,4.65-1.85,4.68-4.86.02-2.14.41-4.28.55-5.7-5.42-.93-10.16-1.74-15.59-2.68ZM262.97,476.39c-5.34-.76-10.09-1.44-15.28-2.17-.32,2.89-.68,6.2-1.12,10.23,3.84.8,7.3,1.84,10.83,2.16,3.34.3,4.73-.95,5.21-3.98.36-2.31.29-4.69.37-6.23ZM157.16,475.08c0,1.89-.03,3.07,0,4.24.03,1.03.06,2.06.23,3.07.51,3.05,1.77,4.22,5.05,4.27,3.89.06,7.53-.88,11-2.99-.37-3.34-.73-6.53-1.14-10.22-4.85,1.61-9.41,3.78-15.15,1.64Z"></path><path class="cls-8" d="M202.33,13.11c.77-2.46,1.16-4.12,1.82-5.68.73-1.74,1.47-3.56,2.63-5.06,2.65-3.44,6.79-3.09,8.7.74,1.12,2.26,1.72,4.75,2.68,7.47,1.66-1.96,2.9-3.65,4.39-5.13,1.74-1.73,4.01-2.57,6.51-1.79,2.46.77,3.29,2.93,3.07,5-.81,7.84-1.69,15.69-3,23.47-.52,3.11-3.56,4.74-6.67,5.46-2.82.65-5.77.83-8.68,1.09-4.73.42-9.49.59-14.2,1.14-7.06.82-9.02-.19-9.73-7.02-.65-6.3-.56-12.69-.46-19.03.03-2.26-.08-5.24,3-6.09,3.31-.91,6.11.3,7.98,3.14.37.57.9,1.05,1.98,2.29ZM194.98,9.84c-.48.22-.96.43-1.43.65-1.45,7.03-1.32,14.07-.39,21.39,8.55-3.23,16.5-3.63,32.6-1.91,3.28-7.71,4.17-18.93,1.81-23.41-5.74.75-5.14,7.68-10.11,9.38-4.16-3.54-2-9.8-7.22-13.7-1.29,2.99-2.38,5.45-3.41,7.93-1.03,2.46-1.03,5.44-4.35,7.27-2.52-2.56-5-5.08-7.48-7.6Z"></path><path class="cls-8" d="M277.27,137.92c1.02,15.08-4.4,28.67-13.01,40.82-6.08,8.58-14.82,15.36-25.26,19.39-6.42,2.47-13.13,4.37-19.84,6.04-10.36,2.59-19.89-.58-29.22-4.49-18.4-7.71-27.44-21.31-29.16-39.83-.75-8.07-1.63-16.07-.43-24.18,2.9-19.58,11.99-35.94,28.37-48.59,9.3-7.18,19.79-10.79,32.03-10.23,20.57.94,36.5,9.1,47.68,25.44,5.84,8.54,7.88,18.05,8.81,27.89.24,2.56.04,5.16.04,7.74ZM162.67,151.42c-.48,8.34.94,16.93,5.31,24.97,3.54,6.51,7.9,12.6,14.36,16.68,4.97,3.15,10.69,5.35,16.31,7.46,2.97,1.12,6.42,1.64,9.63,1.55,13.11-.37,25.42-3.76,36.48-10.36,11.77-7.02,20.41-16.44,25.13-29.1,5.58-14.99,5.33-30.02,2.36-45.32-1.58-8.12-6.13-14.59-11.81-20.62-6.37-6.77-14.5-10.87-23.09-14.6-16.35-7.1-37.05-1.92-49.37,8.48-9.08,7.66-15.15,17.72-19.65,28.38-4.31,10.2-6.02,20.91-5.66,32.47Z"></path><path class="cls-8" d="M296.33,267.1c.02,11.21-3.8,24.19-12.8,35.44-7.16,8.95-14.46,18.4-26.94,21.01-14.43,3.01-29.02,4.17-43-2.52-6.07-2.91-10.85-7.02-14.61-12.24-12.79-17.77-15.18-37.05-8.06-57.11,4.67-13.15,13.73-23.82,25.07-32.72,5.69-4.47,12.55-6.47,19.67-7.43,8.43-1.14,16.94-.9,25.02,1.91,3.73,1.3,7.36,3.15,10.63,5.3,17.38,11.41,25.85,27.23,25.03,48.36ZM239.51,323.66c5.56-.95,11.34-1.28,16.63-2.97,14.99-4.77,23.29-16.29,30.41-28.48,5.87-10.06,6.9-21.35,6.84-32.58-.03-4.74-.52-9.87-2.49-14.15-7.09-15.45-18.7-26.62-36.74-30.74-11.1-2.53-22.24-2.15-31.97,3.62-14,8.3-24.35,19.74-29.49,34.84-2.95,8.67-3.21,17.5-2.47,26.51.91,11.06,5.2,20.79,12.82,29.03,3.73,4.04,7.41,8.25,13.2,10.52,7.53,2.95,15.22,3.62,23.26,4.39Z"></path><path class="cls-8" d="M281.58,405.28c.71,3,1.11,6.11,2.22,8.97.91,2.34,2.28,4.73,4.11,6.5,3.65,3.53,6.87,3.23,10.21-.58,3.48-3.96,5.15-8.67,6-13.67.22-1.28.45-2.56.73-4.11,4.92,3.91,4.99,8.2,2.72,12.89-.68,1.41-1.16,2.9-1.89,4.28-4.33,8.25-8.17,8.27-17.19,7.26-1.96-.22-4.35-2.18-5.34-3.93-2.76-4.93-3.73-10.38-3.38-15.98.04-.59.58-1.15.88-1.73.32.03.63.05.95.08Z"></path><path class="cls-8" d="M222.31,364.07c-.16,7.62.04,15.32-3.1,22.59-2.89,6.69-8.29,8.25-14.53,4.11-8.44-5.6-12.01-13.65-11.7-23.18.07-2.07,1.21-4.11,1.85-6.16.43.04.85.08,1.28.11,0,1.16.13,2.34-.02,3.48-1.05,7.68,1.65,14.2,6.95,19.92.72.77,1.58,1.45,2.46,2.05,5.23,3.57,8.36,2.88,10.31-2.93,1.53-4.55,2.05-9.39,3.08-14.09.46-2.09,1.07-4.15,1.61-6.23.6.11,1.21.22,1.81.33Z"></path><path class="cls-8" d="M177.44,379.93c-1.02,7.86-3.41,15.23-10,20.86-2.87,2.45-6.33,2.67-9.73.87-1.58-.84-3.15-1.85-4.36-3.09-5.83-5.96-8.4-13.27-9.18-21.13-.28-2.78.3-5.71,3.53-8.51.21,1.72.56,2.64.39,3.48-1.78,8.87,1.91,16.3,7.49,22.9,4.35,5.15,8.39,4.73,12.25-.92,2.27-3.31,3.84-7.03,5.7-10.58.77-1.47,1.48-2.96,2.21-4.44.56.19,1.13.38,1.69.57Z"></path><path class="cls-8" d="M280.94,377.48c.95,1.04,1.38,1.3,1.37,1.54-.3,7.56-2.67,14.54-7.33,20.69-2.23,2.95-5.72,3.56-9.42,2.53-.87-.24-1.72-.6-2.54-.99-7.78-3.71-13.59-16.19-11.12-24.01.32-1.03,1.07-1.94,2.53-2.76.12.87.49,1.78.33,2.59-1.52,7.31,1.95,13.05,6.51,18.45.66.79,1.63,1.4,2.56,1.93,4.17,2.37,7.37,1.77,9.6-2.32,2.08-3.81,3.56-7.91,5.26-11.9.73-1.72,1.37-3.48,2.25-5.75Z"></path><path class="cls-8" d="M123.82,350.1c-.36,4.08-1.64,7.98-3.6,11.63-3.21,5.97-10.26,7.61-15.65,2.95-7.2-6.24-10.13-14.53-9.75-23.7.06-1.46,1.22-2.87,2.43-4.19-.78,7.87,1.8,14.67,6,21.06.67,1.02,1.39,2.05,2.27,2.9,4.07,3.93,8.88,3.41,11.73-1.34,1.16-1.94,1.91-4.08,2.94-6.09.66-1.3,1.49-2.52,2.25-3.77.46.18.92.37,1.39.55Z"></path><path class="cls-8" d="M221.09,401.1c-.32,1.56-.57,3.13-.98,4.66-1.08,4.08-1.28,8.18.03,12.22.58,1.78,1.33,3.62,2.48,5.1,3.06,3.93,6.63,4.14,9.97.45,2.35-2.6,4.18-5.62,6.22-8.47,1.08-1.51,2.12-3.05,3.22-4.63.71.57,1.2.82,1.17.96-1.37,6.42-4.8,11.81-9.67,16.37-2.6,2.44-6.09,2.92-9.11,1.08-2.5-1.52-5.07-3.63-6.36-6.06-3.55-6.69-3.03-13.63.23-20.41.37-.78.65-1.6.97-2.4.61.38,1.22.75,1.82,1.13Z"></path><path class="cls-8" d="M131.55,311.36c0,1.44-.07,2.88.01,4.31.34,5.55,4.74,11.02,9.95,12.43,4.18,1.13,6.59.48,9.03-2.89,1.43-1.97,2.43-4.22,3.59-6.36.78-1.44,1.51-2.92,3.3-4.18.14.9.65,1.92.37,2.67-1.41,3.69-2.62,7.54-4.69,10.9-2.56,4.15-6.43,5.19-11.4,4.02-7.28-1.71-13.33-8.87-13.23-15.93.02-1.74.77-3.48,1.19-5.22.63.09,1.26.17,1.89.26Z"></path><path class="cls-8" d="M114.81,401.7c1.14,4.44,1.65,7.86,2.93,11.01,1.15,2.84,2.72,5.73,4.84,7.99,4.54,4.84,10.52,3.64,12.57-2.42,1.44-4.23,2.31-8.63,3.7-13.96.81,1.67,1.75,2.65,1.6,3.46-.88,4.89-1.55,9.87-3.2,14.55-1.44,4.1-5.36,5.65-9.81,4.56-2.24-.55-4.73-1.39-6.34-2.84-5.89-5.34-7.89-12.21-7.74-19.72.01-.57.6-1.14,1.43-2.64Z"></path><path class="cls-8" d="M312.06,327.52c3.85,5.67-1.36,18.9-8.43,20.71-2.78.71-5.02-.31-7.09-1.85-4.28-3.17-6.47-9.14-5.34-15.41.81,1.14,1.44,1.79,1.78,2.55,1.19,2.67,1.85,5.64,3.49,8.01,3.26,4.7,7.38,4.71,10.09-.18,2.38-4.3,3.68-9.12,5.5-13.84Z"></path><path class="cls-8" d="M254.76,200.32c13.82-8.7,21.02-22.05,28.86-36.27-.13,13.49-17.39,34.73-28.86,36.27Z"></path><path class="cls-8" d="M168.79,97.37c-11.69,14.83-14.97,32.06-16.73,49.75-4.41-13.56,4.81-41.09,16.73-49.75Z"></path><path class="cls-8" d="M119.02,304.87c-.94,4.63-4.69,8.47-8.85,9.04-3.97.55-8.95-1.96-11.33-5.98-2.92-4.94-3.9-10.32-3.44-15.91.13-1.61.7-3.19,2.14-4.77.14.82.45,1.66.38,2.47-.41,5.08.55,9.92,2.82,14.52,3.62,7.32,9.03,8.26,14.91,2.58.86-.83,1.25-2.09,1.85-3.14.51.4,1.01.8,1.52,1.2Z"></path><path class="cls-8" d="M309.36,257.01c.71,2.05,1.15,3.42,1.67,4.77,1.2,3.13,2.82,5.99,6,7.77,3.61,2.03,6.18,1.65,8.36-1.77,1.68-2.63,2.81-5.57,4.14-8.4.56-1.19.99-2.42,1.5-3.67.63.33,1.17.46,1.2.65.82,6.25-1.94,11.39-6.25,15.77-1.18,1.2-3.63,1.89-5.46,1.82-7.28-.26-13.42-9.14-11.14-16.95Z"></path><path class="cls-8" d="M169.69,276.16c-6.21-9.81,1.29-32.67,11.32-41.42-2.99,7.21-6.48,13.77-8.37,20.72-1.85,6.79-2.05,13.97-2.95,20.7Z"></path><path class="cls-8" d="M256.3,347.21c-.34,5.48-3.38,9.42-8.64,11.81-4.05,1.84-8.76.74-12.08-2.38-3.32-3.12-4.27-6.97-2.3-11.92.65,2.14,1.03,3.49,1.48,4.82,1.09,3.28,2.98,5.91,6.8,6.73,4.08.87,7.14-.9,9.54-3.74,1.54-1.82,2.74-3.89,4.09-5.84.37.17.74.35,1.1.52Z"></path><path class="cls-8" d="M166.17,227.65c-.96-4.53,1.81-8.17,2.01-12.13.2-4.05.04-8.12.04-12.71,5.6,6.62,3.79,17.51-2.05,24.84Z"></path><path class="cls-8" d="M159.62,81.6c-4.23,5.89-8.47,11.77-12.74,17.71-.69-3.28-.21-4.61,4.04-10.18,2.31-3.02,4.5-6.2,8.7-7.53Z"></path><path class="cls-8" d="M112.67,144.79c.53-7.88,3.74-14.94,7.65-21.77.35.11.71.22,1.06.33-2.53,7.26-5.06,14.53-7.59,21.79-.38-.12-.75-.23-1.13-.35Z"></path><path class="cls-8" d="M127.32,142.74c.54-5.31,2.73-10.14,6.25-14.59-1.73,4.97-3.46,9.93-5.19,14.9-.36-.1-.71-.21-1.07-.31Z"></path><path class="cls-8" d="M156,230.83c-.69,1.52-1.38,3.05-2.06,4.57-.43-.17-.85-.33-1.28-.5.69-1.52,1.38-3.04,2.07-4.56.42.16.85.33,1.27.49Z"></path><path class="cls-8" d="M173.73,293.42c-.41-1.26-.82-2.52-1.24-3.78.29-.09.57-.18.86-.26.48,1.15.96,2.3,1.44,3.45-.35.2-.71.4-1.06.59Z"></path><path class="cls-8" d="M106.5,206.08c-6.11-1.52-10.97,1.93-15.86,5.4-1.34.95-2.87,3.16-4.61,1.54-2.1-1.95.37-3.65,1.79-4.54,7.28-4.56,14.64-9.03,22.21-13.16,2.78-1.52,6.09-1.26,8.63,1.17,1.6,1.53,1.77,3.4.9,5.26-1.41,3-4.1,4.25-7.48,4.33-1.65.04-3.3,0-5.57,0Z"></path><path class="cls-8" d="M65.11,243.17c1.99-1.45,3.89-3.02,5.98-4.33,15.18-9.49,31.41-17.02,48.65-22.61,2.91-.94,6.03-1.41,9.09-1.77,2.16-.26,4.29.26,5.96,2.29-4.86.94-9.55,1.34-13.83,2.78-8.27,2.78-16.48,5.82-24.41,9.34-10.42,4.64-20.55,9.85-30.8,14.81-.21-.17-.42-.35-.64-.52Z"></path><path class="cls-8" d="M108.29,112c-5.71-4.24-7.96-4.68-10.01-2.52-2.07,2.19-1.19,4.51,3.72,9.3-1.79,5.03-3.62,10.21-5.49,15.39-.23.65-.57,1.27-.93,1.86-1.36,2.26-2.67,4.71-6.05,4.45-2.58-.2-5.13-3.01-5.27-6.48-.14-3.56-.24-7.37.9-10.69,2.86-8.34,6.71-16.34,12.23-23.52,2.33-3.03,5.35-5.2,9.28-6.05,2.74-.59,5.55-.79,7.68,1.44,2.3,2.42,1.93,5.14.35,7.66-1.91,3.05-4.13,5.93-6.41,9.15ZM90.23,132.65c3.5-2.12,4.22-5.04,3.84-8.23-.09-.78-1.16-1.72-2.02-2.07-.58-.24-1.81.22-2.35.74-2.01,1.92-1.8,6.63.53,9.56Z"></path><path class="cls-8" d="M107.96,168.75c8.33-3.38,18.87.42,22.55,8.06-6.3-5.73-13.85-8.32-22.55-8.06Z"></path><path class="cls-8" d="M137.32,181.87c.5.98,1,1.96,1.49,2.94-.23.11-.46.21-.69.32-.53-.97-1.05-1.94-1.58-2.9.26-.12.52-.24.78-.36Z"></path><path class="cls-8" d="M270.04,141.32c-.58,18.79-11.44,37.73-33.25,49.69-14.53,7.97-30.93,9.89-46.98,2.48-11.11-5.13-17.37-14.15-20.34-25.08-5.2-19.13-1.78-37.6,6.29-55.41,3.4-7.51,8.97-13.82,15.57-19.16,23.46-18.96,55.78-13.34,70.59,12.2,5.32,9.17,8.06,19.4,8.11,35.27ZM170.2,148.88c0,1.89-.11,3.79.02,5.68.61,8.85,2.37,17.44,7.81,24.94,4.11,5.68,9.35,10.04,16.61,12.09,10.15,2.86,20.28,2.38,30.5.55,5.36-.96,10.1-3.09,14.3-6.29,16.57-12.62,26.17-28.48,26.15-48.94-.01-14.64-3.86-27.97-14.65-38.93-9.03-9.18-20.33-13.63-33.65-11.88-19.07,2.51-32.27,12.86-39.69,29.12-4.84,10.6-7.56,21.93-7.39,33.67Z"></path><path class="cls-8" d="M286.76,262.94c1.36,22.68-10.75,42.9-30.66,51.67-9.94,4.38-20.16,4.8-30.34.4-2.33-1.01-4.69-1.97-7.03-2.95-13.64-5.74-20.63-16.21-23.01-29.5-3.52-19.62,2.72-36.69,16.54-51.51,2.04-2.19,4.15-4.35,6.46-6.28,13.27-11.09,30.1-9.93,42.67-3.85,12.06,5.84,20.17,14.45,23.11,27.26,1.2,5.23,2.87,10.29,2.26,14.76ZM282.8,264.2c0-2.58.28-5.19-.07-7.73-.37-2.71-1.5-5.32-2.02-8.02-3.04-15.8-18.08-25.16-31.91-27.8-3.53-.67-7.34-.75-10.93-.38-10.91,1.12-19.06,7.01-25.57,14.71-9.76,11.52-15.28,24.63-14.54,39.63,1.12,22.75,14.56,35.68,39.25,39.29,10.03,1.47,18.83-2.36,26.39-8.28,13.72-10.74,19.79-24.82,19.41-41.41Z"></path><path class="cls-8" d="M217.08,122.89c-3.7-1.14-6.41-2.27-9.25-2.76-2.36-.41-4.86.04-6.13,2.45-1.06,2,.05,5.21,2.35,6.81,1.3.91,2.74,1.66,4.21,2.54-1.21,3.52-2.95,6.86-3.41,10.35-.82,6.11-.81,12.31-1.23,18.47-.15,2.2-.1,4.54-.92,6.53-1.55,3.79-4.67,4.78-8.43,2.8-1.86-.98-3.73-2.39-4.83-4.05-1.63-2.44-3.25-5.18-3.7-7.96-2.15-13.47-1.74-26.77,4.68-39.39,1.77-3.48,4.02-6.53,7.69-8.54,1.23-.68,2.26-1.75,3.21-2.78,3.78-4.06,8.72-5,14.04-4.3,7.42.96,10.75,7.42,6.97,13.52-1.44,2.33-3.55,4.29-5.25,6.3ZM192.35,140.9c-4.05,3.25-3.67,6.75-3.46,10.03.22,3.32.47,6.83,5.19,8.93,1.04-6.56.03-12.32-1.73-18.96Z"></path><path class="cls-8" d="M246.83,248.49c-2.67-1.3-4.88-2.51-7.2-3.48-1.94-.82-4.06-.89-5.6.72-1.58,1.64-1.22,3.71.04,5.25,1.83,2.24,4.09,4.17,6.58,6.65,0-.41.15.02-.02.21-6.76,7.45-7.27,16.19-6.03,25.32.28,2.03.71,4.13.45,6.12-.55,4.28-3.77,6.56-8.15,5.39-2.66-.71-5.72-2.13-7.22-4.14-2.35-3.14-4.38-6.92-5.05-10.66-2.37-13.23-.1-26.01,6.1-38.1,1.26-2.45,2.89-4.82,4.77-6.88,4.77-5.24,11.22-6.04,17.24-2.42,5.63,3.38,7.29,9.52,4.1,16.03ZM224.53,267.17c-4.72,1.55-5.62,2.84-5.86,7.76-.21,4.36-.07,8.66,6.01,10.97,2.08-6.37-.33-12.25-.15-18.73Z"></path></g></g></g></g></svg> 