<?xml version="1.0" encoding="UTF-8"?> <svg xmlns="http://www.w3.org/2000/svg" id="Capa_2" data-name="Capa 2" viewBox="0 0 328.45 93.35"><defs><style> .cls-1 { fill: #6739e5; } .cls-1, .cls-2 { stroke-width: 0px; } .cls-2 { fill: #fff; } </style></defs><g id="Capa_1-2" data-name="Capa 1"><g><g><path class="cls-2" d="M46.18,90.73l-16.51-31.52h-.12v31.52H2V2.87h40.95c7.11,0,13.2,1.26,18.24,3.79,5.05,2.52,8.83,5.96,11.35,10.3,2.52,4.34,3.79,9.25,3.79,14.71,0,5.88-1.63,11.09-4.9,15.64-3.27,4.55-7.96,7.82-14.09,9.8l19.11,33.63h-30.28ZM29.55,40.84h10.92c2.65,0,4.63-.6,5.96-1.8,1.32-1.2,1.99-3.08,1.99-5.65,0-2.32-.68-4.14-2.05-5.46-1.37-1.32-3.33-1.99-5.89-1.99h-10.92v14.89Z"></path><path class="cls-2" d="M79.9,92.73h-34.93l-13.42-25.63v25.63H0V.87h42.95c7.39,0,13.83,1.34,19.14,4,5.38,2.69,9.48,6.42,12.19,11.08,2.69,4.63,4.06,9.92,4.06,15.71,0,6.27-1.78,11.93-5.28,16.8-3.08,4.29-7.38,7.55-12.8,9.71l19.64,34.56ZM47.39,88.73h25.63l-18.63-32.78,2.33-.76c5.68-1.84,10.08-4.89,13.08-9.07,3-4.18,4.53-9.05,4.53-14.47,0-5.08-1.18-9.69-3.51-13.7-2.31-3.98-5.85-7.18-10.52-9.51-4.74-2.37-10.58-3.57-17.35-3.57H4v83.86h23.55v-31.52h3.33l16.51,31.52ZM40.47,42.84h-12.92v-18.89h12.92c3.09,0,5.54.86,7.29,2.55,1.76,1.71,2.66,4.03,2.66,6.9,0,3.14-.89,5.54-2.64,7.13-1.7,1.54-4.15,2.32-7.3,2.32ZM31.55,38.84h8.92c2.12,0,3.68-.43,4.61-1.28.88-.8,1.33-2.2,1.33-4.17,0-1.77-.47-3.08-1.44-4.02-.97-.94-2.49-1.42-4.5-1.42h-8.92v10.89Z"></path></g><g><path class="cls-1" d="M120.42,2.87v87.86h-27.55V2.87h27.55Z"></path><path class="cls-1" d="M122.42,92.73h-31.55V.87h31.55v91.86ZM94.87,88.73h23.55V4.87h-23.55v83.86Z"></path></g><g><path class="cls-2" d="M141.34,23.47c3.52-6.78,8.54-12.06,15.08-15.82,6.53-3.76,14.23-5.65,23.08-5.65,7.61,0,14.42,1.43,20.42,4.28,6,2.85,10.88,6.89,14.64,12.1,3.76,5.21,6.27,11.29,7.51,18.24h-29.04c-1.32-2.89-3.21-5.15-5.65-6.76-2.44-1.61-5.23-2.42-8.38-2.42-4.63,0-8.29,1.74-10.98,5.21-2.69,3.47-4.03,8.15-4.03,14.02s1.34,10.55,4.03,14.02c2.69,3.47,6.35,5.21,10.98,5.21,3.14,0,5.94-.81,8.38-2.42,2.44-1.61,4.32-3.87,5.65-6.76h29.04c-1.24,6.95-3.74,13.03-7.51,18.24-3.77,5.21-8.65,9.25-14.64,12.1-6,2.85-12.8,4.28-20.42,4.28-8.85,0-16.55-1.88-23.08-5.65-6.54-3.76-11.56-9.04-15.08-15.82-3.52-6.78-5.27-14.52-5.27-23.21s1.76-16.42,5.27-23.21Z"></path><path class="cls-2" d="M179.5,93.35c-9.17,0-17.27-1.99-24.08-5.91-6.84-3.94-12.18-9.54-15.86-16.63-3.65-7.04-5.5-15.15-5.5-24.13s1.85-17.09,5.5-24.13c3.68-7.1,9.01-12.69,15.85-16.63,6.81-3.92,14.91-5.91,24.08-5.91,7.87,0,15.03,1.51,21.27,4.48,6.28,2.99,11.46,7.27,15.41,12.73,3.92,5.43,6.57,11.85,7.86,19.06l.42,2.35h-32.71l-.53-1.17c-1.16-2.54-2.82-4.53-4.93-5.93-2.13-1.4-4.51-2.09-7.27-2.09-4.02,0-7.09,1.45-9.4,4.44-2.4,3.1-3.62,7.41-3.62,12.8s1.22,9.7,3.61,12.8c2.31,2.99,5.38,4.44,9.4,4.44,2.77,0,5.15-.68,7.27-2.09,2.14-1.42,3.75-3.35,4.93-5.93l.53-1.17h32.71l-.42,2.35c-1.29,7.21-3.93,13.63-7.85,19.06-3.95,5.46-9.13,9.75-15.41,12.73-6.24,2.97-13.4,4.48-21.27,4.48ZM179.5,4c-8.46,0-15.89,1.81-22.08,5.38-6.17,3.55-10.98,8.6-14.3,15.01h0c-3.35,6.46-5.05,13.96-5.05,22.29s1.7,15.82,5.05,22.29c3.32,6.41,8.13,11.46,14.3,15.01,6.19,3.57,13.62,5.38,22.08,5.38,7.28,0,13.85-1.38,19.56-4.09,5.66-2.7,10.33-6.55,13.88-11.46,3.14-4.35,5.38-9.41,6.68-15.07h-25.35c-1.44,2.68-3.38,4.84-5.78,6.43-2.76,1.83-5.95,2.75-9.48,2.75-5.26,0-9.49-2.01-12.56-5.99-2.95-3.82-4.45-8.95-4.45-15.25s1.5-11.43,4.45-15.25c3.07-3.97,7.3-5.99,12.56-5.99,3.53,0,6.72.93,9.48,2.75,2.41,1.59,4.35,3.75,5.78,6.43h25.35c-1.3-5.66-3.54-10.72-6.68-15.07-3.55-4.91-8.22-8.77-13.88-11.46-5.7-2.71-12.28-4.09-19.56-4.09Z"></path></g><g><path class="cls-2" d="M291.83,90.73l-25.56-38.1v38.1h-27.55V2.87h27.55v36.98l25.19-36.98h31.15l-30.28,42.07,32.27,45.79h-32.76Z"></path><path class="cls-2" d="M328.45,92.73h-37.68l-22.5-33.53v33.53h-31.55V.87h31.55v32.49L290.4.87h36.11l-31.73,44.08,33.67,47.78ZM292.9,88.73h27.84l-30.87-43.81,28.83-40.06h-26.19l-28.16,41.33,28.54,42.53ZM240.72,88.73h23.55V4.87h-23.55v83.86Z"></path></g></g></g></svg> 